ISO-10303-21;
HEADER;
/* Generated by software containing ST-Developer
 * from STEP Tools, Inc. (www.steptools.com) 
 */
/* OPTION: using custom renumber hook */

FILE_DESCRIPTION(
/* description */ ('STEP AP242 Edition 2',
'CAx-IF Rec.Pracs.---Representation and Presentation of Product Manufa
cturing Information (PMI)---4.0---2014-10-13',
'CAx-IF Rec.Pracs.---3D Tessellated Geometry---0.4---2014-09-14','2;1',
'CAx-IF Rec.Pracs.---User Defined Attributes---1.5---2016-08-15'),
/* implementation_level */ '2;1');

FILE_NAME(
/* name */ 'Inductor_7.3x6.6mm',
/* time_stamp */ '2026-09-17T22:16:59Z',
/* author */ (''),
/* organization */ (''),
/* preprocessor_version */ 'ST-DEVELOPER v20',
/* originating_system */ 'ONSHAPE BY PTC INC, 1.220',
/* authorisation */ '  ');

FILE_SCHEMA (('AP242_MANAGED_MODEL_BASED_3D_ENGINEERING_MIM_LF { 1 0 10303 442 3 1 4 }'));
ENDSEC;

DATA;
#10=OVER_RIDING_STYLED_ITEM('',(#1010),#974,#1007);
#11=OVER_RIDING_STYLED_ITEM('',(#1011),#975,#1007);
#12=OVER_RIDING_STYLED_ITEM('',(#1012),#976,#1007);
#13=OVER_RIDING_STYLED_ITEM('',(#1013),#977,#1007);
#14=OVER_RIDING_STYLED_ITEM('',(#1014),#978,#1007);
#15=OVER_RIDING_STYLED_ITEM('',(#1015),#979,#1007);
#16=OVER_RIDING_STYLED_ITEM('',(#1016),#980,#1007);
#17=OVER_RIDING_STYLED_ITEM('',(#1017),#981,#1007);
#18=OVER_RIDING_STYLED_ITEM('',(#1018),#982,#1007);
#19=OVER_RIDING_STYLED_ITEM('',(#1019),#983,#1007);
#20=OVER_RIDING_STYLED_ITEM('',(#1020),#984,#1007);
#21=OVER_RIDING_STYLED_ITEM('',(#1021),#985,#1007);
#22=OVER_RIDING_STYLED_ITEM('',(#1022),#986,#1007);
#23=OVER_RIDING_STYLED_ITEM('',(#1023),#987,#1007);
#24=OVER_RIDING_STYLED_ITEM('',(#1024),#988,#1007);
#25=OVER_RIDING_STYLED_ITEM('',(#1025),#989,#1007);
#26=OVER_RIDING_STYLED_ITEM('',(#1026),#990,#1007);
#27=OVER_RIDING_STYLED_ITEM('',(#1027),#991,#1007);
#28=OVER_RIDING_STYLED_ITEM('',(#1028),#992,#1007);
#29=OVER_RIDING_STYLED_ITEM('',(#1029),#993,#1007);
#30=OVER_RIDING_STYLED_ITEM('',(#1030),#994,#1007);
#31=OVER_RIDING_STYLED_ITEM('',(#1031),#995,#1007);
#32=OVER_RIDING_STYLED_ITEM('',(#1032),#996,#1007);
#33=OVER_RIDING_STYLED_ITEM('',(#1033),#997,#1007);
#34=OVER_RIDING_STYLED_ITEM('',(#1034),#998,#1007);
#35=OVER_RIDING_STYLED_ITEM('',(#1035),#999,#1007);
#36=OVER_RIDING_STYLED_ITEM('',(#1036),#1000,#1007);
#37=OVER_RIDING_STYLED_ITEM('',(#1037),#1001,#1007);
#38=OVER_RIDING_STYLED_ITEM('',(#1038),#1002,#1007);
#39=OVER_RIDING_STYLED_ITEM('',(#1039),#1003,#1007);
#40=SHAPE_REPRESENTATION_RELATIONSHIP('','',#1207,#42);
#41=SHAPE_REPRESENTATION_RELATIONSHIP('','',#1208,#43);
#42=ADVANCED_BREP_SHAPE_REPRESENTATION('',(#1203),#1983);
#43=ADVANCED_BREP_SHAPE_REPRESENTATION('',(#1204),#1984);
#44=(
BOUNDED_SURFACE()
B_SPLINE_SURFACE(3,1,((#1536,#1537),(#1538,#1539),(#1540,#1541),(#1542,
#1543)),.CYLINDRICAL_SURF.,.F.,.F.,.F.)
B_SPLINE_SURFACE_WITH_KNOTS((4,4),(2,2),(0.,1.),(0.,1.),
 .PIECEWISE_BEZIER_KNOTS.)
GEOMETRIC_REPRESENTATION_ITEM()
RATIONAL_B_SPLINE_SURFACE(((1.,1.),(0.708055585234753,0.708055585234753),
(0.708055585234753,0.708055585234753),(1.,1.)))
REPRESENTATION_ITEM('')
SURFACE()
);
#45=(
BOUNDED_SURFACE()
B_SPLINE_SURFACE(3,1,((#1554,#1555),(#1556,#1557),(#1558,#1559),(#1560,
#1561)),.CYLINDRICAL_SURF.,.F.,.F.,.F.)
B_SPLINE_SURFACE_WITH_KNOTS((4,4),(2,2),(0.,1.),(0.,1.),
 .PIECEWISE_BEZIER_KNOTS.)
GEOMETRIC_REPRESENTATION_ITEM()
RATIONAL_B_SPLINE_SURFACE(((1.,1.),(0.708055585234754,0.708055585234754),
(0.708055585234754,0.708055585234754),(1.,1.)))
REPRESENTATION_ITEM('')
SURFACE()
);
#46=(
BOUNDED_SURFACE()
B_SPLINE_SURFACE(3,1,((#1569,#1570),(#1571,#1572),(#1573,#1574),(#1575,
#1576)),.CYLINDRICAL_SURF.,.F.,.F.,.F.)
B_SPLINE_SURFACE_WITH_KNOTS((4,4),(2,2),(0.,1.),(0.,1.),
 .PIECEWISE_BEZIER_KNOTS.)
GEOMETRIC_REPRESENTATION_ITEM()
RATIONAL_B_SPLINE_SURFACE(((1.,1.),(0.708055585234754,0.708055585234754),
(0.708055585234754,0.708055585234754),(1.,1.)))
REPRESENTATION_ITEM('')
SURFACE()
);
#47=(
BOUNDED_SURFACE()
B_SPLINE_SURFACE(3,1,((#1582,#1583),(#1584,#1585),(#1586,#1587),(#1588,
#1589)),.CYLINDRICAL_SURF.,.F.,.F.,.F.)
B_SPLINE_SURFACE_WITH_KNOTS((4,4),(2,2),(0.,1.),(0.,1.),
 .PIECEWISE_BEZIER_KNOTS.)
GEOMETRIC_REPRESENTATION_ITEM()
RATIONAL_B_SPLINE_SURFACE(((1.,1.),(0.708055585234754,0.708055585234754),
(0.708055585234754,0.708055585234754),(1.,1.)))
REPRESENTATION_ITEM('')
SURFACE()
);
#48=(
BOUNDED_SURFACE()
B_SPLINE_SURFACE(3,1,((#1591,#1592),(#1593,#1594),(#1595,#1596),(#1597,
#1598)),.CYLINDRICAL_SURF.,.F.,.F.,.F.)
B_SPLINE_SURFACE_WITH_KNOTS((4,4),(2,2),(0.,1.),(0.,1.),
 .PIECEWISE_BEZIER_KNOTS.)
GEOMETRIC_REPRESENTATION_ITEM()
RATIONAL_B_SPLINE_SURFACE(((1.,1.),(0.708055585234754,0.708055585234754),
(0.708055585234754,0.708055585234754),(1.,1.)))
REPRESENTATION_ITEM('')
SURFACE()
);
#49=(
BOUNDED_SURFACE()
B_SPLINE_SURFACE(3,1,((#1605,#1606),(#1607,#1608),(#1609,#1610),(#1611,
#1612)),.CYLINDRICAL_SURF.,.F.,.F.,.F.)
B_SPLINE_SURFACE_WITH_KNOTS((4,4),(2,2),(0.,1.),(0.,1.),
 .PIECEWISE_BEZIER_KNOTS.)
GEOMETRIC_REPRESENTATION_ITEM()
RATIONAL_B_SPLINE_SURFACE(((1.,1.),(0.708055585234754,0.708055585234754),
(0.708055585234754,0.708055585234754),(1.,1.)))
REPRESENTATION_ITEM('')
SURFACE()
);
#50=(
BOUNDED_SURFACE()
B_SPLINE_SURFACE(3,1,((#1629,#1630),(#1631,#1632),(#1633,#1634),(#1635,
#1636)),.CYLINDRICAL_SURF.,.F.,.F.,.F.)
B_SPLINE_SURFACE_WITH_KNOTS((4,4),(2,2),(0.,1.),(0.,1.),
 .PIECEWISE_BEZIER_KNOTS.)
GEOMETRIC_REPRESENTATION_ITEM()
RATIONAL_B_SPLINE_SURFACE(((1.,1.),(0.708055585234754,0.708055585234754),
(0.708055585234754,0.708055585234754),(1.,1.)))
REPRESENTATION_ITEM('')
SURFACE()
);
#51=(
BOUNDED_SURFACE()
B_SPLINE_SURFACE(3,1,((#1643,#1644),(#1645,#1646),(#1647,#1648),(#1649,
#1650)),.CYLINDRICAL_SURF.,.F.,.F.,.F.)
B_SPLINE_SURFACE_WITH_KNOTS((4,4),(2,2),(0.,1.),(0.,1.),
 .PIECEWISE_BEZIER_KNOTS.)
GEOMETRIC_REPRESENTATION_ITEM()
RATIONAL_B_SPLINE_SURFACE(((1.,1.),(0.708055585234753,0.708055585234753),
(0.708055585234753,0.708055585234753),(1.,1.)))
REPRESENTATION_ITEM('')
SURFACE()
);
#52=(
BOUNDED_SURFACE()
B_SPLINE_SURFACE(3,1,((#1686,#1687),(#1688,#1689),(#1690,#1691),(#1692,
#1693),(#1694,#1695),(#1696,#1697),(#1698,#1699)),.CYLINDRICAL_SURF.,.F.,
 .F.,.F.)
B_SPLINE_SURFACE_WITH_KNOTS((4,3,4),(2,2),(0.,0.5,1.),(0.0454545454545454,
0.954545454545455),.PIECEWISE_BEZIER_KNOTS.)
GEOMETRIC_REPRESENTATION_ITEM()
RATIONAL_B_SPLINE_SURFACE(((1.,1.),(0.588455621576726,0.588455621576726),
(0.588455621576726,0.588455621576726),(1.,1.),(0.588455621576726,0.588455621576726),
(0.588455621576726,0.588455621576726),(1.,1.)))
REPRESENTATION_ITEM('')
SURFACE()
);
#53=(
BOUNDED_SURFACE()
B_SPLINE_SURFACE(3,1,((#1708,#1709),(#1710,#1711),(#1712,#1713),(#1714,
#1715),(#1716,#1717),(#1718,#1719),(#1720,#1721)),.CYLINDRICAL_SURF.,.F.,
 .F.,.F.)
B_SPLINE_SURFACE_WITH_KNOTS((4,3,4),(2,2),(0.,0.5,1.),(0.0454545454545454,
0.954545454545455),.PIECEWISE_BEZIER_KNOTS.)
GEOMETRIC_REPRESENTATION_ITEM()
RATIONAL_B_SPLINE_SURFACE(((1.,1.),(0.588455621576726,0.588455621576726),
(0.588455621576726,0.588455621576726),(1.,1.),(0.588455621576726,0.588455621576726),
(0.588455621576726,0.588455621576726),(1.,1.)))
REPRESENTATION_ITEM('')
SURFACE()
);
#54=(
BOUNDED_SURFACE()
B_SPLINE_SURFACE(3,1,((#1730,#1731),(#1732,#1733),(#1734,#1735),(#1736,
#1737),(#1738,#1739),(#1740,#1741),(#1742,#1743)),.CYLINDRICAL_SURF.,.F.,
 .F.,.F.)
B_SPLINE_SURFACE_WITH_KNOTS((4,3,4),(2,2),(0.,0.5,1.),(0.0454545454545454,
0.954545454545455),.PIECEWISE_BEZIER_KNOTS.)
GEOMETRIC_REPRESENTATION_ITEM()
RATIONAL_B_SPLINE_SURFACE(((1.,1.),(0.588455621576726,0.588455621576726),
(0.588455621576726,0.588455621576726),(1.,1.),(0.588455621576726,0.588455621576726),
(0.588455621576726,0.588455621576726),(1.,1.)))
REPRESENTATION_ITEM('')
SURFACE()
);
#55=(
BOUNDED_SURFACE()
B_SPLINE_SURFACE(3,1,((#1756,#1757),(#1758,#1759),(#1760,#1761),(#1762,
#1763),(#1764,#1765),(#1766,#1767),(#1768,#1769)),.CYLINDRICAL_SURF.,.F.,
 .F.,.F.)
B_SPLINE_SURFACE_WITH_KNOTS((4,3,4),(2,2),(0.,0.5,1.),(0.0454545454545454,
0.954545454545455),.PIECEWISE_BEZIER_KNOTS.)
GEOMETRIC_REPRESENTATION_ITEM()
RATIONAL_B_SPLINE_SURFACE(((1.,1.),(0.588455621576726,0.588455621576726),
(0.588455621576726,0.588455621576726),(1.,1.),(0.588455621576726,0.588455621576726),
(0.588455621576726,0.588455621576726),(1.,1.)))
REPRESENTATION_ITEM('')
SURFACE()
);
#56=(
BOUNDED_SURFACE()
B_SPLINE_SURFACE(3,1,((#1886,#1887),(#1888,#1889),(#1890,#1891),(#1892,
#1893)),.CYLINDRICAL_SURF.,.F.,.F.,.F.)
B_SPLINE_SURFACE_WITH_KNOTS((4,4),(2,2),(0.,1.),(0.,1.),
 .PIECEWISE_BEZIER_KNOTS.)
GEOMETRIC_REPRESENTATION_ITEM()
RATIONAL_B_SPLINE_SURFACE(((1.,1.),(0.708055585234754,0.708055585234754),
(0.708055585234754,0.708055585234754),(1.,1.)))
REPRESENTATION_ITEM('')
SURFACE()
);
#57=(
BOUNDED_SURFACE()
B_SPLINE_SURFACE(3,1,((#1910,#1911),(#1912,#1913),(#1914,#1915),(#1916,
#1917)),.CYLINDRICAL_SURF.,.F.,.F.,.F.)
B_SPLINE_SURFACE_WITH_KNOTS((4,4),(2,2),(0.,1.),(0.,1.),
 .PIECEWISE_BEZIER_KNOTS.)
GEOMETRIC_REPRESENTATION_ITEM()
RATIONAL_B_SPLINE_SURFACE(((1.,1.),(0.708055585234754,0.708055585234754),
(0.708055585234754,0.708055585234754),(1.,1.)))
REPRESENTATION_ITEM('')
SURFACE()
);
#58=(
BOUNDED_SURFACE()
B_SPLINE_SURFACE(3,1,((#1919,#1920),(#1921,#1922),(#1923,#1924),(#1925,
#1926)),.CYLINDRICAL_SURF.,.F.,.F.,.F.)
B_SPLINE_SURFACE_WITH_KNOTS((4,4),(2,2),(0.,1.),(0.,1.),
 .PIECEWISE_BEZIER_KNOTS.)
GEOMETRIC_REPRESENTATION_ITEM()
RATIONAL_B_SPLINE_SURFACE(((1.,1.),(0.708055585234754,0.708055585234754),
(0.708055585234754,0.708055585234754),(1.,1.)))
REPRESENTATION_ITEM('')
SURFACE()
);
#59=(
BOUNDED_SURFACE()
B_SPLINE_SURFACE(3,1,((#1928,#1929),(#1930,#1931),(#1932,#1933),(#1934,
#1935)),.CYLINDRICAL_SURF.,.F.,.F.,.F.)
B_SPLINE_SURFACE_WITH_KNOTS((4,4),(2,2),(0.,1.),(0.,1.),
 .PIECEWISE_BEZIER_KNOTS.)
GEOMETRIC_REPRESENTATION_ITEM()
RATIONAL_B_SPLINE_SURFACE(((1.,1.),(0.708055585234754,0.708055585234754),
(0.708055585234754,0.708055585234754),(1.,1.)))
REPRESENTATION_ITEM('')
SURFACE()
);
#60=(
BOUNDED_SURFACE()
B_SPLINE_SURFACE(1,3,((#1937,#1938,#1939,#1940),(#1941,#1942,#1943,#1944)),
 .CONICAL_SURF.,.F.,.F.,.F.)
B_SPLINE_SURFACE_WITH_KNOTS((2,2),(4,4),(0.00990099009901011,0.207920792079208),
(0.108843357715511,0.891156642284488),.PIECEWISE_BEZIER_KNOTS.)
GEOMETRIC_REPRESENTATION_ITEM()
RATIONAL_B_SPLINE_SURFACE(((0.915047257188202,0.73637316617202,0.736373166172019,
0.915047257188202),(0.915047257188202,0.73637316617202,0.736373166172019,
0.915047257188202)))
REPRESENTATION_ITEM('')
SURFACE()
);
#61=(
BOUNDED_SURFACE()
B_SPLINE_SURFACE(1,3,((#1946,#1947,#1948,#1949),(#1950,#1951,#1952,#1953)),
 .CONICAL_SURF.,.F.,.F.,.F.)
B_SPLINE_SURFACE_WITH_KNOTS((2,2),(4,4),(0.0099009900990095,0.207920792079207),
(0.108843357715511,0.891156642284489),.PIECEWISE_BEZIER_KNOTS.)
GEOMETRIC_REPRESENTATION_ITEM()
RATIONAL_B_SPLINE_SURFACE(((0.915047257188202,0.73637316617202,0.73637316617202,
0.915047257188202),(0.915047257188202,0.73637316617202,0.73637316617202,
0.915047257188202)))
REPRESENTATION_ITEM('')
SURFACE()
);
#62=(
BOUNDED_SURFACE()
B_SPLINE_SURFACE(1,3,((#1965,#1966,#1967,#1968),(#1969,#1970,#1971,#1972)),
 .CONICAL_SURF.,.F.,.F.,.F.)
B_SPLINE_SURFACE_WITH_KNOTS((2,2),(4,4),(0.00990099009901024,0.207920792079208),
(0.108843357715511,0.891156642284489),.PIECEWISE_BEZIER_KNOTS.)
GEOMETRIC_REPRESENTATION_ITEM()
RATIONAL_B_SPLINE_SURFACE(((0.915047257188202,0.73637316617202,0.73637316617202,
0.915047257188202),(0.915047257188202,0.73637316617202,0.73637316617202,
0.915047257188202)))
REPRESENTATION_ITEM('')
SURFACE()
);
#63=(
BOUNDED_SURFACE()
B_SPLINE_SURFACE(1,3,((#1973,#1974,#1975,#1976),(#1977,#1978,#1979,#1980)),
 .CONICAL_SURF.,.F.,.F.,.F.)
B_SPLINE_SURFACE_WITH_KNOTS((2,2),(4,4),(0.00990099009901024,0.207920792079208),
(0.108843357715511,0.891156642284489),.PIECEWISE_BEZIER_KNOTS.)
GEOMETRIC_REPRESENTATION_ITEM()
RATIONAL_B_SPLINE_SURFACE(((0.915047257188202,0.73637316617202,0.73637316617202,
0.915047257188202),(0.915047257188202,0.73637316617202,0.73637316617202,
0.915047257188202)))
REPRESENTATION_ITEM('')
SURFACE()
);
#64=CIRCLE('',#1210,0.00035);
#65=CIRCLE('',#1211,0.00035);
#66=CIRCLE('',#1212,0.00035);
#67=CIRCLE('',#1213,0.00035);
#68=CIRCLE('',#1214,5.E-5);
#69=CIRCLE('',#1215,5.E-5);
#70=CIRCLE('',#1216,5.E-5);
#71=CIRCLE('',#1217,5.E-5);
#72=CIRCLE('',#1218,5.E-5);
#73=CIRCLE('',#1219,5.E-5);
#74=CIRCLE('',#1220,5.E-5);
#75=CIRCLE('',#1221,5.E-5);
#76=CIRCLE('',#1222,0.00035);
#77=CIRCLE('',#1223,0.00035);
#78=CIRCLE('',#1224,0.00035);
#79=CIRCLE('',#1225,0.00035);
#80=CIRCLE('',#1227,0.0008);
#81=CIRCLE('',#1228,0.0008);
#82=CIRCLE('',#1229,0.0008);
#83=CIRCLE('',#1230,0.0008);
#84=CIRCLE('',#1231,0.0005);
#85=CIRCLE('',#1232,0.0005);
#86=CIRCLE('',#1233,0.0005);
#87=CIRCLE('',#1234,0.0005);
#88=CIRCLE('',#1235,0.0005);
#89=CIRCLE('',#1236,0.0005);
#90=CIRCLE('',#1237,0.0005);
#91=CIRCLE('',#1238,0.0005);
#92=CIRCLE('',#1239,0.0005);
#93=CIRCLE('',#1240,0.0005);
#94=CIRCLE('',#1241,0.0005);
#95=CIRCLE('',#1242,0.0005);
#96=CIRCLE('',#1243,0.001);
#97=CIRCLE('',#1244,0.001);
#98=CIRCLE('',#1245,0.001);
#99=CIRCLE('',#1246,0.001);
#100=CIRCLE('',#1247,0.001);
#101=CIRCLE('',#1248,0.001);
#102=CIRCLE('',#1249,0.001);
#103=CIRCLE('',#1250,0.001);
#104=ORIENTED_EDGE('',*,*,#384,.F.);
#105=ORIENTED_EDGE('',*,*,#385,.T.);
#106=ORIENTED_EDGE('',*,*,#386,.T.);
#107=ORIENTED_EDGE('',*,*,#387,.F.);
#108=ORIENTED_EDGE('',*,*,#388,.T.);
#109=ORIENTED_EDGE('',*,*,#389,.T.);
#110=ORIENTED_EDGE('',*,*,#390,.T.);
#111=ORIENTED_EDGE('',*,*,#391,.T.);
#112=ORIENTED_EDGE('',*,*,#392,.T.);
#113=ORIENTED_EDGE('',*,*,#393,.T.);
#114=ORIENTED_EDGE('',*,*,#394,.T.);
#115=ORIENTED_EDGE('',*,*,#395,.T.);
#116=ORIENTED_EDGE('',*,*,#396,.T.);
#117=ORIENTED_EDGE('',*,*,#397,.F.);
#118=ORIENTED_EDGE('',*,*,#398,.F.);
#119=ORIENTED_EDGE('',*,*,#399,.F.);
#120=ORIENTED_EDGE('',*,*,#400,.F.);
#121=ORIENTED_EDGE('',*,*,#401,.F.);
#122=ORIENTED_EDGE('',*,*,#402,.F.);
#123=ORIENTED_EDGE('',*,*,#403,.F.);
#124=ORIENTED_EDGE('',*,*,#404,.F.);
#125=ORIENTED_EDGE('',*,*,#405,.F.);
#126=ORIENTED_EDGE('',*,*,#406,.F.);
#127=ORIENTED_EDGE('',*,*,#387,.T.);
#128=ORIENTED_EDGE('',*,*,#407,.T.);
#129=ORIENTED_EDGE('',*,*,#408,.F.);
#130=ORIENTED_EDGE('',*,*,#409,.T.);
#131=ORIENTED_EDGE('',*,*,#410,.F.);
#132=ORIENTED_EDGE('',*,*,#411,.T.);
#133=ORIENTED_EDGE('',*,*,#412,.F.);
#134=ORIENTED_EDGE('',*,*,#413,.T.);
#135=ORIENTED_EDGE('',*,*,#414,.F.);
#136=ORIENTED_EDGE('',*,*,#415,.T.);
#137=ORIENTED_EDGE('',*,*,#416,.T.);
#138=ORIENTED_EDGE('',*,*,#417,.F.);
#139=ORIENTED_EDGE('',*,*,#418,.T.);
#140=ORIENTED_EDGE('',*,*,#419,.F.);
#141=ORIENTED_EDGE('',*,*,#420,.T.);
#142=ORIENTED_EDGE('',*,*,#421,.F.);
#143=ORIENTED_EDGE('',*,*,#422,.T.);
#144=ORIENTED_EDGE('',*,*,#423,.F.);
#145=ORIENTED_EDGE('',*,*,#424,.T.);
#146=ORIENTED_EDGE('',*,*,#425,.F.);
#147=ORIENTED_EDGE('',*,*,#385,.F.);
#148=ORIENTED_EDGE('',*,*,#390,.F.);
#149=ORIENTED_EDGE('',*,*,#426,.F.);
#150=ORIENTED_EDGE('',*,*,#423,.T.);
#151=ORIENTED_EDGE('',*,*,#427,.T.);
#152=ORIENTED_EDGE('',*,*,#424,.F.);
#153=ORIENTED_EDGE('',*,*,#426,.T.);
#154=ORIENTED_EDGE('',*,*,#389,.F.);
#155=ORIENTED_EDGE('',*,*,#428,.F.);
#156=ORIENTED_EDGE('',*,*,#388,.F.);
#157=ORIENTED_EDGE('',*,*,#386,.F.);
#158=ORIENTED_EDGE('',*,*,#425,.T.);
#159=ORIENTED_EDGE('',*,*,#428,.T.);
#160=ORIENTED_EDGE('',*,*,#406,.T.);
#161=ORIENTED_EDGE('',*,*,#429,.F.);
#162=ORIENTED_EDGE('',*,*,#407,.F.);
#163=ORIENTED_EDGE('',*,*,#384,.T.);
#164=ORIENTED_EDGE('',*,*,#408,.T.);
#165=ORIENTED_EDGE('',*,*,#429,.T.);
#166=ORIENTED_EDGE('',*,*,#405,.T.);
#167=ORIENTED_EDGE('',*,*,#430,.F.);
#168=ORIENTED_EDGE('',*,*,#402,.T.);
#169=ORIENTED_EDGE('',*,*,#431,.F.);
#170=ORIENTED_EDGE('',*,*,#411,.F.);
#171=ORIENTED_EDGE('',*,*,#432,.T.);
#172=ORIENTED_EDGE('',*,*,#410,.T.);
#173=ORIENTED_EDGE('',*,*,#433,.T.);
#174=ORIENTED_EDGE('',*,*,#403,.T.);
#175=ORIENTED_EDGE('',*,*,#432,.F.);
#176=ORIENTED_EDGE('',*,*,#404,.T.);
#177=ORIENTED_EDGE('',*,*,#433,.F.);
#178=ORIENTED_EDGE('',*,*,#409,.F.);
#179=ORIENTED_EDGE('',*,*,#430,.T.);
#180=ORIENTED_EDGE('',*,*,#422,.F.);
#181=ORIENTED_EDGE('',*,*,#434,.T.);
#182=ORIENTED_EDGE('',*,*,#391,.F.);
#183=ORIENTED_EDGE('',*,*,#427,.F.);
#184=ORIENTED_EDGE('',*,*,#412,.T.);
#185=ORIENTED_EDGE('',*,*,#431,.T.);
#186=ORIENTED_EDGE('',*,*,#401,.T.);
#187=ORIENTED_EDGE('',*,*,#435,.F.);
#188=ORIENTED_EDGE('',*,*,#400,.T.);
#189=ORIENTED_EDGE('',*,*,#436,.F.);
#190=ORIENTED_EDGE('',*,*,#413,.F.);
#191=ORIENTED_EDGE('',*,*,#435,.T.);
#192=ORIENTED_EDGE('',*,*,#414,.T.);
#193=ORIENTED_EDGE('',*,*,#436,.T.);
#194=ORIENTED_EDGE('',*,*,#399,.T.);
#195=ORIENTED_EDGE('',*,*,#437,.F.);
#196=ORIENTED_EDGE('',*,*,#398,.T.);
#197=ORIENTED_EDGE('',*,*,#438,.F.);
#198=ORIENTED_EDGE('',*,*,#415,.F.);
#199=ORIENTED_EDGE('',*,*,#437,.T.);
#200=ORIENTED_EDGE('',*,*,#416,.F.);
#201=ORIENTED_EDGE('',*,*,#438,.T.);
#202=ORIENTED_EDGE('',*,*,#397,.T.);
#203=ORIENTED_EDGE('',*,*,#439,.F.);
#204=ORIENTED_EDGE('',*,*,#396,.F.);
#205=ORIENTED_EDGE('',*,*,#440,.F.);
#206=ORIENTED_EDGE('',*,*,#417,.T.);
#207=ORIENTED_EDGE('',*,*,#439,.T.);
#208=ORIENTED_EDGE('',*,*,#418,.F.);
#209=ORIENTED_EDGE('',*,*,#440,.T.);
#210=ORIENTED_EDGE('',*,*,#395,.F.);
#211=ORIENTED_EDGE('',*,*,#441,.F.);
#212=ORIENTED_EDGE('',*,*,#394,.F.);
#213=ORIENTED_EDGE('',*,*,#442,.F.);
#214=ORIENTED_EDGE('',*,*,#419,.T.);
#215=ORIENTED_EDGE('',*,*,#441,.T.);
#216=ORIENTED_EDGE('',*,*,#420,.F.);
#217=ORIENTED_EDGE('',*,*,#442,.T.);
#218=ORIENTED_EDGE('',*,*,#393,.F.);
#219=ORIENTED_EDGE('',*,*,#443,.F.);
#220=ORIENTED_EDGE('',*,*,#392,.F.);
#221=ORIENTED_EDGE('',*,*,#434,.F.);
#222=ORIENTED_EDGE('',*,*,#421,.T.);
#223=ORIENTED_EDGE('',*,*,#443,.T.);
#224=ORIENTED_EDGE('',*,*,#444,.T.);
#225=ORIENTED_EDGE('',*,*,#445,.T.);
#226=ORIENTED_EDGE('',*,*,#446,.T.);
#227=ORIENTED_EDGE('',*,*,#447,.T.);
#228=ORIENTED_EDGE('',*,*,#448,.T.);
#229=ORIENTED_EDGE('',*,*,#449,.T.);
#230=ORIENTED_EDGE('',*,*,#450,.T.);
#231=ORIENTED_EDGE('',*,*,#451,.T.);
#232=ORIENTED_EDGE('',*,*,#452,.F.);
#233=ORIENTED_EDGE('',*,*,#453,.F.);
#234=ORIENTED_EDGE('',*,*,#454,.F.);
#235=ORIENTED_EDGE('',*,*,#449,.F.);
#236=ORIENTED_EDGE('',*,*,#455,.T.);
#237=ORIENTED_EDGE('',*,*,#456,.F.);
#238=ORIENTED_EDGE('',*,*,#457,.T.);
#239=ORIENTED_EDGE('',*,*,#458,.T.);
#240=ORIENTED_EDGE('',*,*,#459,.T.);
#241=ORIENTED_EDGE('',*,*,#460,.T.);
#242=ORIENTED_EDGE('',*,*,#461,.T.);
#243=ORIENTED_EDGE('',*,*,#462,.F.);
#244=ORIENTED_EDGE('',*,*,#463,.F.);
#245=ORIENTED_EDGE('',*,*,#464,.F.);
#246=ORIENTED_EDGE('',*,*,#465,.T.);
#247=ORIENTED_EDGE('',*,*,#466,.T.);
#248=ORIENTED_EDGE('',*,*,#467,.F.);
#249=ORIENTED_EDGE('',*,*,#468,.F.);
#250=ORIENTED_EDGE('',*,*,#469,.T.);
#251=ORIENTED_EDGE('',*,*,#470,.T.);
#252=ORIENTED_EDGE('',*,*,#471,.F.);
#253=ORIENTED_EDGE('',*,*,#472,.F.);
#254=ORIENTED_EDGE('',*,*,#473,.F.);
#255=ORIENTED_EDGE('',*,*,#474,.F.);
#256=ORIENTED_EDGE('',*,*,#475,.F.);
#257=ORIENTED_EDGE('',*,*,#458,.F.);
#258=ORIENTED_EDGE('',*,*,#476,.F.);
#259=ORIENTED_EDGE('',*,*,#477,.F.);
#260=ORIENTED_EDGE('',*,*,#478,.F.);
#261=ORIENTED_EDGE('',*,*,#460,.F.);
#262=ORIENTED_EDGE('',*,*,#479,.T.);
#263=ORIENTED_EDGE('',*,*,#466,.F.);
#264=ORIENTED_EDGE('',*,*,#465,.F.);
#265=ORIENTED_EDGE('',*,*,#480,.T.);
#266=ORIENTED_EDGE('',*,*,#481,.T.);
#267=ORIENTED_EDGE('',*,*,#482,.T.);
#268=ORIENTED_EDGE('',*,*,#470,.F.);
#269=ORIENTED_EDGE('',*,*,#469,.F.);
#270=ORIENTED_EDGE('',*,*,#457,.F.);
#271=ORIENTED_EDGE('',*,*,#483,.F.);
#272=ORIENTED_EDGE('',*,*,#484,.F.);
#273=ORIENTED_EDGE('',*,*,#476,.T.);
#274=ORIENTED_EDGE('',*,*,#461,.F.);
#275=ORIENTED_EDGE('',*,*,#478,.T.);
#276=ORIENTED_EDGE('',*,*,#485,.F.);
#277=ORIENTED_EDGE('',*,*,#486,.F.);
#278=ORIENTED_EDGE('',*,*,#455,.F.);
#279=ORIENTED_EDGE('',*,*,#475,.T.);
#280=ORIENTED_EDGE('',*,*,#459,.F.);
#281=ORIENTED_EDGE('',*,*,#487,.F.);
#282=ORIENTED_EDGE('',*,*,#488,.T.);
#283=ORIENTED_EDGE('',*,*,#467,.T.);
#284=ORIENTED_EDGE('',*,*,#479,.F.);
#285=ORIENTED_EDGE('',*,*,#474,.T.);
#286=ORIENTED_EDGE('',*,*,#456,.T.);
#287=ORIENTED_EDGE('',*,*,#487,.T.);
#288=ORIENTED_EDGE('',*,*,#462,.T.);
#289=ORIENTED_EDGE('',*,*,#486,.T.);
#290=ORIENTED_EDGE('',*,*,#489,.F.);
#291=ORIENTED_EDGE('',*,*,#490,.T.);
#292=ORIENTED_EDGE('',*,*,#491,.F.);
#293=ORIENTED_EDGE('',*,*,#492,.T.);
#294=ORIENTED_EDGE('',*,*,#493,.F.);
#295=ORIENTED_EDGE('',*,*,#494,.F.);
#296=ORIENTED_EDGE('',*,*,#463,.T.);
#297=ORIENTED_EDGE('',*,*,#468,.T.);
#298=ORIENTED_EDGE('',*,*,#488,.F.);
#299=ORIENTED_EDGE('',*,*,#473,.T.);
#300=ORIENTED_EDGE('',*,*,#472,.T.);
#301=ORIENTED_EDGE('',*,*,#495,.F.);
#302=ORIENTED_EDGE('',*,*,#496,.F.);
#303=ORIENTED_EDGE('',*,*,#497,.T.);
#304=ORIENTED_EDGE('',*,*,#498,.F.);
#305=ORIENTED_EDGE('',*,*,#499,.T.);
#306=ORIENTED_EDGE('',*,*,#500,.F.);
#307=ORIENTED_EDGE('',*,*,#483,.T.);
#308=ORIENTED_EDGE('',*,*,#501,.T.);
#309=ORIENTED_EDGE('',*,*,#502,.F.);
#310=ORIENTED_EDGE('',*,*,#503,.T.);
#311=ORIENTED_EDGE('',*,*,#445,.F.);
#312=ORIENTED_EDGE('',*,*,#495,.T.);
#313=ORIENTED_EDGE('',*,*,#471,.T.);
#314=ORIENTED_EDGE('',*,*,#482,.F.);
#315=ORIENTED_EDGE('',*,*,#504,.F.);
#316=ORIENTED_EDGE('',*,*,#505,.F.);
#317=ORIENTED_EDGE('',*,*,#493,.T.);
#318=ORIENTED_EDGE('',*,*,#506,.T.);
#319=ORIENTED_EDGE('',*,*,#507,.T.);
#320=ORIENTED_EDGE('',*,*,#508,.T.);
#321=ORIENTED_EDGE('',*,*,#496,.T.);
#322=ORIENTED_EDGE('',*,*,#504,.T.);
#323=ORIENTED_EDGE('',*,*,#481,.F.);
#324=ORIENTED_EDGE('',*,*,#480,.F.);
#325=ORIENTED_EDGE('',*,*,#464,.T.);
#326=ORIENTED_EDGE('',*,*,#494,.T.);
#327=ORIENTED_EDGE('',*,*,#505,.T.);
#328=ORIENTED_EDGE('',*,*,#509,.T.);
#329=ORIENTED_EDGE('',*,*,#453,.T.);
#330=ORIENTED_EDGE('',*,*,#510,.T.);
#331=ORIENTED_EDGE('',*,*,#491,.T.);
#332=ORIENTED_EDGE('',*,*,#511,.F.);
#333=ORIENTED_EDGE('',*,*,#512,.T.);
#334=ORIENTED_EDGE('',*,*,#509,.F.);
#335=ORIENTED_EDGE('',*,*,#490,.F.);
#336=ORIENTED_EDGE('',*,*,#513,.T.);
#337=ORIENTED_EDGE('',*,*,#502,.T.);
#338=ORIENTED_EDGE('',*,*,#514,.T.);
#339=ORIENTED_EDGE('',*,*,#498,.T.);
#340=ORIENTED_EDGE('',*,*,#489,.T.);
#341=ORIENTED_EDGE('',*,*,#485,.T.);
#342=ORIENTED_EDGE('',*,*,#477,.T.);
#343=ORIENTED_EDGE('',*,*,#484,.T.);
#344=ORIENTED_EDGE('',*,*,#500,.T.);
#345=ORIENTED_EDGE('',*,*,#515,.T.);
#346=ORIENTED_EDGE('',*,*,#516,.T.);
#347=ORIENTED_EDGE('',*,*,#511,.T.);
#348=ORIENTED_EDGE('',*,*,#514,.F.);
#349=ORIENTED_EDGE('',*,*,#517,.T.);
#350=ORIENTED_EDGE('',*,*,#515,.F.);
#351=ORIENTED_EDGE('',*,*,#499,.F.);
#352=ORIENTED_EDGE('',*,*,#508,.F.);
#353=ORIENTED_EDGE('',*,*,#518,.T.);
#354=ORIENTED_EDGE('',*,*,#513,.F.);
#355=ORIENTED_EDGE('',*,*,#497,.F.);
#356=ORIENTED_EDGE('',*,*,#510,.F.);
#357=ORIENTED_EDGE('',*,*,#519,.T.);
#358=ORIENTED_EDGE('',*,*,#506,.F.);
#359=ORIENTED_EDGE('',*,*,#492,.F.);
#360=ORIENTED_EDGE('',*,*,#520,.T.);
#361=ORIENTED_EDGE('',*,*,#446,.F.);
#362=ORIENTED_EDGE('',*,*,#503,.F.);
#363=ORIENTED_EDGE('',*,*,#518,.F.);
#364=ORIENTED_EDGE('',*,*,#521,.T.);
#365=ORIENTED_EDGE('',*,*,#517,.F.);
#366=ORIENTED_EDGE('',*,*,#501,.F.);
#367=ORIENTED_EDGE('',*,*,#444,.F.);
#368=ORIENTED_EDGE('',*,*,#522,.T.);
#369=ORIENTED_EDGE('',*,*,#447,.F.);
#370=ORIENTED_EDGE('',*,*,#520,.F.);
#371=ORIENTED_EDGE('',*,*,#507,.F.);
#372=ORIENTED_EDGE('',*,*,#523,.T.);
#373=ORIENTED_EDGE('',*,*,#516,.F.);
#374=ORIENTED_EDGE('',*,*,#521,.F.);
#375=ORIENTED_EDGE('',*,*,#451,.F.);
#376=ORIENTED_EDGE('',*,*,#452,.T.);
#377=ORIENTED_EDGE('',*,*,#448,.F.);
#378=ORIENTED_EDGE('',*,*,#522,.F.);
#379=ORIENTED_EDGE('',*,*,#519,.F.);
#380=ORIENTED_EDGE('',*,*,#454,.T.);
#381=ORIENTED_EDGE('',*,*,#512,.F.);
#382=ORIENTED_EDGE('',*,*,#523,.F.);
#383=ORIENTED_EDGE('',*,*,#450,.F.);
#384=EDGE_CURVE('',#524,#525,#616,.F.);
#385=EDGE_CURVE('',#524,#526,#617,.T.);
#386=EDGE_CURVE('',#526,#527,#618,.T.);
#387=EDGE_CURVE('',#525,#527,#619,.T.);
#388=EDGE_CURVE('',#527,#528,#620,.T.);
#389=EDGE_CURVE('',#528,#529,#64,.T.);
#390=EDGE_CURVE('',#529,#530,#621,.F.);
#391=EDGE_CURVE('',#530,#531,#65,.T.);
#392=EDGE_CURVE('',#531,#532,#622,.F.);
#393=EDGE_CURVE('',#532,#533,#66,.F.);
#394=EDGE_CURVE('',#533,#534,#623,.T.);
#395=EDGE_CURVE('',#534,#535,#67,.F.);
#396=EDGE_CURVE('',#535,#536,#624,.T.);
#397=EDGE_CURVE('',#537,#536,#625,.T.);
#398=EDGE_CURVE('',#538,#537,#626,.F.);
#399=EDGE_CURVE('',#539,#538,#68,.F.);
#400=EDGE_CURVE('',#540,#539,#627,.F.);
#401=EDGE_CURVE('',#541,#540,#69,.F.);
#402=EDGE_CURVE('',#542,#541,#628,.F.);
#403=EDGE_CURVE('',#543,#542,#70,.T.);
#404=EDGE_CURVE('',#544,#543,#629,.F.);
#405=EDGE_CURVE('',#545,#544,#71,.T.);
#406=EDGE_CURVE('',#525,#545,#630,.F.);
#407=EDGE_CURVE('',#524,#546,#631,.T.);
#408=EDGE_CURVE('',#547,#546,#72,.F.);
#409=EDGE_CURVE('',#547,#548,#632,.F.);
#410=EDGE_CURVE('',#549,#548,#73,.F.);
#411=EDGE_CURVE('',#549,#550,#633,.F.);
#412=EDGE_CURVE('',#551,#550,#74,.T.);
#413=EDGE_CURVE('',#551,#552,#634,.T.);
#414=EDGE_CURVE('',#553,#552,#75,.T.);
#415=EDGE_CURVE('',#553,#554,#635,.T.);
#416=EDGE_CURVE('',#554,#555,#636,.T.);
#417=EDGE_CURVE('',#556,#555,#637,.F.);
#418=EDGE_CURVE('',#556,#557,#76,.T.);
#419=EDGE_CURVE('',#558,#557,#638,.F.);
#420=EDGE_CURVE('',#558,#559,#77,.T.);
#421=EDGE_CURVE('',#560,#559,#639,.F.);
#422=EDGE_CURVE('',#560,#561,#78,.F.);
#423=EDGE_CURVE('',#562,#561,#640,.F.);
#424=EDGE_CURVE('',#562,#563,#79,.F.);
#425=EDGE_CURVE('',#526,#563,#641,.F.);
#426=EDGE_CURVE('',#562,#529,#642,.T.);
#427=EDGE_CURVE('',#561,#530,#643,.F.);
#428=EDGE_CURVE('',#563,#528,#644,.F.);
#429=EDGE_CURVE('',#546,#545,#645,.T.);
#430=EDGE_CURVE('',#547,#544,#646,.F.);
#431=EDGE_CURVE('',#550,#541,#647,.F.);
#432=EDGE_CURVE('',#549,#542,#648,.F.);
#433=EDGE_CURVE('',#548,#543,#649,.T.);
#434=EDGE_CURVE('',#560,#531,#650,.T.);
#435=EDGE_CURVE('',#551,#540,#651,.F.);
#436=EDGE_CURVE('',#552,#539,#652,.F.);
#437=EDGE_CURVE('',#553,#538,#653,.F.);
#438=EDGE_CURVE('',#554,#537,#654,.T.);
#439=EDGE_CURVE('',#555,#536,#655,.F.);
#440=EDGE_CURVE('',#556,#535,#656,.F.);
#441=EDGE_CURVE('',#557,#534,#657,.F.);
#442=EDGE_CURVE('',#558,#533,#658,.F.);
#443=EDGE_CURVE('',#559,#532,#659,.F.);
#444=EDGE_CURVE('',#564,#565,#80,.F.);
#445=EDGE_CURVE('',#565,#566,#660,.F.);
#446=EDGE_CURVE('',#566,#567,#81,.F.);
#447=EDGE_CURVE('',#567,#568,#661,.F.);
#448=EDGE_CURVE('',#568,#569,#82,.F.);
#449=EDGE_CURVE('',#569,#570,#662,.T.);
#450=EDGE_CURVE('',#570,#571,#83,.F.);
#451=EDGE_CURVE('',#571,#564,#663,.T.);
#452=EDGE_CURVE('',#572,#569,#664,.F.);
#453=EDGE_CURVE('',#573,#572,#665,.T.);
#454=EDGE_CURVE('',#570,#573,#666,.T.);
#455=EDGE_CURVE('',#574,#575,#667,.F.);
#456=EDGE_CURVE('',#576,#575,#84,.T.);
#457=EDGE_CURVE('',#576,#577,#668,.T.);
#458=EDGE_CURVE('',#577,#574,#85,.T.);
#459=EDGE_CURVE('',#578,#579,#669,.T.);
#460=EDGE_CURVE('',#579,#580,#86,.T.);
#461=EDGE_CURVE('',#580,#581,#670,.F.);
#462=EDGE_CURVE('',#578,#581,#87,.T.);
#463=EDGE_CURVE('',#582,#583,#88,.T.);
#464=EDGE_CURVE('',#584,#582,#671,.F.);
#465=EDGE_CURVE('',#584,#585,#89,.T.);
#466=EDGE_CURVE('',#585,#586,#90,.T.);
#467=EDGE_CURVE('',#587,#586,#672,.T.);
#468=EDGE_CURVE('',#583,#587,#91,.T.);
#469=EDGE_CURVE('',#588,#589,#92,.T.);
#470=EDGE_CURVE('',#589,#590,#93,.T.);
#471=EDGE_CURVE('',#591,#590,#673,.F.);
#472=EDGE_CURVE('',#592,#591,#94,.T.);
#473=EDGE_CURVE('',#593,#592,#95,.T.);
#474=EDGE_CURVE('',#588,#593,#674,.F.);
#475=EDGE_CURVE('',#574,#579,#675,.T.);
#476=EDGE_CURVE('',#594,#577,#676,.T.);
#477=EDGE_CURVE('',#595,#594,#677,.T.);
#478=EDGE_CURVE('',#580,#595,#678,.T.);
#479=EDGE_CURVE('',#588,#586,#679,.F.);
#480=EDGE_CURVE('',#584,#596,#680,.T.);
#481=EDGE_CURVE('',#596,#597,#681,.T.);
#482=EDGE_CURVE('',#597,#590,#682,.F.);
#483=EDGE_CURVE('',#598,#576,#683,.F.);
#484=EDGE_CURVE('',#594,#598,#684,.F.);
#485=EDGE_CURVE('',#599,#595,#685,.T.);
#486=EDGE_CURVE('',#581,#599,#686,.T.);
#487=EDGE_CURVE('',#575,#578,#687,.F.);
#488=EDGE_CURVE('',#593,#587,#688,.T.);
#489=EDGE_CURVE('',#600,#599,#689,.T.);
#490=EDGE_CURVE('',#600,#601,#96,.F.);
#491=EDGE_CURVE('',#602,#601,#690,.F.);
#492=EDGE_CURVE('',#602,#603,#97,.F.);
#493=EDGE_CURVE('',#604,#603,#691,.F.);
#494=EDGE_CURVE('',#582,#604,#692,.F.);
#495=EDGE_CURVE('',#605,#591,#693,.T.);
#496=EDGE_CURVE('',#606,#605,#694,.F.);
#497=EDGE_CURVE('',#606,#607,#98,.F.);
#498=EDGE_CURVE('',#608,#607,#695,.F.);
#499=EDGE_CURVE('',#608,#609,#99,.F.);
#500=EDGE_CURVE('',#598,#609,#696,.T.);
#501=EDGE_CURVE('',#565,#610,#697,.F.);
#502=EDGE_CURVE('',#611,#610,#698,.T.);
#503=EDGE_CURVE('',#611,#566,#699,.T.);
#504=EDGE_CURVE('',#605,#597,#700,.F.);
#505=EDGE_CURVE('',#604,#596,#701,.T.);
#506=EDGE_CURVE('',#603,#612,#702,.F.);
#507=EDGE_CURVE('',#612,#613,#703,.T.);
#508=EDGE_CURVE('',#613,#606,#704,.T.);
#509=EDGE_CURVE('',#601,#573,#705,.T.);
#510=EDGE_CURVE('',#572,#602,#706,.F.);
#511=EDGE_CURVE('',#614,#600,#707,.F.);
#512=EDGE_CURVE('',#614,#573,#100,.F.);
#513=EDGE_CURVE('',#607,#611,#708,.T.);
#514=EDGE_CURVE('',#610,#608,#709,.F.);
#515=EDGE_CURVE('',#609,#615,#710,.T.);
#516=EDGE_CURVE('',#615,#614,#711,.F.);
#517=EDGE_CURVE('',#610,#615,#101,.F.);
#518=EDGE_CURVE('',#613,#611,#102,.F.);
#519=EDGE_CURVE('',#572,#612,#103,.F.);
#520=EDGE_CURVE('',#613,#567,#712,.F.);
#521=EDGE_CURVE('',#564,#615,#713,.T.);
#522=EDGE_CURVE('',#612,#568,#714,.T.);
#523=EDGE_CURVE('',#571,#614,#715,.T.);
#524=VERTEX_POINT('',#1441);
#525=VERTEX_POINT('',#1442);
#526=VERTEX_POINT('',#1444);
#527=VERTEX_POINT('',#1446);
#528=VERTEX_POINT('',#1453);
#529=VERTEX_POINT('',#1455);
#530=VERTEX_POINT('',#1457);
#531=VERTEX_POINT('',#1459);
#532=VERTEX_POINT('',#1461);
#533=VERTEX_POINT('',#1463);
#534=VERTEX_POINT('',#1465);
#535=VERTEX_POINT('',#1467);
#536=VERTEX_POINT('',#1469);
#537=VERTEX_POINT('',#1471);
#538=VERTEX_POINT('',#1473);
#539=VERTEX_POINT('',#1475);
#540=VERTEX_POINT('',#1477);
#541=VERTEX_POINT('',#1479);
#542=VERTEX_POINT('',#1481);
#543=VERTEX_POINT('',#1483);
#544=VERTEX_POINT('',#1485);
#545=VERTEX_POINT('',#1487);
#546=VERTEX_POINT('',#1494);
#547=VERTEX_POINT('',#1496);
#548=VERTEX_POINT('',#1498);
#549=VERTEX_POINT('',#1500);
#550=VERTEX_POINT('',#1502);
#551=VERTEX_POINT('',#1504);
#552=VERTEX_POINT('',#1506);
#553=VERTEX_POINT('',#1508);
#554=VERTEX_POINT('',#1510);
#555=VERTEX_POINT('',#1512);
#556=VERTEX_POINT('',#1514);
#557=VERTEX_POINT('',#1516);
#558=VERTEX_POINT('',#1518);
#559=VERTEX_POINT('',#1520);
#560=VERTEX_POINT('',#1522);
#561=VERTEX_POINT('',#1524);
#562=VERTEX_POINT('',#1526);
#563=VERTEX_POINT('',#1528);
#564=VERTEX_POINT('',#1662);
#565=VERTEX_POINT('',#1663);
#566=VERTEX_POINT('',#1665);
#567=VERTEX_POINT('',#1667);
#568=VERTEX_POINT('',#1669);
#569=VERTEX_POINT('',#1671);
#570=VERTEX_POINT('',#1673);
#571=VERTEX_POINT('',#1675);
#572=VERTEX_POINT('',#1682);
#573=VERTEX_POINT('',#1684);
#574=VERTEX_POINT('',#1701);
#575=VERTEX_POINT('',#1702);
#576=VERTEX_POINT('',#1704);
#577=VERTEX_POINT('',#1706);
#578=VERTEX_POINT('',#1723);
#579=VERTEX_POINT('',#1724);
#580=VERTEX_POINT('',#1726);
#581=VERTEX_POINT('',#1728);
#582=VERTEX_POINT('',#1745);
#583=VERTEX_POINT('',#1746);
#584=VERTEX_POINT('',#1748);
#585=VERTEX_POINT('',#1750);
#586=VERTEX_POINT('',#1752);
#587=VERTEX_POINT('',#1754);
#588=VERTEX_POINT('',#1771);
#589=VERTEX_POINT('',#1772);
#590=VERTEX_POINT('',#1774);
#591=VERTEX_POINT('',#1776);
#592=VERTEX_POINT('',#1778);
#593=VERTEX_POINT('',#1780);
#594=VERTEX_POINT('',#1788);
#595=VERTEX_POINT('',#1790);
#596=VERTEX_POINT('',#1798);
#597=VERTEX_POINT('',#1800);
#598=VERTEX_POINT('',#1807);
#599=VERTEX_POINT('',#1814);
#600=VERTEX_POINT('',#1831);
#601=VERTEX_POINT('',#1833);
#602=VERTEX_POINT('',#1835);
#603=VERTEX_POINT('',#1837);
#604=VERTEX_POINT('',#1839);
#605=VERTEX_POINT('',#1842);
#606=VERTEX_POINT('',#1844);
#607=VERTEX_POINT('',#1846);
#608=VERTEX_POINT('',#1848);
#609=VERTEX_POINT('',#1850);
#610=VERTEX_POINT('',#1857);
#611=VERTEX_POINT('',#1859);
#612=VERTEX_POINT('',#1872);
#613=VERTEX_POINT('',#1874);
#614=VERTEX_POINT('',#1895);
#615=VERTEX_POINT('',#1908);
#616=LINE('',#1440,#716);
#617=LINE('',#1443,#717);
#618=LINE('',#1445,#718);
#619=LINE('',#1447,#719);
#620=LINE('',#1452,#720);
#621=LINE('',#1456,#721);
#622=LINE('',#1460,#722);
#623=LINE('',#1464,#723);
#624=LINE('',#1468,#724);
#625=LINE('',#1470,#725);
#626=LINE('',#1472,#726);
#627=LINE('',#1476,#727);
#628=LINE('',#1480,#728);
#629=LINE('',#1484,#729);
#630=LINE('',#1488,#730);
#631=LINE('',#1493,#731);
#632=LINE('',#1497,#732);
#633=LINE('',#1501,#733);
#634=LINE('',#1505,#734);
#635=LINE('',#1509,#735);
#636=LINE('',#1511,#736);
#637=LINE('',#1513,#737);
#638=LINE('',#1517,#738);
#639=LINE('',#1521,#739);
#640=LINE('',#1525,#740);
#641=LINE('',#1529,#741);
#642=LINE('',#1534,#742);
#643=LINE('',#1535,#743);
#644=LINE('',#1544,#744);
#645=LINE('',#1553,#745);
#646=LINE('',#1562,#746);
#647=LINE('',#1567,#747);
#648=LINE('',#1568,#748);
#649=LINE('',#1577,#749);
#650=LINE('',#1590,#750);
#651=LINE('',#1599,#751);
#652=LINE('',#1604,#752);
#653=LINE('',#1613,#753);
#654=LINE('',#1618,#754);
#655=LINE('',#1623,#755);
#656=LINE('',#1628,#756);
#657=LINE('',#1637,#757);
#658=LINE('',#1642,#758);
#659=LINE('',#1651,#759);
#660=LINE('',#1664,#760);
#661=LINE('',#1668,#761);
#662=LINE('',#1672,#762);
#663=LINE('',#1676,#763);
#664=LINE('',#1681,#764);
#665=LINE('',#1683,#765);
#666=LINE('',#1685,#766);
#667=LINE('',#1700,#767);
#668=LINE('',#1705,#768);
#669=LINE('',#1722,#769);
#670=LINE('',#1727,#770);
#671=LINE('',#1747,#771);
#672=LINE('',#1753,#772);
#673=LINE('',#1775,#773);
#674=LINE('',#1781,#774);
#675=LINE('',#1786,#775);
#676=LINE('',#1787,#776);
#677=LINE('',#1789,#777);
#678=LINE('',#1791,#778);
#679=LINE('',#1796,#779);
#680=LINE('',#1797,#780);
#681=LINE('',#1799,#781);
#682=LINE('',#1801,#782);
#683=LINE('',#1806,#783);
#684=LINE('',#1808,#784);
#685=LINE('',#1813,#785);
#686=LINE('',#1815,#786);
#687=LINE('',#1820,#787);
#688=LINE('',#1825,#788);
#689=LINE('',#1830,#789);
#690=LINE('',#1834,#790);
#691=LINE('',#1838,#791);
#692=LINE('',#1840,#792);
#693=LINE('',#1841,#793);
#694=LINE('',#1843,#794);
#695=LINE('',#1847,#795);
#696=LINE('',#1851,#796);
#697=LINE('',#1856,#797);
#698=LINE('',#1858,#798);
#699=LINE('',#1860,#799);
#700=LINE('',#1865,#800);
#701=LINE('',#1870,#801);
#702=LINE('',#1871,#802);
#703=LINE('',#1873,#803);
#704=LINE('',#1875,#804);
#705=LINE('',#1884,#805);
#706=LINE('',#1885,#806);
#707=LINE('',#1894,#807);
#708=LINE('',#1901,#808);
#709=LINE('',#1902,#809);
#710=LINE('',#1907,#810);
#711=LINE('',#1909,#811);
#712=LINE('',#1945,#812);
#713=LINE('',#1954,#813);
#714=LINE('',#1959,#814);
#715=LINE('',#1964,#815);
#716=VECTOR('',#1253,1.);
#717=VECTOR('',#1254,1.);
#718=VECTOR('',#1255,1.);
#719=VECTOR('',#1256,1.);
#720=VECTOR('',#1257,1.);
#721=VECTOR('',#1260,1.);
#722=VECTOR('',#1263,1.);
#723=VECTOR('',#1266,1.);
#724=VECTOR('',#1269,1.);
#725=VECTOR('',#1270,1.);
#726=VECTOR('',#1271,1.);
#727=VECTOR('',#1274,1.);
#728=VECTOR('',#1277,1.);
#729=VECTOR('',#1280,1.);
#730=VECTOR('',#1283,1.);
#731=VECTOR('',#1284,1.);
#732=VECTOR('',#1287,1.);
#733=VECTOR('',#1290,1.);
#734=VECTOR('',#1293,1.);
#735=VECTOR('',#1296,1.);
#736=VECTOR('',#1297,1.);
#737=VECTOR('',#1298,1.);
#738=VECTOR('',#1301,1.);
#739=VECTOR('',#1304,1.);
#740=VECTOR('',#1307,1.);
#741=VECTOR('',#1310,1.);
#742=VECTOR('',#1311,1.);
#743=VECTOR('',#1312,1.);
#744=VECTOR('',#1313,1.);
#745=VECTOR('',#1314,1.);
#746=VECTOR('',#1315,1.);
#747=VECTOR('',#1316,1.);
#748=VECTOR('',#1317,1.);
#749=VECTOR('',#1318,1.);
#750=VECTOR('',#1319,1.);
#751=VECTOR('',#1320,1.);
#752=VECTOR('',#1321,1.);
#753=VECTOR('',#1322,1.);
#754=VECTOR('',#1323,1.);
#755=VECTOR('',#1324,1.);
#756=VECTOR('',#1325,1.);
#757=VECTOR('',#1326,1.);
#758=VECTOR('',#1327,1.);
#759=VECTOR('',#1328,1.);
#760=VECTOR('',#1333,1.);
#761=VECTOR('',#1336,1.);
#762=VECTOR('',#1339,1.);
#763=VECTOR('',#1342,1.);
#764=VECTOR('',#1343,1.);
#765=VECTOR('',#1344,1.);
#766=VECTOR('',#1345,1.);
#767=VECTOR('',#1346,1.);
#768=VECTOR('',#1349,1.);
#769=VECTOR('',#1352,1.);
#770=VECTOR('',#1355,1.);
#771=VECTOR('',#1360,1.);
#772=VECTOR('',#1365,1.);
#773=VECTOR('',#1372,1.);
#774=VECTOR('',#1377,1.);
#775=VECTOR('',#1378,1.);
#776=VECTOR('',#1379,1.);
#777=VECTOR('',#1380,1.);
#778=VECTOR('',#1381,1.);
#779=VECTOR('',#1382,1.);
#780=VECTOR('',#1383,1.);
#781=VECTOR('',#1384,1.);
#782=VECTOR('',#1385,1.);
#783=VECTOR('',#1386,1.);
#784=VECTOR('',#1387,1.);
#785=VECTOR('',#1388,1.);
#786=VECTOR('',#1389,1.);
#787=VECTOR('',#1390,1.);
#788=VECTOR('',#1391,1.);
#789=VECTOR('',#1392,1.);
#790=VECTOR('',#1395,1.);
#791=VECTOR('',#1398,1.);
#792=VECTOR('',#1399,1.);
#793=VECTOR('',#1400,1.);
#794=VECTOR('',#1401,1.);
#795=VECTOR('',#1404,1.);
#796=VECTOR('',#1407,1.);
#797=VECTOR('',#1408,1.);
#798=VECTOR('',#1409,1.);
#799=VECTOR('',#1410,1.);
#800=VECTOR('',#1411,1.);
#801=VECTOR('',#1412,1.);
#802=VECTOR('',#1413,1.);
#803=VECTOR('',#1414,1.);
#804=VECTOR('',#1415,1.);
#805=VECTOR('',#1416,1.);
#806=VECTOR('',#1417,1.);
#807=VECTOR('',#1418,1.);
#808=VECTOR('',#1421,1.);
#809=VECTOR('',#1422,1.);
#810=VECTOR('',#1423,1.);
#811=VECTOR('',#1424,1.);
#812=VECTOR('',#1431,1.);
#813=VECTOR('',#1432,1.);
#814=VECTOR('',#1433,1.);
#815=VECTOR('',#1434,1.);
#816=EDGE_LOOP('',(#104,#105,#106,#107));
#817=EDGE_LOOP('',(#108,#109,#110,#111,#112,#113,#114,#115,#116,#117,#118,
#119,#120,#121,#122,#123,#124,#125,#126,#127));
#818=EDGE_LOOP('',(#128,#129,#130,#131,#132,#133,#134,#135,#136,#137,#138,
#139,#140,#141,#142,#143,#144,#145,#146,#147));
#819=EDGE_LOOP('',(#148,#149,#150,#151));
#820=EDGE_LOOP('',(#152,#153,#154,#155));
#821=EDGE_LOOP('',(#156,#157,#158,#159));
#822=EDGE_LOOP('',(#160,#161,#162,#163));
#823=EDGE_LOOP('',(#164,#165,#166,#167));
#824=EDGE_LOOP('',(#168,#169,#170,#171));
#825=EDGE_LOOP('',(#172,#173,#174,#175));
#826=EDGE_LOOP('',(#176,#177,#178,#179));
#827=EDGE_LOOP('',(#180,#181,#182,#183));
#828=EDGE_LOOP('',(#184,#185,#186,#187));
#829=EDGE_LOOP('',(#188,#189,#190,#191));
#830=EDGE_LOOP('',(#192,#193,#194,#195));
#831=EDGE_LOOP('',(#196,#197,#198,#199));
#832=EDGE_LOOP('',(#200,#201,#202,#203));
#833=EDGE_LOOP('',(#204,#205,#206,#207));
#834=EDGE_LOOP('',(#208,#209,#210,#211));
#835=EDGE_LOOP('',(#212,#213,#214,#215));
#836=EDGE_LOOP('',(#216,#217,#218,#219));
#837=EDGE_LOOP('',(#220,#221,#222,#223));
#838=EDGE_LOOP('',(#224,#225,#226,#227,#228,#229,#230,#231));
#839=EDGE_LOOP('',(#232,#233,#234,#235));
#840=EDGE_LOOP('',(#236,#237,#238,#239));
#841=EDGE_LOOP('',(#240,#241,#242,#243));
#842=EDGE_LOOP('',(#244,#245,#246,#247,#248,#249));
#843=EDGE_LOOP('',(#250,#251,#252,#253,#254,#255));
#844=EDGE_LOOP('',(#256,#257,#258,#259,#260,#261));
#845=EDGE_LOOP('',(#262,#263,#264,#265,#266,#267,#268,#269));
#846=EDGE_LOOP('',(#270,#271,#272,#273));
#847=EDGE_LOOP('',(#274,#275,#276,#277));
#848=EDGE_LOOP('',(#278,#279,#280,#281));
#849=EDGE_LOOP('',(#282,#283,#284,#285));
#850=EDGE_LOOP('',(#286,#287,#288,#289,#290,#291,#292,#293,#294,#295,#296,
#297,#298,#299,#300,#301,#302,#303,#304,#305,#306,#307));
#851=EDGE_LOOP('',(#308,#309,#310,#311));
#852=EDGE_LOOP('',(#312,#313,#314,#315));
#853=EDGE_LOOP('',(#316,#317,#318,#319,#320,#321,#322,#323));
#854=EDGE_LOOP('',(#324,#325,#326,#327));
#855=EDGE_LOOP('',(#328,#329,#330,#331));
#856=EDGE_LOOP('',(#332,#333,#334,#335));
#857=EDGE_LOOP('',(#336,#337,#338,#339));
#858=EDGE_LOOP('',(#340,#341,#342,#343,#344,#345,#346,#347));
#859=EDGE_LOOP('',(#348,#349,#350,#351));
#860=EDGE_LOOP('',(#352,#353,#354,#355));
#861=EDGE_LOOP('',(#356,#357,#358,#359));
#862=EDGE_LOOP('',(#360,#361,#362,#363));
#863=EDGE_LOOP('',(#364,#365,#366,#367));
#864=EDGE_LOOP('',(#368,#369,#370,#371));
#865=EDGE_LOOP('',(#372,#373,#374,#375));
#866=EDGE_LOOP('',(#376,#377,#378,#379));
#867=EDGE_LOOP('',(#380,#381,#382,#383));
#868=FACE_BOUND('',#816,.T.);
#869=FACE_BOUND('',#817,.T.);
#870=FACE_BOUND('',#818,.T.);
#871=FACE_BOUND('',#819,.T.);
#872=FACE_BOUND('',#820,.T.);
#873=FACE_BOUND('',#821,.T.);
#874=FACE_BOUND('',#822,.T.);
#875=FACE_BOUND('',#823,.T.);
#876=FACE_BOUND('',#824,.T.);
#877=FACE_BOUND('',#825,.T.);
#878=FACE_BOUND('',#826,.T.);
#879=FACE_BOUND('',#827,.T.);
#880=FACE_BOUND('',#828,.T.);
#881=FACE_BOUND('',#829,.T.);
#882=FACE_BOUND('',#830,.T.);
#883=FACE_BOUND('',#831,.T.);
#884=FACE_BOUND('',#832,.T.);
#885=FACE_BOUND('',#833,.T.);
#886=FACE_BOUND('',#834,.T.);
#887=FACE_BOUND('',#835,.T.);
#888=FACE_BOUND('',#836,.T.);
#889=FACE_BOUND('',#837,.T.);
#890=FACE_BOUND('',#838,.T.);
#891=FACE_BOUND('',#839,.T.);
#892=FACE_BOUND('',#840,.T.);
#893=FACE_BOUND('',#841,.T.);
#894=FACE_BOUND('',#842,.T.);
#895=FACE_BOUND('',#843,.T.);
#896=FACE_BOUND('',#844,.T.);
#897=FACE_BOUND('',#845,.T.);
#898=FACE_BOUND('',#846,.T.);
#899=FACE_BOUND('',#847,.T.);
#900=FACE_BOUND('',#848,.T.);
#901=FACE_BOUND('',#849,.T.);
#902=FACE_BOUND('',#850,.T.);
#903=FACE_BOUND('',#851,.T.);
#904=FACE_BOUND('',#852,.T.);
#905=FACE_BOUND('',#853,.T.);
#906=FACE_BOUND('',#854,.T.);
#907=FACE_BOUND('',#855,.T.);
#908=FACE_BOUND('',#856,.T.);
#909=FACE_BOUND('',#857,.T.);
#910=FACE_BOUND('',#858,.T.);
#911=FACE_BOUND('',#859,.T.);
#912=FACE_BOUND('',#860,.T.);
#913=FACE_BOUND('',#861,.T.);
#914=FACE_BOUND('',#862,.T.);
#915=FACE_BOUND('',#863,.T.);
#916=FACE_BOUND('',#864,.T.);
#917=FACE_BOUND('',#865,.T.);
#918=FACE_BOUND('',#866,.T.);
#919=FACE_BOUND('',#867,.T.);
#920=B_SPLINE_SURFACE_WITH_KNOTS('',1,1,((#1436,#1437),(#1438,#1439)),
 .PLANE_SURF.,.F.,.F.,.F.,(2,2),(2,2),(0.,1.),(0.,1.),.UNSPECIFIED.);
#921=B_SPLINE_SURFACE_WITH_KNOTS('',1,1,((#1448,#1449),(#1450,#1451)),
 .PLANE_SURF.,.F.,.F.,.F.,(2,2),(2,2),(0.,1.),(0.,1.),.UNSPECIFIED.);
#922=B_SPLINE_SURFACE_WITH_KNOTS('',1,1,((#1489,#1490),(#1491,#1492)),
 .PLANE_SURF.,.F.,.F.,.F.,(2,2),(2,2),(0.,1.),(0.,1.),.UNSPECIFIED.);
#923=B_SPLINE_SURFACE_WITH_KNOTS('',1,1,((#1530,#1531),(#1532,#1533)),
 .PLANE_SURF.,.F.,.F.,.F.,(2,2),(2,2),(0.,1.),(0.,1.),.UNSPECIFIED.);
#924=B_SPLINE_SURFACE_WITH_KNOTS('',1,1,((#1545,#1546),(#1547,#1548)),
 .PLANE_SURF.,.F.,.F.,.F.,(2,2),(2,2),(0.,1.),(0.,1.),.UNSPECIFIED.);
#925=B_SPLINE_SURFACE_WITH_KNOTS('',1,1,((#1549,#1550),(#1551,#1552)),
 .PLANE_SURF.,.F.,.F.,.F.,(2,2),(2,2),(0.,1.),(0.,1.),.UNSPECIFIED.);
#926=B_SPLINE_SURFACE_WITH_KNOTS('',1,1,((#1563,#1564),(#1565,#1566)),
 .PLANE_SURF.,.F.,.F.,.F.,(2,2),(2,2),(0.,1.),(0.,1.),.UNSPECIFIED.);
#927=B_SPLINE_SURFACE_WITH_KNOTS('',1,1,((#1578,#1579),(#1580,#1581)),
 .PLANE_SURF.,.F.,.F.,.F.,(2,2),(2,2),(0.,1.),(0.,1.),.UNSPECIFIED.);
#928=B_SPLINE_SURFACE_WITH_KNOTS('',1,1,((#1600,#1601),(#1602,#1603)),
 .PLANE_SURF.,.F.,.F.,.F.,(2,2),(2,2),(0.,1.),(0.,1.),.UNSPECIFIED.);
#929=B_SPLINE_SURFACE_WITH_KNOTS('',1,1,((#1614,#1615),(#1616,#1617)),
 .PLANE_SURF.,.F.,.F.,.F.,(2,2),(2,2),(0.,1.),(0.,1.),.UNSPECIFIED.);
#930=B_SPLINE_SURFACE_WITH_KNOTS('',1,1,((#1619,#1620),(#1621,#1622)),
 .PLANE_SURF.,.F.,.F.,.F.,(2,2),(2,2),(0.,1.),(0.,1.),.UNSPECIFIED.);
#931=B_SPLINE_SURFACE_WITH_KNOTS('',1,1,((#1624,#1625),(#1626,#1627)),
 .PLANE_SURF.,.F.,.F.,.F.,(2,2),(2,2),(0.,1.),(0.,1.),.UNSPECIFIED.);
#932=B_SPLINE_SURFACE_WITH_KNOTS('',1,1,((#1638,#1639),(#1640,#1641)),
 .PLANE_SURF.,.F.,.F.,.F.,(2,2),(2,2),(0.,1.),(0.,1.),.UNSPECIFIED.);
#933=B_SPLINE_SURFACE_WITH_KNOTS('',1,1,((#1652,#1653),(#1654,#1655)),
 .PLANE_SURF.,.F.,.F.,.F.,(2,2),(2,2),(0.,1.),(0.,1.),.UNSPECIFIED.);
#934=B_SPLINE_SURFACE_WITH_KNOTS('',1,1,((#1657,#1658),(#1659,#1660)),
 .PLANE_SURF.,.F.,.F.,.F.,(2,2),(2,2),(0.,1.),(0.,1.),.UNSPECIFIED.);
#935=B_SPLINE_SURFACE_WITH_KNOTS('',1,1,((#1677,#1678),(#1679,#1680)),
 .PLANE_SURF.,.F.,.F.,.F.,(2,2),(2,2),(0.,1.),(0.,1.),.UNSPECIFIED.);
#936=B_SPLINE_SURFACE_WITH_KNOTS('',1,1,((#1782,#1783),(#1784,#1785)),
 .PLANE_SURF.,.F.,.F.,.F.,(2,2),(2,2),(0.0444934273575096,0.954545454545455),
(0.0449577782684076,0.954831098919648),.PIECEWISE_BEZIER_KNOTS.);
#937=B_SPLINE_SURFACE_WITH_KNOTS('',1,1,((#1792,#1793),(#1794,#1795)),
 .PLANE_SURF.,.F.,.F.,.F.,(2,2),(2,2),(0.0444934273575096,0.954545454545455),
(0.045168901080352,0.955042221731592),.PIECEWISE_BEZIER_KNOTS.);
#938=B_SPLINE_SURFACE_WITH_KNOTS('',1,1,((#1802,#1803),(#1804,#1805)),
 .PLANE_SURF.,.F.,.F.,.F.,(2,2),(2,2),(0.,1.),(0.,1.),.UNSPECIFIED.);
#939=B_SPLINE_SURFACE_WITH_KNOTS('',1,1,((#1809,#1810),(#1811,#1812)),
 .PLANE_SURF.,.F.,.F.,.F.,(2,2),(2,2),(0.,1.),(0.,1.),.UNSPECIFIED.);
#940=B_SPLINE_SURFACE_WITH_KNOTS('',1,1,((#1816,#1817),(#1818,#1819)),
 .PLANE_SURF.,.F.,.F.,.F.,(2,2),(2,2),(0.,1.),(0.,1.),.UNSPECIFIED.);
#941=B_SPLINE_SURFACE_WITH_KNOTS('',1,1,((#1821,#1822),(#1823,#1824)),
 .PLANE_SURF.,.F.,.F.,.F.,(2,2),(2,2),(0.,1.),(0.,1.),.UNSPECIFIED.);
#942=B_SPLINE_SURFACE_WITH_KNOTS('',1,1,((#1826,#1827),(#1828,#1829)),
 .PLANE_SURF.,.F.,.F.,.F.,(2,2),(2,2),(0.,1.),(0.,1.),.UNSPECIFIED.);
#943=B_SPLINE_SURFACE_WITH_KNOTS('',1,1,((#1852,#1853),(#1854,#1855)),
 .PLANE_SURF.,.F.,.F.,.F.,(2,2),(2,2),(0.,1.),(0.,1.),.UNSPECIFIED.);
#944=B_SPLINE_SURFACE_WITH_KNOTS('',1,1,((#1861,#1862),(#1863,#1864)),
 .PLANE_SURF.,.F.,.F.,.F.,(2,2),(2,2),(0.,1.),(0.,1.),.UNSPECIFIED.);
#945=B_SPLINE_SURFACE_WITH_KNOTS('',1,1,((#1866,#1867),(#1868,#1869)),
 .PLANE_SURF.,.F.,.F.,.F.,(2,2),(2,2),(0.,1.),(0.,1.),.UNSPECIFIED.);
#946=B_SPLINE_SURFACE_WITH_KNOTS('',1,1,((#1876,#1877),(#1878,#1879)),
 .PLANE_SURF.,.F.,.F.,.F.,(2,2),(2,2),(0.,1.),(0.,1.),.UNSPECIFIED.);
#947=B_SPLINE_SURFACE_WITH_KNOTS('',1,1,((#1880,#1881),(#1882,#1883)),
 .PLANE_SURF.,.F.,.F.,.F.,(2,2),(2,2),(0.,1.),(0.,1.),.UNSPECIFIED.);
#948=B_SPLINE_SURFACE_WITH_KNOTS('',1,1,((#1897,#1898),(#1899,#1900)),
 .PLANE_SURF.,.F.,.F.,.F.,(2,2),(2,2),(0.,1.),(0.,1.),.UNSPECIFIED.);
#949=B_SPLINE_SURFACE_WITH_KNOTS('',1,1,((#1903,#1904),(#1905,#1906)),
 .PLANE_SURF.,.F.,.F.,.F.,(2,2),(2,2),(0.,1.),(0.,1.),.UNSPECIFIED.);
#950=B_SPLINE_SURFACE_WITH_KNOTS('',1,1,((#1955,#1956),(#1957,#1958)),
 .PLANE_SURF.,.F.,.F.,.F.,(2,2),(2,2),(0.,1.),(0.,1.),.UNSPECIFIED.);
#951=B_SPLINE_SURFACE_WITH_KNOTS('',1,1,((#1960,#1961),(#1962,#1963)),
 .PLANE_SURF.,.F.,.F.,.F.,(2,2),(2,2),(0.,1.),(0.,1.),.UNSPECIFIED.);
#952=ADVANCED_FACE('',(#868),#920,.F.);
#953=ADVANCED_FACE('',(#869),#921,.F.);
#954=ADVANCED_FACE('',(#870),#922,.T.);
#955=ADVANCED_FACE('',(#871),#923,.T.);
#956=ADVANCED_FACE('',(#872),#44,.T.);
#957=ADVANCED_FACE('',(#873),#924,.T.);
#958=ADVANCED_FACE('',(#874),#925,.F.);
#959=ADVANCED_FACE('',(#875),#45,.F.);
#960=ADVANCED_FACE('',(#876),#926,.F.);
#961=ADVANCED_FACE('',(#877),#46,.F.);
#962=ADVANCED_FACE('',(#878),#927,.F.);
#963=ADVANCED_FACE('',(#879),#47,.T.);
#964=ADVANCED_FACE('',(#880),#48,.F.);
#965=ADVANCED_FACE('',(#881),#928,.F.);
#966=ADVANCED_FACE('',(#882),#49,.F.);
#967=ADVANCED_FACE('',(#883),#929,.F.);
#968=ADVANCED_FACE('',(#884),#930,.T.);
#969=ADVANCED_FACE('',(#885),#931,.T.);
#970=ADVANCED_FACE('',(#886),#50,.T.);
#971=ADVANCED_FACE('',(#887),#932,.T.);
#972=ADVANCED_FACE('',(#888),#51,.T.);
#973=ADVANCED_FACE('',(#889),#933,.T.);
#974=ADVANCED_FACE('',(#890),#934,.T.);
#975=ADVANCED_FACE('',(#891),#935,.T.);
#976=ADVANCED_FACE('',(#892),#52,.F.);
#977=ADVANCED_FACE('',(#893),#53,.F.);
#978=ADVANCED_FACE('',(#894),#54,.F.);
#979=ADVANCED_FACE('',(#895),#55,.F.);
#980=ADVANCED_FACE('',(#896),#936,.F.);
#981=ADVANCED_FACE('',(#897),#937,.T.);
#982=ADVANCED_FACE('',(#898),#938,.F.);
#983=ADVANCED_FACE('',(#899),#939,.F.);
#984=ADVANCED_FACE('',(#900),#940,.F.);
#985=ADVANCED_FACE('',(#901),#941,.T.);
#986=ADVANCED_FACE('',(#902),#942,.F.);
#987=ADVANCED_FACE('',(#903),#943,.T.);
#988=ADVANCED_FACE('',(#904),#944,.T.);
#989=ADVANCED_FACE('',(#905),#945,.F.);
#990=ADVANCED_FACE('',(#906),#946,.T.);
#991=ADVANCED_FACE('',(#907),#947,.F.);
#992=ADVANCED_FACE('',(#908),#56,.T.);
#993=ADVANCED_FACE('',(#909),#948,.F.);
#994=ADVANCED_FACE('',(#910),#949,.F.);
#995=ADVANCED_FACE('',(#911),#57,.T.);
#996=ADVANCED_FACE('',(#912),#58,.T.);
#997=ADVANCED_FACE('',(#913),#59,.T.);
#998=ADVANCED_FACE('',(#914),#60,.T.);
#999=ADVANCED_FACE('',(#915),#61,.T.);
#1000=ADVANCED_FACE('',(#916),#950,.T.);
#1001=ADVANCED_FACE('',(#917),#951,.T.);
#1002=ADVANCED_FACE('',(#918),#62,.T.);
#1003=ADVANCED_FACE('',(#919),#63,.T.);
#1004=CLOSED_SHELL('',(#952,#953,#954,#955,#956,#957,#958,#959,#960,#961,
#962,#963,#964,#965,#966,#967,#968,#969,#970,#971,#972,#973));
#1005=CLOSED_SHELL('',(#974,#975,#976,#977,#978,#979,#980,#981,#982,#983,
#984,#985,#986,#987,#988,#989,#990,#991,#992,#993,#994,#995,#996,#997,#998,
#999,#1000,#1001,#1002,#1003));
#1006=STYLED_ITEM('',(#1008),#1203);
#1007=STYLED_ITEM('',(#1009),#1204);
#1008=PRESENTATION_STYLE_ASSIGNMENT((#1040));
#1009=PRESENTATION_STYLE_ASSIGNMENT((#1041));
#1010=PRESENTATION_STYLE_ASSIGNMENT((#1042));
#1011=PRESENTATION_STYLE_ASSIGNMENT((#1043));
#1012=PRESENTATION_STYLE_ASSIGNMENT((#1044));
#1013=PRESENTATION_STYLE_ASSIGNMENT((#1045));
#1014=PRESENTATION_STYLE_ASSIGNMENT((#1046));
#1015=PRESENTATION_STYLE_ASSIGNMENT((#1047));
#1016=PRESENTATION_STYLE_ASSIGNMENT((#1048));
#1017=PRESENTATION_STYLE_ASSIGNMENT((#1049));
#1018=PRESENTATION_STYLE_ASSIGNMENT((#1050));
#1019=PRESENTATION_STYLE_ASSIGNMENT((#1051));
#1020=PRESENTATION_STYLE_ASSIGNMENT((#1052));
#1021=PRESENTATION_STYLE_ASSIGNMENT((#1053));
#1022=PRESENTATION_STYLE_ASSIGNMENT((#1054));
#1023=PRESENTATION_STYLE_ASSIGNMENT((#1055));
#1024=PRESENTATION_STYLE_ASSIGNMENT((#1056));
#1025=PRESENTATION_STYLE_ASSIGNMENT((#1057));
#1026=PRESENTATION_STYLE_ASSIGNMENT((#1058));
#1027=PRESENTATION_STYLE_ASSIGNMENT((#1059));
#1028=PRESENTATION_STYLE_ASSIGNMENT((#1060));
#1029=PRESENTATION_STYLE_ASSIGNMENT((#1061));
#1030=PRESENTATION_STYLE_ASSIGNMENT((#1062));
#1031=PRESENTATION_STYLE_ASSIGNMENT((#1063));
#1032=PRESENTATION_STYLE_ASSIGNMENT((#1064));
#1033=PRESENTATION_STYLE_ASSIGNMENT((#1065));
#1034=PRESENTATION_STYLE_ASSIGNMENT((#1066));
#1035=PRESENTATION_STYLE_ASSIGNMENT((#1067));
#1036=PRESENTATION_STYLE_ASSIGNMENT((#1068));
#1037=PRESENTATION_STYLE_ASSIGNMENT((#1069));
#1038=PRESENTATION_STYLE_ASSIGNMENT((#1070));
#1039=PRESENTATION_STYLE_ASSIGNMENT((#1071));
#1040=SURFACE_STYLE_USAGE(.BOTH.,#1072);
#1041=SURFACE_STYLE_USAGE(.BOTH.,#1073);
#1042=SURFACE_STYLE_USAGE(.BOTH.,#1074);
#1043=SURFACE_STYLE_USAGE(.BOTH.,#1075);
#1044=SURFACE_STYLE_USAGE(.BOTH.,#1076);
#1045=SURFACE_STYLE_USAGE(.BOTH.,#1077);
#1046=SURFACE_STYLE_USAGE(.BOTH.,#1078);
#1047=SURFACE_STYLE_USAGE(.BOTH.,#1079);
#1048=SURFACE_STYLE_USAGE(.BOTH.,#1080);
#1049=SURFACE_STYLE_USAGE(.BOTH.,#1081);
#1050=SURFACE_STYLE_USAGE(.BOTH.,#1082);
#1051=SURFACE_STYLE_USAGE(.BOTH.,#1083);
#1052=SURFACE_STYLE_USAGE(.BOTH.,#1084);
#1053=SURFACE_STYLE_USAGE(.BOTH.,#1085);
#1054=SURFACE_STYLE_USAGE(.BOTH.,#1086);
#1055=SURFACE_STYLE_USAGE(.BOTH.,#1087);
#1056=SURFACE_STYLE_USAGE(.BOTH.,#1088);
#1057=SURFACE_STYLE_USAGE(.BOTH.,#1089);
#1058=SURFACE_STYLE_USAGE(.BOTH.,#1090);
#1059=SURFACE_STYLE_USAGE(.BOTH.,#1091);
#1060=SURFACE_STYLE_USAGE(.BOTH.,#1092);
#1061=SURFACE_STYLE_USAGE(.BOTH.,#1093);
#1062=SURFACE_STYLE_USAGE(.BOTH.,#1094);
#1063=SURFACE_STYLE_USAGE(.BOTH.,#1095);
#1064=SURFACE_STYLE_USAGE(.BOTH.,#1096);
#1065=SURFACE_STYLE_USAGE(.BOTH.,#1097);
#1066=SURFACE_STYLE_USAGE(.BOTH.,#1098);
#1067=SURFACE_STYLE_USAGE(.BOTH.,#1099);
#1068=SURFACE_STYLE_USAGE(.BOTH.,#1100);
#1069=SURFACE_STYLE_USAGE(.BOTH.,#1101);
#1070=SURFACE_STYLE_USAGE(.BOTH.,#1102);
#1071=SURFACE_STYLE_USAGE(.BOTH.,#1103);
#1072=SURFACE_SIDE_STYLE('',(#1104));
#1073=SURFACE_SIDE_STYLE('',(#1105));
#1074=SURFACE_SIDE_STYLE('',(#1106));
#1075=SURFACE_SIDE_STYLE('',(#1107));
#1076=SURFACE_SIDE_STYLE('',(#1108));
#1077=SURFACE_SIDE_STYLE('',(#1109));
#1078=SURFACE_SIDE_STYLE('',(#1110));
#1079=SURFACE_SIDE_STYLE('',(#1111));
#1080=SURFACE_SIDE_STYLE('',(#1112));
#1081=SURFACE_SIDE_STYLE('',(#1113));
#1082=SURFACE_SIDE_STYLE('',(#1114));
#1083=SURFACE_SIDE_STYLE('',(#1115));
#1084=SURFACE_SIDE_STYLE('',(#1116));
#1085=SURFACE_SIDE_STYLE('',(#1117));
#1086=SURFACE_SIDE_STYLE('',(#1118));
#1087=SURFACE_SIDE_STYLE('',(#1119));
#1088=SURFACE_SIDE_STYLE('',(#1120));
#1089=SURFACE_SIDE_STYLE('',(#1121));
#1090=SURFACE_SIDE_STYLE('',(#1122));
#1091=SURFACE_SIDE_STYLE('',(#1123));
#1092=SURFACE_SIDE_STYLE('',(#1124));
#1093=SURFACE_SIDE_STYLE('',(#1125));
#1094=SURFACE_SIDE_STYLE('',(#1126));
#1095=SURFACE_SIDE_STYLE('',(#1127));
#1096=SURFACE_SIDE_STYLE('',(#1128));
#1097=SURFACE_SIDE_STYLE('',(#1129));
#1098=SURFACE_SIDE_STYLE('',(#1130));
#1099=SURFACE_SIDE_STYLE('',(#1131));
#1100=SURFACE_SIDE_STYLE('',(#1132));
#1101=SURFACE_SIDE_STYLE('',(#1133));
#1102=SURFACE_SIDE_STYLE('',(#1134));
#1103=SURFACE_SIDE_STYLE('',(#1135));
#1104=SURFACE_STYLE_FILL_AREA(#1136);
#1105=SURFACE_STYLE_FILL_AREA(#1137);
#1106=SURFACE_STYLE_FILL_AREA(#1138);
#1107=SURFACE_STYLE_FILL_AREA(#1139);
#1108=SURFACE_STYLE_FILL_AREA(#1140);
#1109=SURFACE_STYLE_FILL_AREA(#1141);
#1110=SURFACE_STYLE_FILL_AREA(#1142);
#1111=SURFACE_STYLE_FILL_AREA(#1143);
#1112=SURFACE_STYLE_FILL_AREA(#1144);
#1113=SURFACE_STYLE_FILL_AREA(#1145);
#1114=SURFACE_STYLE_FILL_AREA(#1146);
#1115=SURFACE_STYLE_FILL_AREA(#1147);
#1116=SURFACE_STYLE_FILL_AREA(#1148);
#1117=SURFACE_STYLE_FILL_AREA(#1149);
#1118=SURFACE_STYLE_FILL_AREA(#1150);
#1119=SURFACE_STYLE_FILL_AREA(#1151);
#1120=SURFACE_STYLE_FILL_AREA(#1152);
#1121=SURFACE_STYLE_FILL_AREA(#1153);
#1122=SURFACE_STYLE_FILL_AREA(#1154);
#1123=SURFACE_STYLE_FILL_AREA(#1155);
#1124=SURFACE_STYLE_FILL_AREA(#1156);
#1125=SURFACE_STYLE_FILL_AREA(#1157);
#1126=SURFACE_STYLE_FILL_AREA(#1158);
#1127=SURFACE_STYLE_FILL_AREA(#1159);
#1128=SURFACE_STYLE_FILL_AREA(#1160);
#1129=SURFACE_STYLE_FILL_AREA(#1161);
#1130=SURFACE_STYLE_FILL_AREA(#1162);
#1131=SURFACE_STYLE_FILL_AREA(#1163);
#1132=SURFACE_STYLE_FILL_AREA(#1164);
#1133=SURFACE_STYLE_FILL_AREA(#1165);
#1134=SURFACE_STYLE_FILL_AREA(#1166);
#1135=SURFACE_STYLE_FILL_AREA(#1167);
#1136=FILL_AREA_STYLE('',(#1168));
#1137=FILL_AREA_STYLE('',(#1169));
#1138=FILL_AREA_STYLE('',(#1170));
#1139=FILL_AREA_STYLE('',(#1171));
#1140=FILL_AREA_STYLE('',(#1172));
#1141=FILL_AREA_STYLE('',(#1173));
#1142=FILL_AREA_STYLE('',(#1174));
#1143=FILL_AREA_STYLE('',(#1175));
#1144=FILL_AREA_STYLE('',(#1176));
#1145=FILL_AREA_STYLE('',(#1177));
#1146=FILL_AREA_STYLE('',(#1178));
#1147=FILL_AREA_STYLE('',(#1179));
#1148=FILL_AREA_STYLE('',(#1180));
#1149=FILL_AREA_STYLE('',(#1181));
#1150=FILL_AREA_STYLE('',(#1182));
#1151=FILL_AREA_STYLE('',(#1183));
#1152=FILL_AREA_STYLE('',(#1184));
#1153=FILL_AREA_STYLE('',(#1185));
#1154=FILL_AREA_STYLE('',(#1186));
#1155=FILL_AREA_STYLE('',(#1187));
#1156=FILL_AREA_STYLE('',(#1188));
#1157=FILL_AREA_STYLE('',(#1189));
#1158=FILL_AREA_STYLE('',(#1190));
#1159=FILL_AREA_STYLE('',(#1191));
#1160=FILL_AREA_STYLE('',(#1192));
#1161=FILL_AREA_STYLE('',(#1193));
#1162=FILL_AREA_STYLE('',(#1194));
#1163=FILL_AREA_STYLE('',(#1195));
#1164=FILL_AREA_STYLE('',(#1196));
#1165=FILL_AREA_STYLE('',(#1197));
#1166=FILL_AREA_STYLE('',(#1198));
#1167=FILL_AREA_STYLE('',(#1199));
#1168=FILL_AREA_STYLE_COLOUR('',#1200);
#1169=FILL_AREA_STYLE_COLOUR('',#1201);
#1170=FILL_AREA_STYLE_COLOUR('',#1202);
#1171=FILL_AREA_STYLE_COLOUR('',#1202);
#1172=FILL_AREA_STYLE_COLOUR('',#1202);
#1173=FILL_AREA_STYLE_COLOUR('',#1202);
#1174=FILL_AREA_STYLE_COLOUR('',#1202);
#1175=FILL_AREA_STYLE_COLOUR('',#1202);
#1176=FILL_AREA_STYLE_COLOUR('',#1202);
#1177=FILL_AREA_STYLE_COLOUR('',#1202);
#1178=FILL_AREA_STYLE_COLOUR('',#1202);
#1179=FILL_AREA_STYLE_COLOUR('',#1202);
#1180=FILL_AREA_STYLE_COLOUR('',#1202);
#1181=FILL_AREA_STYLE_COLOUR('',#1202);
#1182=FILL_AREA_STYLE_COLOUR('',#1202);
#1183=FILL_AREA_STYLE_COLOUR('',#1202);
#1184=FILL_AREA_STYLE_COLOUR('',#1202);
#1185=FILL_AREA_STYLE_COLOUR('',#1202);
#1186=FILL_AREA_STYLE_COLOUR('',#1202);
#1187=FILL_AREA_STYLE_COLOUR('',#1202);
#1188=FILL_AREA_STYLE_COLOUR('',#1202);
#1189=FILL_AREA_STYLE_COLOUR('',#1202);
#1190=FILL_AREA_STYLE_COLOUR('',#1202);
#1191=FILL_AREA_STYLE_COLOUR('',#1202);
#1192=FILL_AREA_STYLE_COLOUR('',#1202);
#1193=FILL_AREA_STYLE_COLOUR('',#1202);
#1194=FILL_AREA_STYLE_COLOUR('',#1202);
#1195=FILL_AREA_STYLE_COLOUR('',#1202);
#1196=FILL_AREA_STYLE_COLOUR('',#1202);
#1197=FILL_AREA_STYLE_COLOUR('',#1202);
#1198=FILL_AREA_STYLE_COLOUR('',#1202);
#1199=FILL_AREA_STYLE_COLOUR('',#1202);
#1200=COLOUR_RGB('',0.690196078431373,0.768627450980392,0.870588235294118);
#1201=COLOUR_RGB('',0.2,0.2,0.2);
#1202=COLOUR_RGB('',0.8,0.8,0.8);
#1203=MANIFOLD_SOLID_BREP('pin',#1004);
#1204=MANIFOLD_SOLID_BREP('base',#1005);
#1205=SHAPE_DEFINITION_REPRESENTATION(#1993,#1207);
#1206=SHAPE_DEFINITION_REPRESENTATION(#1994,#1208);
#1207=SHAPE_REPRESENTATION('pin',(#1209),#1983);
#1208=SHAPE_REPRESENTATION('base',(#1226),#1984);
#1209=AXIS2_PLACEMENT_3D('',#1435,#1251,#1252);
#1210=AXIS2_PLACEMENT_3D('',#1454,#1258,#1259);
#1211=AXIS2_PLACEMENT_3D('',#1458,#1261,#1262);
#1212=AXIS2_PLACEMENT_3D('',#1462,#1264,#1265);
#1213=AXIS2_PLACEMENT_3D('',#1466,#1267,#1268);
#1214=AXIS2_PLACEMENT_3D('',#1474,#1272,#1273);
#1215=AXIS2_PLACEMENT_3D('',#1478,#1275,#1276);
#1216=AXIS2_PLACEMENT_3D('',#1482,#1278,#1279);
#1217=AXIS2_PLACEMENT_3D('',#1486,#1281,#1282);
#1218=AXIS2_PLACEMENT_3D('',#1495,#1285,#1286);
#1219=AXIS2_PLACEMENT_3D('',#1499,#1288,#1289);
#1220=AXIS2_PLACEMENT_3D('',#1503,#1291,#1292);
#1221=AXIS2_PLACEMENT_3D('',#1507,#1294,#1295);
#1222=AXIS2_PLACEMENT_3D('',#1515,#1299,#1300);
#1223=AXIS2_PLACEMENT_3D('',#1519,#1302,#1303);
#1224=AXIS2_PLACEMENT_3D('',#1523,#1305,#1306);
#1225=AXIS2_PLACEMENT_3D('',#1527,#1308,#1309);
#1226=AXIS2_PLACEMENT_3D('',#1656,#1329,#1330);
#1227=AXIS2_PLACEMENT_3D('',#1661,#1331,#1332);
#1228=AXIS2_PLACEMENT_3D('',#1666,#1334,#1335);
#1229=AXIS2_PLACEMENT_3D('',#1670,#1337,#1338);
#1230=AXIS2_PLACEMENT_3D('',#1674,#1340,#1341);
#1231=AXIS2_PLACEMENT_3D('',#1703,#1347,#1348);
#1232=AXIS2_PLACEMENT_3D('',#1707,#1350,#1351);
#1233=AXIS2_PLACEMENT_3D('',#1725,#1353,#1354);
#1234=AXIS2_PLACEMENT_3D('',#1729,#1356,#1357);
#1235=AXIS2_PLACEMENT_3D('',#1744,#1358,#1359);
#1236=AXIS2_PLACEMENT_3D('',#1749,#1361,#1362);
#1237=AXIS2_PLACEMENT_3D('',#1751,#1363,#1364);
#1238=AXIS2_PLACEMENT_3D('',#1755,#1366,#1367);
#1239=AXIS2_PLACEMENT_3D('',#1770,#1368,#1369);
#1240=AXIS2_PLACEMENT_3D('',#1773,#1370,#1371);
#1241=AXIS2_PLACEMENT_3D('',#1777,#1373,#1374);
#1242=AXIS2_PLACEMENT_3D('',#1779,#1375,#1376);
#1243=AXIS2_PLACEMENT_3D('',#1832,#1393,#1394);
#1244=AXIS2_PLACEMENT_3D('',#1836,#1396,#1397);
#1245=AXIS2_PLACEMENT_3D('',#1845,#1402,#1403);
#1246=AXIS2_PLACEMENT_3D('',#1849,#1405,#1406);
#1247=AXIS2_PLACEMENT_3D('',#1896,#1419,#1420);
#1248=AXIS2_PLACEMENT_3D('',#1918,#1425,#1426);
#1249=AXIS2_PLACEMENT_3D('',#1927,#1427,#1428);
#1250=AXIS2_PLACEMENT_3D('',#1936,#1429,#1430);
#1251=DIRECTION('',(0.,0.,1.));
#1252=DIRECTION('',(1.,0.,0.));
#1253=DIRECTION('',(0.,1.,0.));
#1254=DIRECTION('',(4.93038065763132E-32,0.,-1.));
#1255=DIRECTION('',(0.,-1.,0.));
#1256=DIRECTION('',(4.93038065763132E-32,0.,-1.));
#1257=DIRECTION('',(1.,0.,4.93038065763132E-32));
#1258=DIRECTION('',(0.,-1.,0.));
#1259=DIRECTION('',(0.,0.,-1.));
#1260=DIRECTION('',(4.93038065763132E-32,0.,-1.));
#1261=DIRECTION('',(0.,-1.,0.));
#1262=DIRECTION('',(0.,0.,-1.));
#1263=DIRECTION('',(1.,0.,4.93038065763132E-32));
#1264=DIRECTION('',(0.,1.,0.));
#1265=DIRECTION('',(0.,0.,1.));
#1266=DIRECTION('',(4.93038065763132E-32,0.,-1.));
#1267=DIRECTION('',(0.,1.,0.));
#1268=DIRECTION('',(0.,0.,1.));
#1269=DIRECTION('',(1.,0.,4.93038065763132E-32));
#1270=DIRECTION('',(0.,0.,-1.));
#1271=DIRECTION('',(-1.,0.,0.));
#1272=DIRECTION('',(0.,1.,0.));
#1273=DIRECTION('',(0.,0.,1.));
#1274=DIRECTION('',(0.,0.,1.));
#1275=DIRECTION('',(0.,1.,0.));
#1276=DIRECTION('',(0.,0.,1.));
#1277=DIRECTION('',(1.,0.,0.));
#1278=DIRECTION('',(0.,-1.,0.));
#1279=DIRECTION('',(0.,0.,-1.));
#1280=DIRECTION('',(0.,0.,-1.));
#1281=DIRECTION('',(0.,-1.,0.));
#1282=DIRECTION('',(0.,0.,-1.));
#1283=DIRECTION('',(-1.,0.,-4.93038065763132E-32));
#1284=DIRECTION('',(1.,0.,4.93038065763132E-32));
#1285=DIRECTION('',(0.,-1.,0.));
#1286=DIRECTION('',(0.,0.,-1.));
#1287=DIRECTION('',(4.93038065763132E-32,0.,-1.));
#1288=DIRECTION('',(0.,-1.,0.));
#1289=DIRECTION('',(0.,0.,-1.));
#1290=DIRECTION('',(1.,0.,4.93038065763132E-32));
#1291=DIRECTION('',(0.,1.,0.));
#1292=DIRECTION('',(0.,0.,1.));
#1293=DIRECTION('',(4.93038065763132E-32,0.,-1.));
#1294=DIRECTION('',(0.,1.,0.));
#1295=DIRECTION('',(0.,0.,1.));
#1296=DIRECTION('',(1.,0.,4.93038065763132E-32));
#1297=DIRECTION('',(4.93038065763132E-32,0.,-1.));
#1298=DIRECTION('',(-1.,0.,0.));
#1299=DIRECTION('',(0.,1.,0.));
#1300=DIRECTION('',(0.,0.,1.));
#1301=DIRECTION('',(0.,0.,1.));
#1302=DIRECTION('',(0.,1.,0.));
#1303=DIRECTION('',(0.,0.,1.));
#1304=DIRECTION('',(1.,0.,0.));
#1305=DIRECTION('',(0.,-1.,0.));
#1306=DIRECTION('',(0.,0.,-1.));
#1307=DIRECTION('',(0.,0.,-1.));
#1308=DIRECTION('',(0.,-1.,0.));
#1309=DIRECTION('',(0.,0.,-1.));
#1310=DIRECTION('',(-1.,0.,-4.93038065763132E-32));
#1311=DIRECTION('',(0.,-1.,0.));
#1312=DIRECTION('',(0.,1.,0.));
#1313=DIRECTION('',(0.,1.,0.));
#1314=DIRECTION('',(0.,-1.,0.));
#1315=DIRECTION('',(0.,1.,0.));
#1316=DIRECTION('',(0.,1.,0.));
#1317=DIRECTION('',(0.,1.,0.));
#1318=DIRECTION('',(0.,-1.,0.));
#1319=DIRECTION('',(0.,-1.,0.));
#1320=DIRECTION('',(0.,1.,0.));
#1321=DIRECTION('',(0.,1.,0.));
#1322=DIRECTION('',(0.,1.,0.));
#1323=DIRECTION('',(0.,-1.,0.));
#1324=DIRECTION('',(0.,1.,0.));
#1325=DIRECTION('',(0.,1.,0.));
#1326=DIRECTION('',(0.,1.,0.));
#1327=DIRECTION('',(0.,1.,0.));
#1328=DIRECTION('',(0.,1.,0.));
#1329=DIRECTION('',(0.,0.,1.));
#1330=DIRECTION('',(1.,0.,0.));
#1331=DIRECTION('',(0.,0.,-1.));
#1332=DIRECTION('',(-1.,0.,0.));
#1333=DIRECTION('',(1.,0.,0.));
#1334=DIRECTION('',(0.,0.,-1.));
#1335=DIRECTION('',(-1.,0.,0.));
#1336=DIRECTION('',(0.,1.,0.));
#1337=DIRECTION('',(0.,0.,-1.));
#1338=DIRECTION('',(-1.,0.,0.));
#1339=DIRECTION('',(1.,0.,0.));
#1340=DIRECTION('',(0.,0.,-1.));
#1341=DIRECTION('',(-1.,0.,0.));
#1342=DIRECTION('',(0.,1.,0.));
#1343=DIRECTION('',(1.6430360947926E-16,-0.894427190999916,-0.447213595499959));
#1344=DIRECTION('',(-1.,1.97127667724637E-16,0.));
#1345=DIRECTION('',(1.6430360947926E-16,-0.894427190999916,-0.447213595499959));
#1346=DIRECTION('',(0.,0.,1.));
#1347=DIRECTION('',(0.,0.,1.));
#1348=DIRECTION('',(1.,0.,0.));
#1349=DIRECTION('',(0.,0.,1.));
#1350=DIRECTION('',(0.,0.,1.));
#1351=DIRECTION('',(1.,0.,0.));
#1352=DIRECTION('',(0.,0.,1.));
#1353=DIRECTION('',(0.,0.,1.));
#1354=DIRECTION('',(1.,0.,0.));
#1355=DIRECTION('',(0.,0.,1.));
#1356=DIRECTION('',(0.,0.,1.));
#1357=DIRECTION('',(1.,0.,0.));
#1358=DIRECTION('',(0.,0.,1.));
#1359=DIRECTION('',(1.,0.,0.));
#1360=DIRECTION('',(0.,0.,1.));
#1361=DIRECTION('',(0.,0.,1.));
#1362=DIRECTION('',(1.,0.,0.));
#1363=DIRECTION('',(0.,0.,1.));
#1364=DIRECTION('',(1.,0.,0.));
#1365=DIRECTION('',(0.,0.,1.));
#1366=DIRECTION('',(0.,0.,1.));
#1367=DIRECTION('',(1.,0.,0.));
#1368=DIRECTION('',(0.,0.,1.));
#1369=DIRECTION('',(1.,0.,0.));
#1370=DIRECTION('',(0.,0.,1.));
#1371=DIRECTION('',(1.,0.,0.));
#1372=DIRECTION('',(0.,0.,-1.));
#1373=DIRECTION('',(0.,0.,1.));
#1374=DIRECTION('',(1.,0.,0.));
#1375=DIRECTION('',(0.,0.,1.));
#1376=DIRECTION('',(1.,0.,0.));
#1377=DIRECTION('',(0.,0.,1.));
#1378=DIRECTION('',(1.44560289664734E-16,-1.,0.));
#1379=DIRECTION('',(-1.,5.53635151907491E-16,0.));
#1380=DIRECTION('',(0.,1.,0.));
#1381=DIRECTION('',(1.,9.22725253179151E-16,0.));
#1382=DIRECTION('',(0.,1.,0.));
#1383=DIRECTION('',(-1.,0.,0.));
#1384=DIRECTION('',(0.,1.,0.));
#1385=DIRECTION('',(-1.,0.,0.));
#1386=DIRECTION('',(1.,0.,0.));
#1387=DIRECTION('',(0.,0.,1.));
#1388=DIRECTION('',(0.,0.,1.));
#1389=DIRECTION('',(1.,0.,0.));
#1390=DIRECTION('',(0.,1.,0.));
#1391=DIRECTION('',(9.63735264431559E-17,-1.,0.));
#1392=DIRECTION('',(0.,1.,0.));
#1393=DIRECTION('',(0.,0.,1.));
#1394=DIRECTION('',(1.,0.,0.));
#1395=DIRECTION('',(-1.,1.97127667724637E-16,0.));
#1396=DIRECTION('',(0.,0.,1.));
#1397=DIRECTION('',(1.,0.,0.));
#1398=DIRECTION('',(0.,1.,0.));
#1399=DIRECTION('',(1.,0.,0.));
#1400=DIRECTION('',(1.,0.,0.));
#1401=DIRECTION('',(0.,1.,0.));
#1402=DIRECTION('',(0.,0.,1.));
#1403=DIRECTION('',(1.,0.,0.));
#1404=DIRECTION('',(1.,6.57092225748791E-17,0.));
#1405=DIRECTION('',(0.,0.,1.));
#1406=DIRECTION('',(1.,0.,0.));
#1407=DIRECTION('',(0.,1.,0.));
#1408=DIRECTION('',(0.,-0.894427190999916,0.447213595499957));
#1409=DIRECTION('',(1.,6.57092225748791E-17,0.));
#1410=DIRECTION('',(0.,-0.894427190999916,0.447213595499957));
#1411=DIRECTION('',(0.,0.,-1.));
#1412=DIRECTION('',(0.,0.,1.));
#1413=DIRECTION('',(0.,0.,-1.));
#1414=DIRECTION('',(0.,1.,0.));
#1415=DIRECTION('',(0.,0.,-1.));
#1416=DIRECTION('',(0.,0.,1.));
#1417=DIRECTION('',(0.,0.,1.));
#1418=DIRECTION('',(0.,0.,1.));
#1419=DIRECTION('',(0.,0.,1.));
#1420=DIRECTION('',(1.,0.,0.));
#1421=DIRECTION('',(0.,0.,1.));
#1422=DIRECTION('',(0.,0.,1.));
#1423=DIRECTION('',(0.,0.,1.));
#1424=DIRECTION('',(0.,1.,0.));
#1425=DIRECTION('',(0.,0.,1.));
#1426=DIRECTION('',(1.,0.,0.));
#1427=DIRECTION('',(0.,0.,1.));
#1428=DIRECTION('',(1.,0.,0.));
#1429=DIRECTION('',(0.,0.,1.));
#1430=DIRECTION('',(1.,0.,0.));
#1431=DIRECTION('',(-0.894427190999916,0.,-0.447213595499959));
#1432=DIRECTION('',(0.894427190999916,1.0953573965284E-16,-0.447213595499959));
#1433=DIRECTION('',(0.894427190999916,0.,0.447213595499958));
#1434=DIRECTION('',(0.894427190999916,0.,-0.447213595499957));
#1435=CARTESIAN_POINT('',(0.,0.,0.));
#1436=CARTESIAN_POINT('',(0.00185,0.00165,0.000215));
#1437=CARTESIAN_POINT('',(0.00185,0.00165,-0.000115));
#1438=CARTESIAN_POINT('',(0.00185,-0.00165,0.000215));
#1439=CARTESIAN_POINT('',(0.00185,-0.00165,-0.000115));
#1440=CARTESIAN_POINT('',(0.00185,0.0015,0.0002));
#1441=CARTESIAN_POINT('',(0.00185,0.0015,0.0002));
#1442=CARTESIAN_POINT('',(0.00185,-0.0015,0.0002));
#1443=CARTESIAN_POINT('',(0.00185,0.0015,-0.0001));
#1444=CARTESIAN_POINT('',(0.00185,0.0015,-0.0001));
#1445=CARTESIAN_POINT('',(0.00185,0.0015,-0.0001));
#1446=CARTESIAN_POINT('',(0.00185,-0.0015,-0.0001));
#1447=CARTESIAN_POINT('',(0.00185,-0.0015,-0.0001));
#1448=CARTESIAN_POINT('',(-0.004015,-0.0015,0.00158));
#1449=CARTESIAN_POINT('',(-0.004015,-0.0015,-0.00018));
#1450=CARTESIAN_POINT('',(0.004015,-0.0015,0.00158));
#1451=CARTESIAN_POINT('',(0.004015,-0.0015,-0.00018));
#1452=CARTESIAN_POINT('',(0.00185,-0.0015,-0.0001));
#1453=CARTESIAN_POINT('',(0.0033,-0.0015,-0.0001));
#1454=CARTESIAN_POINT('',(0.0033,-0.0015,0.00025));
#1455=CARTESIAN_POINT('',(0.00365,-0.0015,0.00025));
#1456=CARTESIAN_POINT('',(0.00365,-0.0015,-0.0001));
#1457=CARTESIAN_POINT('',(0.00365,-0.0015,0.00115));
#1458=CARTESIAN_POINT('',(0.0033,-0.0015,0.00115));
#1459=CARTESIAN_POINT('',(0.0033,-0.0015,0.0015));
#1460=CARTESIAN_POINT('',(0.00185,-0.0015,0.0015));
#1461=CARTESIAN_POINT('',(-0.0033,-0.0015,0.0015));
#1462=CARTESIAN_POINT('',(-0.0033,-0.0015,0.00115));
#1463=CARTESIAN_POINT('',(-0.00365,-0.0015,0.00115));
#1464=CARTESIAN_POINT('',(-0.00365,-0.0015,-0.0001));
#1465=CARTESIAN_POINT('',(-0.00365,-0.0015,0.00025));
#1466=CARTESIAN_POINT('',(-0.0033,-0.0015,0.00025));
#1467=CARTESIAN_POINT('',(-0.0033,-0.0015,-0.0001));
#1468=CARTESIAN_POINT('',(0.00185,-0.0015,-0.0001));
#1469=CARTESIAN_POINT('',(-0.00185,-0.0015,-0.0001));
#1470=CARTESIAN_POINT('',(-0.00185,-0.0015,-0.0001));
#1471=CARTESIAN_POINT('',(-0.00185,-0.0015,0.0002));
#1472=CARTESIAN_POINT('',(-0.0033,-0.0015,0.0002));
#1473=CARTESIAN_POINT('',(-0.0033,-0.0015,0.0002));
#1474=CARTESIAN_POINT('',(-0.0033,-0.0015,0.00025));
#1475=CARTESIAN_POINT('',(-0.00335,-0.0015,0.00025));
#1476=CARTESIAN_POINT('',(-0.00335,-0.0015,0.00115));
#1477=CARTESIAN_POINT('',(-0.00335,-0.0015,0.00115));
#1478=CARTESIAN_POINT('',(-0.0033,-0.0015,0.00115));
#1479=CARTESIAN_POINT('',(-0.0033,-0.0015,0.0012));
#1480=CARTESIAN_POINT('',(-0.0033,-0.0015,0.0012));
#1481=CARTESIAN_POINT('',(0.0033,-0.0015,0.0012));
#1482=CARTESIAN_POINT('',(0.0033,-0.0015,0.00115));
#1483=CARTESIAN_POINT('',(0.00335,-0.0015,0.00115));
#1484=CARTESIAN_POINT('',(0.00335,-0.0015,0.00025));
#1485=CARTESIAN_POINT('',(0.00335,-0.0015,0.00025));
#1486=CARTESIAN_POINT('',(0.0033,-0.0015,0.00025));
#1487=CARTESIAN_POINT('',(0.0033,-0.0015,0.0002));
#1488=CARTESIAN_POINT('',(0.00185,-0.0015,0.0002));
#1489=CARTESIAN_POINT('',(-0.004015,0.0015,0.00158));
#1490=CARTESIAN_POINT('',(-0.004015,0.0015,-0.00018));
#1491=CARTESIAN_POINT('',(0.004015,0.0015,0.00158));
#1492=CARTESIAN_POINT('',(0.004015,0.0015,-0.00018));
#1493=CARTESIAN_POINT('',(-0.0033,0.0015,0.0002));
#1494=CARTESIAN_POINT('',(0.0033,0.0015,0.0002));
#1495=CARTESIAN_POINT('',(0.0033,0.0015,0.00025));
#1496=CARTESIAN_POINT('',(0.00335,0.0015,0.00025));
#1497=CARTESIAN_POINT('',(0.00335,0.0015,-0.0001));
#1498=CARTESIAN_POINT('',(0.00335,0.0015,0.00115));
#1499=CARTESIAN_POINT('',(0.0033,0.0015,0.00115));
#1500=CARTESIAN_POINT('',(0.0033,0.0015,0.0012));
#1501=CARTESIAN_POINT('',(-0.0033,0.0015,0.0012));
#1502=CARTESIAN_POINT('',(-0.0033,0.0015,0.0012));
#1503=CARTESIAN_POINT('',(-0.0033,0.0015,0.00115));
#1504=CARTESIAN_POINT('',(-0.00335,0.0015,0.00115));
#1505=CARTESIAN_POINT('',(-0.00335,0.0015,-0.0001));
#1506=CARTESIAN_POINT('',(-0.00335,0.0015,0.00025));
#1507=CARTESIAN_POINT('',(-0.0033,0.0015,0.00025));
#1508=CARTESIAN_POINT('',(-0.0033,0.0015,0.0002));
#1509=CARTESIAN_POINT('',(-0.0033,0.0015,0.0002));
#1510=CARTESIAN_POINT('',(-0.00185,0.0015,0.0002));
#1511=CARTESIAN_POINT('',(-0.00185,0.0015,-0.0001));
#1512=CARTESIAN_POINT('',(-0.00185,0.0015,-0.0001));
#1513=CARTESIAN_POINT('',(-0.0033,0.0015,-0.0001));
#1514=CARTESIAN_POINT('',(-0.0033,0.0015,-0.0001));
#1515=CARTESIAN_POINT('',(-0.0033,0.0015,0.00025));
#1516=CARTESIAN_POINT('',(-0.00365,0.0015,0.00025));
#1517=CARTESIAN_POINT('',(-0.00365,0.0015,0.00115));
#1518=CARTESIAN_POINT('',(-0.00365,0.0015,0.00115));
#1519=CARTESIAN_POINT('',(-0.0033,0.0015,0.00115));
#1520=CARTESIAN_POINT('',(-0.0033,0.0015,0.0015));
#1521=CARTESIAN_POINT('',(-0.0033,0.0015,0.0015));
#1522=CARTESIAN_POINT('',(0.0033,0.0015,0.0015));
#1523=CARTESIAN_POINT('',(0.0033,0.0015,0.00115));
#1524=CARTESIAN_POINT('',(0.00365,0.0015,0.00115));
#1525=CARTESIAN_POINT('',(0.00365,0.0015,0.00025));
#1526=CARTESIAN_POINT('',(0.00365,0.0015,0.00025));
#1527=CARTESIAN_POINT('',(0.0033,0.0015,0.00025));
#1528=CARTESIAN_POINT('',(0.0033,0.0015,-0.0001));
#1529=CARTESIAN_POINT('',(0.00185,0.0015,-0.0001));
#1530=CARTESIAN_POINT('',(0.00365,-0.00165,0.001195));
#1531=CARTESIAN_POINT('',(0.00365,0.00165,0.001195));
#1532=CARTESIAN_POINT('',(0.00365,-0.00165,0.000205));
#1533=CARTESIAN_POINT('',(0.00365,0.00165,0.000205));
#1534=CARTESIAN_POINT('',(0.00365,-0.0015,0.00025));
#1535=CARTESIAN_POINT('',(0.00365,0.0015,0.00115));
#1536=CARTESIAN_POINT('',(0.003234416539895,0.00165,-9.3800537755041E-5));
#1537=CARTESIAN_POINT('',(0.003234416539895,-0.00165,-9.3800537755041E-5));
#1538=CARTESIAN_POINT('',(0.00350214575224496,0.00165,-0.000144872616442738));
#1539=CARTESIAN_POINT('',(0.00350214575224496,-0.00165,-0.000144872616442738));
#1540=CARTESIAN_POINT('',(0.00369487261644274,0.00165,4.78542477550373E-5));
#1541=CARTESIAN_POINT('',(0.00369487261644274,-0.00165,4.78542477550373E-5));
#1542=CARTESIAN_POINT('',(0.00364380053775504,0.00165,0.000315583460105004));
#1543=CARTESIAN_POINT('',(0.00364380053775504,-0.00165,0.000315583460105004));
#1544=CARTESIAN_POINT('',(0.0033,0.0015,-0.0001));
#1545=CARTESIAN_POINT('',(0.0033725,-0.00165,-0.0001));
#1546=CARTESIAN_POINT('',(0.0033725,0.00165,-0.0001));
#1547=CARTESIAN_POINT('',(0.0017775,-0.00165,-0.0001));
#1548=CARTESIAN_POINT('',(0.0017775,0.00165,-0.0001));
#1549=CARTESIAN_POINT('',(0.0033725,-0.00165,0.0002));
#1550=CARTESIAN_POINT('',(0.0033725,0.00165,0.0002));
#1551=CARTESIAN_POINT('',(0.0017775,-0.00165,0.0002));
#1552=CARTESIAN_POINT('',(0.0017775,0.00165,0.0002));
#1553=CARTESIAN_POINT('',(0.0033,-0.0015,0.0002));
#1554=CARTESIAN_POINT('',(0.00329063093427071,0.00165,0.000200885637463566));
#1555=CARTESIAN_POINT('',(0.00329063093427071,-0.00165,0.000200885637463566));
#1556=CARTESIAN_POINT('',(0.00332887796460642,0.00165,0.000193589626222466));
#1557=CARTESIAN_POINT('',(0.00332887796460642,-0.00165,0.000193589626222466));
#1558=CARTESIAN_POINT('',(0.00335641037377753,0.00165,0.000221122035393577));
#1559=CARTESIAN_POINT('',(0.00335641037377753,-0.00165,0.000221122035393577));
#1560=CARTESIAN_POINT('',(0.00334911436253643,0.00165,0.000259369065729286));
#1561=CARTESIAN_POINT('',(0.00334911436253643,-0.00165,0.000259369065729286));
#1562=CARTESIAN_POINT('',(0.00335,0.0015,0.00025));
#1563=CARTESIAN_POINT('',(-0.00363,-0.00165,0.0012));
#1564=CARTESIAN_POINT('',(-0.00363,0.00165,0.0012));
#1565=CARTESIAN_POINT('',(0.00363,-0.00165,0.0012));
#1566=CARTESIAN_POINT('',(0.00363,0.00165,0.0012));
#1567=CARTESIAN_POINT('',(-0.0033,0.0015,0.0012));
#1568=CARTESIAN_POINT('',(0.0033,0.0015,0.0012));
#1569=CARTESIAN_POINT('',(0.00334911436253643,0.00165,0.00114063093427071));
#1570=CARTESIAN_POINT('',(0.00334911436253643,-0.00165,0.00114063093427071));
#1571=CARTESIAN_POINT('',(0.00335641037377753,0.00165,0.00117887796460642));
#1572=CARTESIAN_POINT('',(0.00335641037377753,-0.00165,0.00117887796460642));
#1573=CARTESIAN_POINT('',(0.00332887796460642,0.00165,0.00120641037377753));
#1574=CARTESIAN_POINT('',(0.00332887796460642,-0.00165,0.00120641037377753));
#1575=CARTESIAN_POINT('',(0.00329063093427071,0.00165,0.00119911436253643));
#1576=CARTESIAN_POINT('',(0.00329063093427071,-0.00165,0.00119911436253643));
#1577=CARTESIAN_POINT('',(0.00335,-0.0015,0.00115));
#1578=CARTESIAN_POINT('',(0.00335,-0.00165,0.001195));
#1579=CARTESIAN_POINT('',(0.00335,0.00165,0.001195));
#1580=CARTESIAN_POINT('',(0.00335,-0.00165,0.000205));
#1581=CARTESIAN_POINT('',(0.00335,0.00165,0.000205));
#1582=CARTESIAN_POINT('',(0.00364380053775504,0.00165,0.001084416539895));
#1583=CARTESIAN_POINT('',(0.00364380053775504,-0.00165,0.001084416539895));
#1584=CARTESIAN_POINT('',(0.00369487261644274,0.00165,0.00135214575224496));
#1585=CARTESIAN_POINT('',(0.00369487261644274,-0.00165,0.00135214575224496));
#1586=CARTESIAN_POINT('',(0.00350214575224496,0.00165,0.00154487261644274));
#1587=CARTESIAN_POINT('',(0.00350214575224496,-0.00165,0.00154487261644274));
#1588=CARTESIAN_POINT('',(0.003234416539895,0.00165,0.00149380053775504));
#1589=CARTESIAN_POINT('',(0.003234416539895,-0.00165,0.00149380053775504));
#1590=CARTESIAN_POINT('',(0.0033,-0.0015,0.0015));
#1591=CARTESIAN_POINT('',(-0.00334911436253643,-0.00165,0.00114063093427071));
#1592=CARTESIAN_POINT('',(-0.00334911436253643,0.00165,0.00114063093427071));
#1593=CARTESIAN_POINT('',(-0.00335641037377753,-0.00165,0.00117887796460642));
#1594=CARTESIAN_POINT('',(-0.00335641037377753,0.00165,0.00117887796460642));
#1595=CARTESIAN_POINT('',(-0.00332887796460642,-0.00165,0.00120641037377753));
#1596=CARTESIAN_POINT('',(-0.00332887796460642,0.00165,0.00120641037377753));
#1597=CARTESIAN_POINT('',(-0.00329063093427071,-0.00165,0.00119911436253643));
#1598=CARTESIAN_POINT('',(-0.00329063093427071,0.00165,0.00119911436253643));
#1599=CARTESIAN_POINT('',(-0.00335,0.0015,0.00115));
#1600=CARTESIAN_POINT('',(-0.00335,-0.00165,0.000205));
#1601=CARTESIAN_POINT('',(-0.00335,0.00165,0.000205));
#1602=CARTESIAN_POINT('',(-0.00335,-0.00165,0.001195));
#1603=CARTESIAN_POINT('',(-0.00335,0.00165,0.001195));
#1604=CARTESIAN_POINT('',(-0.00335,0.0015,0.00025));
#1605=CARTESIAN_POINT('',(-0.00329063093427071,-0.00165,0.000200885637463566));
#1606=CARTESIAN_POINT('',(-0.00329063093427071,0.00165,0.000200885637463566));
#1607=CARTESIAN_POINT('',(-0.00332887796460642,-0.00165,0.000193589626222466));
#1608=CARTESIAN_POINT('',(-0.00332887796460642,0.00165,0.000193589626222466));
#1609=CARTESIAN_POINT('',(-0.00335641037377753,-0.00165,0.000221122035393577));
#1610=CARTESIAN_POINT('',(-0.00335641037377753,0.00165,0.000221122035393577));
#1611=CARTESIAN_POINT('',(-0.00334911436253643,-0.00165,0.000259369065729286));
#1612=CARTESIAN_POINT('',(-0.00334911436253643,0.00165,0.000259369065729286));
#1613=CARTESIAN_POINT('',(-0.0033,0.0015,0.0002));
#1614=CARTESIAN_POINT('',(-0.0017775,-0.00165,0.0002));
#1615=CARTESIAN_POINT('',(-0.0017775,0.00165,0.0002));
#1616=CARTESIAN_POINT('',(-0.0033725,-0.00165,0.0002));
#1617=CARTESIAN_POINT('',(-0.0033725,0.00165,0.0002));
#1618=CARTESIAN_POINT('',(-0.00185,0.0015,0.0002));
#1619=CARTESIAN_POINT('',(-0.00185,0.00165,0.000215));
#1620=CARTESIAN_POINT('',(-0.00185,0.00165,-0.000115));
#1621=CARTESIAN_POINT('',(-0.00185,-0.00165,0.000215));
#1622=CARTESIAN_POINT('',(-0.00185,-0.00165,-0.000115));
#1623=CARTESIAN_POINT('',(-0.00185,0.0015,-0.0001));
#1624=CARTESIAN_POINT('',(-0.0017775,-0.00165,-0.0001));
#1625=CARTESIAN_POINT('',(-0.0017775,0.00165,-0.0001));
#1626=CARTESIAN_POINT('',(-0.0033725,-0.00165,-0.0001));
#1627=CARTESIAN_POINT('',(-0.0033725,0.00165,-0.0001));
#1628=CARTESIAN_POINT('',(-0.0033,0.0015,-0.0001));
#1629=CARTESIAN_POINT('',(-0.003234416539895,-0.00165,-9.3800537755041E-5));
#1630=CARTESIAN_POINT('',(-0.003234416539895,0.00165,-9.3800537755041E-5));
#1631=CARTESIAN_POINT('',(-0.00350214575224496,-0.00165,-0.000144872616442738));
#1632=CARTESIAN_POINT('',(-0.00350214575224496,0.00165,-0.000144872616442738));
#1633=CARTESIAN_POINT('',(-0.00369487261644274,-0.00165,4.78542477550372E-5));
#1634=CARTESIAN_POINT('',(-0.00369487261644274,0.00165,4.78542477550372E-5));
#1635=CARTESIAN_POINT('',(-0.00364380053775504,-0.00165,0.000315583460105003));
#1636=CARTESIAN_POINT('',(-0.00364380053775504,0.00165,0.000315583460105003));
#1637=CARTESIAN_POINT('',(-0.00365,0.0015,0.00025));
#1638=CARTESIAN_POINT('',(-0.00365,-0.00165,0.000205));
#1639=CARTESIAN_POINT('',(-0.00365,0.00165,0.000205));
#1640=CARTESIAN_POINT('',(-0.00365,-0.00165,0.001195));
#1641=CARTESIAN_POINT('',(-0.00365,0.00165,0.001195));
#1642=CARTESIAN_POINT('',(-0.00365,0.0015,0.00115));
#1643=CARTESIAN_POINT('',(-0.00364380053775504,-0.00165,0.001084416539895));
#1644=CARTESIAN_POINT('',(-0.00364380053775504,0.00165,0.001084416539895));
#1645=CARTESIAN_POINT('',(-0.00369487261644274,-0.00165,0.00135214575224496));
#1646=CARTESIAN_POINT('',(-0.00369487261644274,0.00165,0.00135214575224496));
#1647=CARTESIAN_POINT('',(-0.00350214575224496,-0.00165,0.00154487261644274));
#1648=CARTESIAN_POINT('',(-0.00350214575224496,0.00165,0.00154487261644274));
#1649=CARTESIAN_POINT('',(-0.003234416539895,-0.00165,0.00149380053775504));
#1650=CARTESIAN_POINT('',(-0.003234416539895,0.00165,0.00149380053775504));
#1651=CARTESIAN_POINT('',(-0.0033,0.0015,0.0015));
#1652=CARTESIAN_POINT('',(-0.00363,-0.00165,0.0015));
#1653=CARTESIAN_POINT('',(-0.00363,0.00165,0.0015));
#1654=CARTESIAN_POINT('',(0.00363,-0.00165,0.0015));
#1655=CARTESIAN_POINT('',(0.00363,0.00165,0.0015));
#1656=CARTESIAN_POINT('',(0.,0.,0.));
#1657=CARTESIAN_POINT('',(-0.00341,-0.00341,0.0027));
#1658=CARTESIAN_POINT('',(-0.00341,0.00341,0.0027));
#1659=CARTESIAN_POINT('',(0.00341,-0.00341,0.0027));
#1660=CARTESIAN_POINT('',(0.00341,0.00341,0.0027));
#1661=CARTESIAN_POINT('',(0.0023,0.0023,0.0027));
#1662=CARTESIAN_POINT('',(0.0031,0.0023,0.0027));
#1663=CARTESIAN_POINT('',(0.0023,0.0031,0.0027));
#1664=CARTESIAN_POINT('',(0.0033,0.0031,0.0027));
#1665=CARTESIAN_POINT('',(-0.0023,0.0031,0.0027));
#1666=CARTESIAN_POINT('',(-0.0023,0.0023,0.0027));
#1667=CARTESIAN_POINT('',(-0.0031,0.0023,0.0027));
#1668=CARTESIAN_POINT('',(-0.0031,0.0033,0.0027));
#1669=CARTESIAN_POINT('',(-0.0031,-0.0023,0.0027));
#1670=CARTESIAN_POINT('',(-0.0023,-0.0023,0.0027));
#1671=CARTESIAN_POINT('',(-0.0023,-0.0031,0.0027));
#1672=CARTESIAN_POINT('',(0.0033,-0.0031,0.0027));
#1673=CARTESIAN_POINT('',(0.0023,-0.0031,0.0027));
#1674=CARTESIAN_POINT('',(0.0023,-0.0023,0.0027));
#1675=CARTESIAN_POINT('',(0.0031,-0.0023,0.0027));
#1676=CARTESIAN_POINT('',(0.0031,0.0033,0.0027));
#1677=CARTESIAN_POINT('',(-0.00253000000000001,-0.00309,0.002705));
#1678=CARTESIAN_POINT('',(0.00253,-0.00309,0.002705));
#1679=CARTESIAN_POINT('',(-0.00253000000000001,-0.00331,0.002595));
#1680=CARTESIAN_POINT('',(0.00253,-0.00331,0.002595));
#1681=CARTESIAN_POINT('',(-0.0023,-0.0031,0.0027));
#1682=CARTESIAN_POINT('',(-0.0023,-0.0033,0.0026));
#1683=CARTESIAN_POINT('',(-0.0033,-0.0033,0.0026));
#1684=CARTESIAN_POINT('',(0.0023,-0.0033,0.0026));
#1685=CARTESIAN_POINT('',(0.0023,-0.0031,0.0027));
#1686=CARTESIAN_POINT('',(0.00145,0.00225,0.));
#1687=CARTESIAN_POINT('',(0.00145,0.00225,0.0002));
#1688=CARTESIAN_POINT('',(0.00145,0.00277333571620112,0.));
#1689=CARTESIAN_POINT('',(0.00145,0.00277333571620112,0.0002));
#1690=CARTESIAN_POINT('',(0.000966500843169654,0.0029736076243562,0.));
#1691=CARTESIAN_POINT('',(0.000966500843169654,0.0029736076243562,0.0002));
#1692=CARTESIAN_POINT('',(0.000596446609406726,0.00260355339059327,0.));
#1693=CARTESIAN_POINT('',(0.000596446609406726,0.00260355339059327,0.0002));
#1694=CARTESIAN_POINT('',(0.000226392375643799,0.00223349915683035,0.));
#1695=CARTESIAN_POINT('',(0.000226392375643799,0.00223349915683035,0.0002));
#1696=CARTESIAN_POINT('',(0.000426664283798884,0.00175,0.));
#1697=CARTESIAN_POINT('',(0.000426664283798884,0.00175,0.0002));
#1698=CARTESIAN_POINT('',(0.00095,0.00175,0.));
#1699=CARTESIAN_POINT('',(0.00095,0.00175,0.0002));
#1700=CARTESIAN_POINT('',(0.00095,0.00175,0.0002));
#1701=CARTESIAN_POINT('',(0.00095,0.00175,0.0002));
#1702=CARTESIAN_POINT('',(0.00095,0.00175,0.));
#1703=CARTESIAN_POINT('',(0.00095,0.00225,0.));
#1704=CARTESIAN_POINT('',(0.00145,0.00225,0.));
#1705=CARTESIAN_POINT('',(0.00145,0.00225,0.0002));
#1706=CARTESIAN_POINT('',(0.00145,0.00225,0.0002));
#1707=CARTESIAN_POINT('',(0.00095,0.00225,0.0002));
#1708=CARTESIAN_POINT('',(0.00095,-0.00175,0.));
#1709=CARTESIAN_POINT('',(0.00095,-0.00175,0.0002));
#1710=CARTESIAN_POINT('',(0.000426664283798884,-0.00175,0.));
#1711=CARTESIAN_POINT('',(0.000426664283798884,-0.00175,0.0002));
#1712=CARTESIAN_POINT('',(0.000226392375643799,-0.00223349915683035,0.));
#1713=CARTESIAN_POINT('',(0.000226392375643799,-0.00223349915683035,0.0002));
#1714=CARTESIAN_POINT('',(0.000596446609406726,-0.00260355339059327,0.));
#1715=CARTESIAN_POINT('',(0.000596446609406726,-0.00260355339059327,0.0002));
#1716=CARTESIAN_POINT('',(0.000966500843169654,-0.0029736076243562,0.));
#1717=CARTESIAN_POINT('',(0.000966500843169654,-0.0029736076243562,0.0002));
#1718=CARTESIAN_POINT('',(0.00145,-0.00277333571620112,0.));
#1719=CARTESIAN_POINT('',(0.00145,-0.00277333571620112,0.0002));
#1720=CARTESIAN_POINT('',(0.00145,-0.00225,0.));
#1721=CARTESIAN_POINT('',(0.00145,-0.00225,0.0002));
#1722=CARTESIAN_POINT('',(0.00095,-0.00175,0.0002));
#1723=CARTESIAN_POINT('',(0.00095,-0.00175,0.));
#1724=CARTESIAN_POINT('',(0.00095,-0.00175,0.0002));
#1725=CARTESIAN_POINT('',(0.00095,-0.00225,0.0002));
#1726=CARTESIAN_POINT('',(0.00145,-0.00225,0.0002));
#1727=CARTESIAN_POINT('',(0.00145,-0.00225,0.0002));
#1728=CARTESIAN_POINT('',(0.00145,-0.00225,0.));
#1729=CARTESIAN_POINT('',(0.00095,-0.00225,0.));
#1730=CARTESIAN_POINT('',(-0.00145,-0.00225,0.));
#1731=CARTESIAN_POINT('',(-0.00145,-0.00225,0.0002));
#1732=CARTESIAN_POINT('',(-0.00145,-0.00277333571620112,0.));
#1733=CARTESIAN_POINT('',(-0.00145,-0.00277333571620112,0.0002));
#1734=CARTESIAN_POINT('',(-0.000966500843169654,-0.0029736076243562,0.));
#1735=CARTESIAN_POINT('',(-0.000966500843169654,-0.0029736076243562,0.0002));
#1736=CARTESIAN_POINT('',(-0.000596446609406726,-0.00260355339059327,0.));
#1737=CARTESIAN_POINT('',(-0.000596446609406726,-0.00260355339059327,0.0002));
#1738=CARTESIAN_POINT('',(-0.000226392375643799,-0.00223349915683035,0.));
#1739=CARTESIAN_POINT('',(-0.000226392375643799,-0.00223349915683035,0.0002));
#1740=CARTESIAN_POINT('',(-0.000426664283798884,-0.00175,0.));
#1741=CARTESIAN_POINT('',(-0.000426664283798884,-0.00175,0.0002));
#1742=CARTESIAN_POINT('',(-0.00095,-0.00175,0.));
#1743=CARTESIAN_POINT('',(-0.00095,-0.00175,0.0002));
#1744=CARTESIAN_POINT('',(-0.00095,-0.00225,0.));
#1745=CARTESIAN_POINT('',(-0.00145,-0.00225,0.));
#1746=CARTESIAN_POINT('',(-0.00045,-0.00225,0.));
#1747=CARTESIAN_POINT('',(-0.00145,-0.00225,-0.00951648084442099));
#1748=CARTESIAN_POINT('',(-0.00145,-0.00225,0.0002));
#1749=CARTESIAN_POINT('',(-0.00095,-0.00225,0.0002));
#1750=CARTESIAN_POINT('',(-0.00045,-0.00225,0.0002));
#1751=CARTESIAN_POINT('',(-0.00095,-0.00225,0.0002));
#1752=CARTESIAN_POINT('',(-0.00095,-0.00175,0.0002));
#1753=CARTESIAN_POINT('',(-0.00095,-0.00175,-0.00951648084442099));
#1754=CARTESIAN_POINT('',(-0.00095,-0.00175,0.));
#1755=CARTESIAN_POINT('',(-0.00095,-0.00225,0.));
#1756=CARTESIAN_POINT('',(-0.00095,0.00175,0.));
#1757=CARTESIAN_POINT('',(-0.00095,0.00175,0.0002));
#1758=CARTESIAN_POINT('',(-0.000426664283798884,0.00175,0.));
#1759=CARTESIAN_POINT('',(-0.000426664283798884,0.00175,0.0002));
#1760=CARTESIAN_POINT('',(-0.000226392375643799,0.00223349915683035,0.));
#1761=CARTESIAN_POINT('',(-0.000226392375643799,0.00223349915683035,0.0002));
#1762=CARTESIAN_POINT('',(-0.000596446609406726,0.00260355339059327,0.));
#1763=CARTESIAN_POINT('',(-0.000596446609406726,0.00260355339059327,0.0002));
#1764=CARTESIAN_POINT('',(-0.000966500843169654,0.0029736076243562,0.));
#1765=CARTESIAN_POINT('',(-0.000966500843169654,0.0029736076243562,0.0002));
#1766=CARTESIAN_POINT('',(-0.00145,0.00277333571620112,0.));
#1767=CARTESIAN_POINT('',(-0.00145,0.00277333571620112,0.0002));
#1768=CARTESIAN_POINT('',(-0.00145,0.00225,0.));
#1769=CARTESIAN_POINT('',(-0.00145,0.00225,0.0002));
#1770=CARTESIAN_POINT('',(-0.00095,0.00225,0.0002));
#1771=CARTESIAN_POINT('',(-0.00095,0.00175,0.0002));
#1772=CARTESIAN_POINT('',(-0.00045,0.00225,0.0002));
#1773=CARTESIAN_POINT('',(-0.00095,0.00225,0.0002));
#1774=CARTESIAN_POINT('',(-0.00145,0.00225,0.0002));
#1775=CARTESIAN_POINT('',(-0.00145,0.00225,-0.00951648084442099));
#1776=CARTESIAN_POINT('',(-0.00145,0.00225,0.));
#1777=CARTESIAN_POINT('',(-0.00095,0.00225,0.));
#1778=CARTESIAN_POINT('',(-0.00045,0.00225,0.));
#1779=CARTESIAN_POINT('',(-0.00095,0.00225,0.));
#1780=CARTESIAN_POINT('',(-0.00095,0.00175,0.));
#1781=CARTESIAN_POINT('',(-0.00095,0.00175,-0.00951648084442099));
#1782=CARTESIAN_POINT('',(0.000429868816134387,-0.00278604150677385,0.0002));
#1783=CARTESIAN_POINT('',(0.000429868816134387,0.00278474888624544,0.0002));
#1784=CARTESIAN_POINT('',(0.0033,-0.00278604150677385,0.0002));
#1785=CARTESIAN_POINT('',(0.0033,0.00278474888624544,0.0002));
#1786=CARTESIAN_POINT('',(0.00095,0.00225,0.0002));
#1787=CARTESIAN_POINT('',(0.0033,0.00225,0.0002));
#1788=CARTESIAN_POINT('',(0.0033,0.00225,0.0002));
#1789=CARTESIAN_POINT('',(0.0033,-0.0033,0.0002));
#1790=CARTESIAN_POINT('',(0.0033,-0.00225,0.0002));
#1791=CARTESIAN_POINT('',(0.00095,-0.00225,0.0002));
#1792=CARTESIAN_POINT('',(-0.000429868816134387,-0.00278474888624544,0.0002));
#1793=CARTESIAN_POINT('',(-0.000429868816134387,0.00278604150677385,0.0002));
#1794=CARTESIAN_POINT('',(-0.0033,-0.00278474888624544,0.0002));
#1795=CARTESIAN_POINT('',(-0.0033,0.00278604150677385,0.0002));
#1796=CARTESIAN_POINT('',(-0.00095,-0.00225,0.0002));
#1797=CARTESIAN_POINT('',(-0.00095,-0.00225,0.0002));
#1798=CARTESIAN_POINT('',(-0.0033,-0.00225,0.0002));
#1799=CARTESIAN_POINT('',(-0.0033,-0.00225,0.0002));
#1800=CARTESIAN_POINT('',(-0.0033,0.00225,0.0002));
#1801=CARTESIAN_POINT('',(-0.00095,0.00225,0.0002));
#1802=CARTESIAN_POINT('',(0.0033925,0.00225,-9.99999999999959E-6));
#1803=CARTESIAN_POINT('',(0.0033925,0.00225,0.00021));
#1804=CARTESIAN_POINT('',(0.0013575,0.00225,-9.99999999999959E-6));
#1805=CARTESIAN_POINT('',(0.0013575,0.00225,0.00021));
#1806=CARTESIAN_POINT('',(0.0033,0.00225,0.));
#1807=CARTESIAN_POINT('',(0.0033,0.00225,0.));
#1808=CARTESIAN_POINT('',(0.0033,0.00225,0.0027));
#1809=CARTESIAN_POINT('',(0.0013575,-0.00225,-9.99999999999959E-6));
#1810=CARTESIAN_POINT('',(0.0013575,-0.00225,0.00021));
#1811=CARTESIAN_POINT('',(0.0033925,-0.00225,-9.99999999999959E-6));
#1812=CARTESIAN_POINT('',(0.0033925,-0.00225,0.00021));
#1813=CARTESIAN_POINT('',(0.0033,-0.00225,0.0027));
#1814=CARTESIAN_POINT('',(0.0033,-0.00225,0.));
#1815=CARTESIAN_POINT('',(0.0033,-0.00225,0.));
#1816=CARTESIAN_POINT('',(0.00095,0.001925,-9.99999999999959E-6));
#1817=CARTESIAN_POINT('',(0.00095,0.001925,0.00021));
#1818=CARTESIAN_POINT('',(0.000950000000000001,-0.001925,-9.99999999999959E-6));
#1819=CARTESIAN_POINT('',(0.000950000000000001,-0.001925,0.00021));
#1820=CARTESIAN_POINT('',(0.00095,0.0033,0.));
#1821=CARTESIAN_POINT('',(-0.00095,0.001925,-9.99999999999959E-6));
#1822=CARTESIAN_POINT('',(-0.00095,0.001925,0.00021));
#1823=CARTESIAN_POINT('',(-0.00095,-0.001925,-9.99999999999959E-6));
#1824=CARTESIAN_POINT('',(-0.00095,-0.001925,0.00021));
#1825=CARTESIAN_POINT('',(-0.00095,0.00225,0.));
#1826=CARTESIAN_POINT('',(-0.00363,-0.00363,0.));
#1827=CARTESIAN_POINT('',(-0.00363,0.00363,0.));
#1828=CARTESIAN_POINT('',(0.00363,-0.00363,0.));
#1829=CARTESIAN_POINT('',(0.00363,0.00363,0.));
#1830=CARTESIAN_POINT('',(0.0033,-0.0033,0.));
#1831=CARTESIAN_POINT('',(0.0033,-0.0023,0.));
#1832=CARTESIAN_POINT('',(0.0023,-0.0023,0.));
#1833=CARTESIAN_POINT('',(0.0023,-0.0033,0.));
#1834=CARTESIAN_POINT('',(-0.0033,-0.0033,0.));
#1835=CARTESIAN_POINT('',(-0.0023,-0.0033,0.));
#1836=CARTESIAN_POINT('',(-0.0023,-0.0023,0.));
#1837=CARTESIAN_POINT('',(-0.0033,-0.0023,0.));
#1838=CARTESIAN_POINT('',(-0.0033,0.0033,0.));
#1839=CARTESIAN_POINT('',(-0.0033,-0.00225,0.));
#1840=CARTESIAN_POINT('',(-0.00095,-0.00225,0.));
#1841=CARTESIAN_POINT('',(-0.0033,0.00225,0.));
#1842=CARTESIAN_POINT('',(-0.0033,0.00225,0.));
#1843=CARTESIAN_POINT('',(-0.0033,0.0033,0.));
#1844=CARTESIAN_POINT('',(-0.0033,0.0023,0.));
#1845=CARTESIAN_POINT('',(-0.0023,0.0023,0.));
#1846=CARTESIAN_POINT('',(-0.0023,0.0033,0.));
#1847=CARTESIAN_POINT('',(0.0033,0.0033,0.));
#1848=CARTESIAN_POINT('',(0.0023,0.0033,0.));
#1849=CARTESIAN_POINT('',(0.0023,0.0023,0.));
#1850=CARTESIAN_POINT('',(0.0033,0.0023,0.));
#1851=CARTESIAN_POINT('',(0.0033,-0.0033,0.));
#1852=CARTESIAN_POINT('',(-0.00252999999999999,0.00331,0.002595));
#1853=CARTESIAN_POINT('',(0.00253,0.00331,0.002595));
#1854=CARTESIAN_POINT('',(-0.00252999999999999,0.00309,0.002705));
#1855=CARTESIAN_POINT('',(0.00253,0.00309,0.002705));
#1856=CARTESIAN_POINT('',(0.0023,0.0031,0.0027));
#1857=CARTESIAN_POINT('',(0.0023,0.0033,0.0026));
#1858=CARTESIAN_POINT('',(0.0033,0.0033,0.0026));
#1859=CARTESIAN_POINT('',(-0.0023,0.0033,0.0026));
#1860=CARTESIAN_POINT('',(-0.0023,0.0031,0.0027));
#1861=CARTESIAN_POINT('',(-0.0033925,0.00225,0.00021));
#1862=CARTESIAN_POINT('',(-0.0013575,0.00225,0.00021));
#1863=CARTESIAN_POINT('',(-0.0033925,0.00225,-9.99999999999959E-6));
#1864=CARTESIAN_POINT('',(-0.0013575,0.00225,-9.99999999999959E-6));
#1865=CARTESIAN_POINT('',(-0.0033,0.00225,0.0027));
#1866=CARTESIAN_POINT('',(-0.0033,-0.00253,0.00273));
#1867=CARTESIAN_POINT('',(-0.0033,0.00253,0.00273));
#1868=CARTESIAN_POINT('',(-0.0033,-0.00253,-0.00013));
#1869=CARTESIAN_POINT('',(-0.0033,0.00253,-0.00013));
#1870=CARTESIAN_POINT('',(-0.0033,-0.00225,-0.00951648084442099));
#1871=CARTESIAN_POINT('',(-0.0033,-0.0023,0.0027));
#1872=CARTESIAN_POINT('',(-0.0033,-0.0023,0.0026));
#1873=CARTESIAN_POINT('',(-0.0033,0.0033,0.0026));
#1874=CARTESIAN_POINT('',(-0.0033,0.0023,0.0026));
#1875=CARTESIAN_POINT('',(-0.0033,0.0023,0.0027));
#1876=CARTESIAN_POINT('',(-0.0033925,-0.00225,-9.99999999999959E-6));
#1877=CARTESIAN_POINT('',(-0.0013575,-0.00225,-9.99999999999959E-6));
#1878=CARTESIAN_POINT('',(-0.0033925,-0.00225,0.00021));
#1879=CARTESIAN_POINT('',(-0.0013575,-0.00225,0.00021));
#1880=CARTESIAN_POINT('',(0.00253,-0.0033,-0.00013));
#1881=CARTESIAN_POINT('',(0.00253,-0.0033,0.00273));
#1882=CARTESIAN_POINT('',(-0.00253,-0.0033,-0.00013));
#1883=CARTESIAN_POINT('',(-0.00253,-0.0033,0.00273));
#1884=CARTESIAN_POINT('',(0.0023,-0.0033,0.0027));
#1885=CARTESIAN_POINT('',(-0.0023,-0.0033,0.0027));
#1886=CARTESIAN_POINT('',(0.00211261868541428,-0.00328228725072869,-0.00013));
#1887=CARTESIAN_POINT('',(0.00211261868541428,-0.00328228725072869,0.00273));
#1888=CARTESIAN_POINT('',(0.00287755929212846,-0.00342820747555068,-0.00013));
#1889=CARTESIAN_POINT('',(0.00287755929212846,-0.00342820747555068,0.00273));
#1890=CARTESIAN_POINT('',(0.00342820747555068,-0.00287755929212846,-0.00013));
#1891=CARTESIAN_POINT('',(0.00342820747555068,-0.00287755929212846,0.00273));
#1892=CARTESIAN_POINT('',(0.00328228725072869,-0.00211261868541428,-0.00013));
#1893=CARTESIAN_POINT('',(0.00328228725072869,-0.00211261868541428,0.00273));
#1894=CARTESIAN_POINT('',(0.0033,-0.0023,0.0027));
#1895=CARTESIAN_POINT('',(0.0033,-0.0023,0.0026));
#1896=CARTESIAN_POINT('',(0.0023,-0.0023,0.0026));
#1897=CARTESIAN_POINT('',(-0.00253,0.0033,-0.00013));
#1898=CARTESIAN_POINT('',(-0.00253,0.0033,0.00273));
#1899=CARTESIAN_POINT('',(0.00253,0.0033,-0.00013));
#1900=CARTESIAN_POINT('',(0.00253,0.0033,0.00273));
#1901=CARTESIAN_POINT('',(-0.0023,0.0033,0.0027));
#1902=CARTESIAN_POINT('',(0.0023,0.0033,0.0027));
#1903=CARTESIAN_POINT('',(0.0033,-0.00253,-0.00013));
#1904=CARTESIAN_POINT('',(0.0033,0.00253,-0.00013));
#1905=CARTESIAN_POINT('',(0.0033,-0.00253,0.00273));
#1906=CARTESIAN_POINT('',(0.0033,0.00253,0.00273));
#1907=CARTESIAN_POINT('',(0.0033,0.0023,0.0027));
#1908=CARTESIAN_POINT('',(0.0033,0.0023,0.0026));
#1909=CARTESIAN_POINT('',(0.0033,-0.0033,0.0026));
#1910=CARTESIAN_POINT('',(0.00328228725072869,0.00211261868541428,-0.00013));
#1911=CARTESIAN_POINT('',(0.00328228725072869,0.00211261868541428,0.00273));
#1912=CARTESIAN_POINT('',(0.00342820747555068,0.00287755929212846,-0.00013));
#1913=CARTESIAN_POINT('',(0.00342820747555068,0.00287755929212846,0.00273));
#1914=CARTESIAN_POINT('',(0.00287755929212847,0.00342820747555068,-0.00013));
#1915=CARTESIAN_POINT('',(0.00287755929212847,0.00342820747555068,0.00273));
#1916=CARTESIAN_POINT('',(0.00211261868541428,0.00328228725072869,-0.00013));
#1917=CARTESIAN_POINT('',(0.00211261868541428,0.00328228725072869,0.00273));
#1918=CARTESIAN_POINT('',(0.0023,0.0023,0.0026));
#1919=CARTESIAN_POINT('',(-0.00211261868541428,0.00328228725072869,-0.00013));
#1920=CARTESIAN_POINT('',(-0.00211261868541428,0.00328228725072869,0.00273));
#1921=CARTESIAN_POINT('',(-0.00287755929212846,0.00342820747555068,-0.00013));
#1922=CARTESIAN_POINT('',(-0.00287755929212846,0.00342820747555068,0.00273));
#1923=CARTESIAN_POINT('',(-0.00342820747555068,0.00287755929212847,-0.00013));
#1924=CARTESIAN_POINT('',(-0.00342820747555068,0.00287755929212847,0.00273));
#1925=CARTESIAN_POINT('',(-0.00328228725072869,0.00211261868541428,-0.00013));
#1926=CARTESIAN_POINT('',(-0.00328228725072869,0.00211261868541428,0.00273));
#1927=CARTESIAN_POINT('',(-0.0023,0.0023,0.0026));
#1928=CARTESIAN_POINT('',(-0.00328228725072869,-0.00211261868541428,-0.00013));
#1929=CARTESIAN_POINT('',(-0.00328228725072869,-0.00211261868541428,0.00273));
#1930=CARTESIAN_POINT('',(-0.00342820747555068,-0.00287755929212847,-0.00013));
#1931=CARTESIAN_POINT('',(-0.00342820747555068,-0.00287755929212847,0.00273));
#1932=CARTESIAN_POINT('',(-0.00287755929212847,-0.00342820747555068,-0.00013));
#1933=CARTESIAN_POINT('',(-0.00287755929212847,-0.00342820747555068,0.00273));
#1934=CARTESIAN_POINT('',(-0.00211261868541427,-0.00328228725072869,-0.00013));
#1935=CARTESIAN_POINT('',(-0.00211261868541427,-0.00328228725072869,0.00273));
#1936=CARTESIAN_POINT('',(-0.0023,-0.0023,0.0026));
#1937=CARTESIAN_POINT('',(-0.0033,0.0023,0.0026));
#1938=CARTESIAN_POINT('',(-0.0033,0.0028857864376269,0.0026));
#1939=CARTESIAN_POINT('',(-0.00288578643762691,0.0033,0.0026));
#1940=CARTESIAN_POINT('',(-0.0023,0.0033,0.0026));
#1941=CARTESIAN_POINT('',(-0.0031,0.0023,0.0027));
#1942=CARTESIAN_POINT('',(-0.0031,0.00276862915010152,0.0027));
#1943=CARTESIAN_POINT('',(-0.00276862915010152,0.0031,0.0027));
#1944=CARTESIAN_POINT('',(-0.0023,0.0031,0.0027));
#1945=CARTESIAN_POINT('',(-0.0031,0.0023,0.0027));
#1946=CARTESIAN_POINT('',(0.0023,0.0033,0.0026));
#1947=CARTESIAN_POINT('',(0.0028857864376269,0.0033,0.0026));
#1948=CARTESIAN_POINT('',(0.0033,0.0028857864376269,0.0026));
#1949=CARTESIAN_POINT('',(0.0033,0.0023,0.0026));
#1950=CARTESIAN_POINT('',(0.0023,0.0031,0.0027));
#1951=CARTESIAN_POINT('',(0.00276862915010152,0.0031,0.0027));
#1952=CARTESIAN_POINT('',(0.0031,0.00276862915010152,0.0027));
#1953=CARTESIAN_POINT('',(0.0031,0.0023,0.0027));
#1954=CARTESIAN_POINT('',(0.0031,0.0023,0.0027));
#1955=CARTESIAN_POINT('',(-0.00331,-0.00253000000000001,0.002595));
#1956=CARTESIAN_POINT('',(-0.00331,0.00253,0.002595));
#1957=CARTESIAN_POINT('',(-0.00309,-0.00253000000000001,0.002705));
#1958=CARTESIAN_POINT('',(-0.00309,0.00253,0.002705));
#1959=CARTESIAN_POINT('',(-0.0031,-0.0023,0.0027));
#1960=CARTESIAN_POINT('',(0.00309,-0.00252999999999999,0.002705));
#1961=CARTESIAN_POINT('',(0.00309,0.00253,0.002705));
#1962=CARTESIAN_POINT('',(0.00331,-0.00252999999999999,0.002595));
#1963=CARTESIAN_POINT('',(0.00331,0.00253,0.002595));
#1964=CARTESIAN_POINT('',(0.0031,-0.0023,0.0027));
#1965=CARTESIAN_POINT('',(-0.0023,-0.0033,0.0026));
#1966=CARTESIAN_POINT('',(-0.0028857864376269,-0.0033,0.0026));
#1967=CARTESIAN_POINT('',(-0.0033,-0.00288578643762691,0.0026));
#1968=CARTESIAN_POINT('',(-0.0033,-0.0023,0.0026));
#1969=CARTESIAN_POINT('',(-0.0023,-0.0031,0.0027));
#1970=CARTESIAN_POINT('',(-0.00276862915010152,-0.0031,0.0027));
#1971=CARTESIAN_POINT('',(-0.0031,-0.00276862915010152,0.0027));
#1972=CARTESIAN_POINT('',(-0.0031,-0.0023,0.0027));
#1973=CARTESIAN_POINT('',(0.0033,-0.0023,0.0026));
#1974=CARTESIAN_POINT('',(0.0033,-0.0028857864376269,0.0026));
#1975=CARTESIAN_POINT('',(0.00288578643762691,-0.0033,0.0026));
#1976=CARTESIAN_POINT('',(0.0023,-0.0033,0.0026));
#1977=CARTESIAN_POINT('',(0.0031,-0.0023,0.0027));
#1978=CARTESIAN_POINT('',(0.0031,-0.00276862915010152,0.0027));
#1979=CARTESIAN_POINT('',(0.00276862915010152,-0.0031,0.0027));
#1980=CARTESIAN_POINT('',(0.0023,-0.0031,0.0027));
#1981=MECHANICAL_DESIGN_GEOMETRIC_PRESENTATION_REPRESENTATION('',(#1006),
#1983);
#1982=MECHANICAL_DESIGN_GEOMETRIC_PRESENTATION_REPRESENTATION('',(#1007,
#10,#11,#12,#13,#14,#15,#16,#17,#18,#19,#20,#21,#22,#23,#24,#25,#26,#27,
#28,#29,#30,#31,#32,#33,#34,#35,#36,#37,#38,#39),#1984);
#1983=(
GEOMETRIC_REPRESENTATION_CONTEXT(3)
GLOBAL_UNCERTAINTY_ASSIGNED_CONTEXT((#1985))
GLOBAL_UNIT_ASSIGNED_CONTEXT((#1991,#1989,#1987))
REPRESENTATION_CONTEXT('pin','TOP_LEVEL_ASSEMBLY_PART')
);
#1984=(
GEOMETRIC_REPRESENTATION_CONTEXT(3)
GLOBAL_UNCERTAINTY_ASSIGNED_CONTEXT((#1986))
GLOBAL_UNIT_ASSIGNED_CONTEXT((#1992,#1990,#1988))
REPRESENTATION_CONTEXT('base','TOP_LEVEL_ASSEMBLY_PART')
);
#1985=UNCERTAINTY_MEASURE_WITH_UNIT(LENGTH_MEASURE(1.E-8),#1991,
'DISTANCE_ACCURACY_VALUE','Maximum Tolerance applied to model');
#1986=UNCERTAINTY_MEASURE_WITH_UNIT(LENGTH_MEASURE(1.E-8),#1992,
'DISTANCE_ACCURACY_VALUE','Maximum Tolerance applied to model');
#1987=(
NAMED_UNIT(*)
SI_UNIT($,.STERADIAN.)
SOLID_ANGLE_UNIT()
);
#1988=(
NAMED_UNIT(*)
SI_UNIT($,.STERADIAN.)
SOLID_ANGLE_UNIT()
);
#1989=(
NAMED_UNIT(*)
PLANE_ANGLE_UNIT()
SI_UNIT($,.RADIAN.)
);
#1990=(
NAMED_UNIT(*)
PLANE_ANGLE_UNIT()
SI_UNIT($,.RADIAN.)
);
#1991=(
LENGTH_UNIT()
NAMED_UNIT(*)
SI_UNIT($,.METRE.)
);
#1992=(
LENGTH_UNIT()
NAMED_UNIT(*)
SI_UNIT($,.METRE.)
);
#1993=PRODUCT_DEFINITION_SHAPE('','',#1995);
#1994=PRODUCT_DEFINITION_SHAPE('','',#1996);
#1995=PRODUCT_DEFINITION('','',#1999,#1997);
#1996=PRODUCT_DEFINITION('','',#2000,#1998);
#1997=PRODUCT_DEFINITION_CONTEXT('',#2011,'design');
#1998=PRODUCT_DEFINITION_CONTEXT('',#2012,'design');
#1999=PRODUCT_DEFINITION_FORMATION_WITH_SPECIFIED_SOURCE('','',#2003,
 .NOT_KNOWN.);
#2000=PRODUCT_DEFINITION_FORMATION_WITH_SPECIFIED_SOURCE('','',#2004,
 .NOT_KNOWN.);
#2001=PRODUCT_RELATED_PRODUCT_CATEGORY('','',(#2003));
#2002=PRODUCT_RELATED_PRODUCT_CATEGORY('','',(#2004));
#2003=PRODUCT('pin','pin','pin',(#2007));
#2004=PRODUCT('base','base','base',(#2008));
#2005=PRODUCT_CATEGORY('','');
#2006=PRODUCT_CATEGORY('','');
#2007=PRODUCT_CONTEXT('',#2011,'mechanical');
#2008=PRODUCT_CONTEXT('',#2012,'mechanical');
#2009=APPLICATION_PROTOCOL_DEFINITION('international standard',
'ap242_managed_model_based_3d_engineering',2020,#2011);
#2010=APPLICATION_PROTOCOL_DEFINITION('international standard',
'ap242_managed_model_based_3d_engineering',2020,#2012);
#2011=APPLICATION_CONTEXT('managed model based 3d engineering');
#2012=APPLICATION_CONTEXT('managed model based 3d engineering');
ENDSEC;
END-ISO-10303-21;
