M48
;DRILL file {KiCad 4.0.6} date 07/21/17 13:43:17
;FORMAT={-:-/ absolute / inch / decimal}
FMAT,2
INCH,TZ
T1C0.013
T2C0.015
T3C0.040
%
G90
G05
M72
T1
X2.785Y-3.17
X2.82Y-3.37
X2.865Y-3.22
X2.96Y-3.1
X2.99Y-3.3
X3.01Y-3.24
T2
X2.53Y-3.16
X2.535Y-3.
X2.63Y-3.105
X2.685Y-3.05
X2.775Y-2.995
X2.795Y-3.125
X2.82Y-3.065
X2.839Y-3.18
X2.84Y-3.27
X2.85Y-3.065
X2.865Y-2.835
X2.865Y-2.895
X2.88Y-3.065
X3.065Y-3.075
T3
X2.55Y-2.85
X2.55Y-3.35
X2.65Y-2.85
X2.65Y-3.35
X3.05Y-3.35
T0
M30
