G04 #@! TF.FileFunction,Copper,L1,Top,Signal*
%FSLAX46Y46*%
G04 Gerber Fmt 4.6, Leading zero omitted, Abs format (unit mm)*
G04 Created by KiCad (PCBNEW 4.0.6) date 07/21/17 14:00:03*
%MOMM*%
%LPD*%
G01*
G04 APERTURE LIST*
%ADD10C,0.100000*%
%ADD11R,1.198880X0.797560*%
%ADD12R,1.099820X0.398780*%
%ADD13R,0.797560X1.198880*%
%ADD14R,0.998220X0.998220*%
%ADD15C,0.998220*%
%ADD16R,0.899160X1.297940*%
%ADD17R,1.099820X0.998220*%
%ADD18R,0.998220X1.099820*%
%ADD19C,1.879600*%
%ADD20C,0.711200*%
%ADD21C,0.558800*%
%ADD22C,0.203200*%
%ADD23C,0.609600*%
%ADD24C,0.406400*%
G04 APERTURE END LIST*
D10*
D11*
X71374000Y-74813160D03*
X71374000Y-73014840D03*
D12*
X69507100Y-80688180D03*
X69507100Y-81338420D03*
X69507100Y-81983580D03*
X69507100Y-82633820D03*
X74002900Y-82633820D03*
X74002900Y-81983580D03*
X74002900Y-81338420D03*
X74002900Y-80688180D03*
D13*
X68072000Y-81915000D03*
X66273680Y-81915000D03*
X73416160Y-76327000D03*
X71617840Y-76327000D03*
D14*
X65163700Y-74930000D03*
X66916300Y-74930000D03*
D15*
X77724000Y-76962000D03*
X64389000Y-81915000D03*
D16*
X65791080Y-77724000D03*
X69590920Y-77724000D03*
D17*
X69509640Y-84455000D03*
X71206360Y-84455000D03*
X74127360Y-79248000D03*
X72430640Y-79248000D03*
D18*
X75438000Y-82595720D03*
X75438000Y-80899000D03*
D17*
X73152000Y-84455000D03*
X74848720Y-84455000D03*
D18*
X76962000Y-81198720D03*
X76962000Y-79502000D03*
X69850000Y-73192640D03*
X69850000Y-74889360D03*
D19*
X64770000Y-85090000D03*
X67310000Y-85090000D03*
X77470000Y-85090000D03*
X67310000Y-72390000D03*
X64770000Y-72390000D03*
D20*
X72110592Y-80772000D03*
X66802000Y-78867000D03*
X70485000Y-76073000D03*
X77851000Y-78105000D03*
X72136000Y-83058000D03*
X70993000Y-79375000D03*
X68199000Y-77470000D03*
X64262000Y-80264000D03*
X64389000Y-76200000D03*
X72771000Y-73533000D03*
X72771000Y-72009000D03*
D21*
X76454006Y-82296000D03*
D20*
X71628008Y-77851000D03*
X72389997Y-77850997D03*
X73152000Y-77851000D03*
D21*
X71628000Y-85598000D03*
X70739000Y-80518000D03*
X75946000Y-83820000D03*
X75184000Y-78740000D03*
X72771000Y-81787992D03*
D22*
X66916300Y-74930000D02*
X69809360Y-74930000D01*
X69809360Y-74930000D02*
X69850000Y-74889360D01*
X76617830Y-82296000D02*
X76454006Y-82296000D01*
X76962000Y-81198720D02*
X76962000Y-81951830D01*
X76962000Y-81951830D02*
X76617830Y-82296000D01*
D23*
X73416160Y-76327000D02*
X73416160Y-77226160D01*
X73787000Y-77597000D02*
X75438000Y-77597000D01*
X75438000Y-77597000D02*
X76073000Y-78232000D01*
X73416160Y-77226160D02*
X73787000Y-77597000D01*
X76073000Y-78232000D02*
X76073000Y-80010000D01*
D22*
X76962000Y-78359000D02*
X76835000Y-78232000D01*
X76835000Y-78232000D02*
X76073000Y-78232000D01*
X76962000Y-79502000D02*
X76962000Y-78359000D01*
D23*
X76073000Y-80010000D02*
X75438000Y-80645000D01*
X75438000Y-80645000D02*
X75438000Y-80899000D01*
X65163700Y-74930000D02*
X65163700Y-72783700D01*
X65163700Y-72783700D02*
X64770000Y-72390000D01*
X71628011Y-77850997D02*
X71628008Y-77851000D01*
X72389997Y-77850997D02*
X71628011Y-77850997D01*
X73152000Y-77851000D02*
X72390000Y-77851000D01*
X72390000Y-77851000D02*
X72389997Y-77850997D01*
X73416160Y-77586840D02*
X73152000Y-77851000D01*
X73416160Y-76327000D02*
X73416160Y-77586840D01*
X71374000Y-74813160D02*
X72781160Y-74813160D01*
X72781160Y-74813160D02*
X73416160Y-75448160D01*
X73416160Y-75448160D02*
X73416160Y-76327000D01*
X76835000Y-79502000D02*
X76962000Y-79502000D01*
D24*
X74002900Y-81338420D02*
X74998580Y-81338420D01*
D23*
X65791080Y-77724000D02*
X65791080Y-79519778D01*
X65791080Y-79519778D02*
X68059302Y-81788000D01*
X68059302Y-81788000D02*
X68072000Y-81788000D01*
X68072000Y-81788000D02*
X68072000Y-81915000D01*
D24*
X69507100Y-81983580D02*
X68140580Y-81983580D01*
X68140580Y-81983580D02*
X68072000Y-81915000D01*
D23*
X68072000Y-81915000D02*
X68072000Y-83017360D01*
X68072000Y-83017360D02*
X69509640Y-84455000D01*
X67310000Y-85090000D02*
X68874640Y-85090000D01*
X68874640Y-85090000D02*
X69509640Y-84455000D01*
D22*
X71628000Y-84876640D02*
X71206360Y-84455000D01*
X71628000Y-85598000D02*
X71628000Y-84876640D01*
X69507100Y-81338420D02*
X70260210Y-81338420D01*
X70260210Y-81338420D02*
X70739000Y-80859630D01*
X70739000Y-80859630D02*
X70739000Y-80518000D01*
X74848720Y-84455000D02*
X75057000Y-84246720D01*
X75057000Y-84246720D02*
X75057000Y-83693000D01*
X75057000Y-83693000D02*
X75438000Y-83312000D01*
X75438000Y-83312000D02*
X75438000Y-82595720D01*
X75438000Y-83348830D02*
X75909170Y-83820000D01*
X75909170Y-83820000D02*
X75946000Y-83820000D01*
X75438000Y-82595720D02*
X75438000Y-83348830D01*
X74002900Y-82633820D02*
X75399900Y-82633820D01*
X75399900Y-82633820D02*
X75438000Y-82595720D01*
D23*
X68072000Y-79756000D02*
X68072000Y-80391000D01*
X68072000Y-80391000D02*
X68369180Y-80688180D01*
D24*
X68369180Y-80688180D02*
X69507100Y-80688180D01*
D23*
X68453000Y-79375000D02*
X68072000Y-79756000D01*
X69198490Y-79375000D02*
X68453000Y-79375000D01*
X69590920Y-77724000D02*
X69590920Y-78982570D01*
X69590920Y-78982570D02*
X69198490Y-79375000D01*
D22*
X74127360Y-79248000D02*
X74880470Y-79248000D01*
X74880470Y-79248000D02*
X75184000Y-78944470D01*
X75184000Y-78944470D02*
X75184000Y-78740000D01*
X72966588Y-81983580D02*
X72771000Y-81787992D01*
X74002900Y-81983580D02*
X72966588Y-81983580D01*
G36*
X78309400Y-76338465D02*
X78271449Y-76300248D01*
X78132488Y-76206517D01*
X77977968Y-76141563D01*
X77813774Y-76107859D01*
X77646161Y-76106689D01*
X77481512Y-76138097D01*
X77326100Y-76200888D01*
X77185844Y-76292669D01*
X77066086Y-76409944D01*
X76971388Y-76548248D01*
X76905356Y-76702311D01*
X76870506Y-76866265D01*
X76868166Y-77033866D01*
X76898424Y-77198730D01*
X76960128Y-77354577D01*
X77050928Y-77495470D01*
X77167365Y-77616044D01*
X77305004Y-77711706D01*
X77458602Y-77778811D01*
X77622309Y-77814804D01*
X77789890Y-77818315D01*
X77954961Y-77789208D01*
X78111234Y-77728594D01*
X78252758Y-77638780D01*
X78309400Y-77584841D01*
X78309400Y-84096802D01*
X78299714Y-84087048D01*
X78089105Y-83944990D01*
X77854914Y-83846545D01*
X77606061Y-83795463D01*
X77352026Y-83793689D01*
X77102485Y-83841292D01*
X76866942Y-83936457D01*
X76654370Y-84075561D01*
X76472864Y-84253304D01*
X76329340Y-84462917D01*
X76229262Y-84696415D01*
X76176444Y-84944904D01*
X76172897Y-85198921D01*
X76218756Y-85448788D01*
X76312275Y-85684990D01*
X76449891Y-85898528D01*
X76479704Y-85929400D01*
X72171351Y-85929400D01*
X72182800Y-85913170D01*
X72233451Y-85799407D01*
X72261041Y-85677972D01*
X72263027Y-85535735D01*
X72238839Y-85413577D01*
X72191384Y-85298443D01*
X72122470Y-85194720D01*
X72085200Y-85157189D01*
X72085200Y-85085255D01*
X72099443Y-85053657D01*
X72113590Y-84954110D01*
X72113590Y-84696300D01*
X72246490Y-84696300D01*
X72246490Y-84989133D01*
X72260155Y-85057834D01*
X72286961Y-85122549D01*
X72325877Y-85180791D01*
X72375408Y-85230322D01*
X72433650Y-85269238D01*
X72498365Y-85296044D01*
X72567066Y-85309710D01*
X72910700Y-85309710D01*
X72999600Y-85220810D01*
X72999600Y-84607400D01*
X72335390Y-84607400D01*
X72246490Y-84696300D01*
X72113590Y-84696300D01*
X72113590Y-83955890D01*
X72110797Y-83920867D01*
X72246490Y-83920867D01*
X72246490Y-84213700D01*
X72335390Y-84302600D01*
X72999600Y-84302600D01*
X72999600Y-83689190D01*
X72910700Y-83600290D01*
X72567066Y-83600290D01*
X72498365Y-83613956D01*
X72433650Y-83640762D01*
X72375408Y-83679678D01*
X72325877Y-83729209D01*
X72286961Y-83787451D01*
X72260155Y-83852166D01*
X72246490Y-83920867D01*
X72110797Y-83920867D01*
X72109074Y-83899262D01*
X72079330Y-83803215D01*
X72024006Y-83719257D01*
X71947482Y-83654036D01*
X71855817Y-83612717D01*
X71756270Y-83598570D01*
X70656450Y-83598570D01*
X70599822Y-83603086D01*
X70503775Y-83632830D01*
X70419817Y-83688154D01*
X70356074Y-83762944D01*
X70327286Y-83719257D01*
X70250762Y-83654036D01*
X70159097Y-83612717D01*
X70059550Y-83598570D01*
X69587156Y-83598570D01*
X69177396Y-83188810D01*
X69265800Y-83188810D01*
X69354700Y-83099910D01*
X69354700Y-82733515D01*
X69659500Y-82733515D01*
X69659500Y-83099910D01*
X69748400Y-83188810D01*
X70092033Y-83188810D01*
X70160734Y-83175145D01*
X70225449Y-83148339D01*
X70283691Y-83109423D01*
X70333222Y-83059892D01*
X70372138Y-83001650D01*
X70398944Y-82936935D01*
X70412610Y-82868234D01*
X70412610Y-82822415D01*
X70323710Y-82733515D01*
X69659500Y-82733515D01*
X69354700Y-82733515D01*
X69334700Y-82733515D01*
X69334700Y-82542380D01*
X69507100Y-82542380D01*
X69528416Y-82540290D01*
X70057010Y-82540290D01*
X70113638Y-82535774D01*
X70118963Y-82534125D01*
X70323710Y-82534125D01*
X70412610Y-82445225D01*
X70412610Y-82399406D01*
X70398944Y-82330705D01*
X70389136Y-82307025D01*
X70400183Y-82282517D01*
X70414330Y-82182970D01*
X70414330Y-81784190D01*
X70413027Y-81767855D01*
X70430000Y-81762924D01*
X70432139Y-81761815D01*
X70434435Y-81761122D01*
X70471706Y-81741305D01*
X70509219Y-81721860D01*
X70511095Y-81720362D01*
X70513221Y-81719232D01*
X70545994Y-81692503D01*
X70578953Y-81666192D01*
X70582295Y-81662897D01*
X70582369Y-81662836D01*
X70582426Y-81662767D01*
X70583499Y-81661709D01*
X71062289Y-81182919D01*
X71089091Y-81150291D01*
X71116242Y-81117933D01*
X71117400Y-81115827D01*
X71118926Y-81113969D01*
X71138870Y-81076774D01*
X71159229Y-81039740D01*
X71159957Y-81037445D01*
X71161091Y-81035330D01*
X71173429Y-80994974D01*
X71179690Y-80975236D01*
X71222017Y-80934929D01*
X71293800Y-80833170D01*
X71344451Y-80719407D01*
X71372041Y-80597972D01*
X71374027Y-80455735D01*
X71373638Y-80453766D01*
X73097390Y-80453766D01*
X73097390Y-80499585D01*
X73186290Y-80588485D01*
X73850500Y-80588485D01*
X73850500Y-80222090D01*
X73761600Y-80133190D01*
X73417967Y-80133190D01*
X73349266Y-80146855D01*
X73284551Y-80173661D01*
X73226309Y-80212577D01*
X73176778Y-80262108D01*
X73137862Y-80320350D01*
X73111056Y-80385065D01*
X73097390Y-80453766D01*
X71373638Y-80453766D01*
X71349839Y-80333577D01*
X71302384Y-80218443D01*
X71233470Y-80114720D01*
X71145722Y-80026357D01*
X71042482Y-79956721D01*
X70927683Y-79908464D01*
X70805697Y-79883423D01*
X70681170Y-79882554D01*
X70558846Y-79905889D01*
X70443384Y-79952538D01*
X70339182Y-80020726D01*
X70250208Y-80107855D01*
X70208362Y-80168969D01*
X70156557Y-80145617D01*
X70057010Y-80131470D01*
X69533053Y-80131470D01*
X69514902Y-80129434D01*
X69507100Y-80129380D01*
X68744326Y-80129380D01*
X68732400Y-80117454D01*
X68732400Y-80035400D01*
X69198490Y-80035400D01*
X69259224Y-80029445D01*
X69319972Y-80024130D01*
X69323304Y-80023162D01*
X69326762Y-80022823D01*
X69385166Y-80005190D01*
X69443742Y-79988172D01*
X69446827Y-79986573D01*
X69450149Y-79985570D01*
X69503986Y-79956945D01*
X69558170Y-79928858D01*
X69560885Y-79926691D01*
X69563950Y-79925061D01*
X69611208Y-79886518D01*
X69658898Y-79848448D01*
X69663728Y-79843684D01*
X69663830Y-79843601D01*
X69663908Y-79843507D01*
X69665463Y-79841973D01*
X70018136Y-79489300D01*
X71525130Y-79489300D01*
X71525130Y-79782133D01*
X71538795Y-79850834D01*
X71565601Y-79915549D01*
X71604517Y-79973791D01*
X71654048Y-80023322D01*
X71712290Y-80062238D01*
X71777005Y-80089044D01*
X71845706Y-80102710D01*
X72189340Y-80102710D01*
X72278240Y-80013810D01*
X72278240Y-79400400D01*
X71614030Y-79400400D01*
X71525130Y-79489300D01*
X70018136Y-79489300D01*
X70057893Y-79449543D01*
X70096594Y-79402428D01*
X70135825Y-79355674D01*
X70137497Y-79352632D01*
X70139702Y-79349948D01*
X70168527Y-79296190D01*
X70197917Y-79242729D01*
X70198967Y-79239418D01*
X70200608Y-79236358D01*
X70218431Y-79178061D01*
X70236889Y-79119875D01*
X70237277Y-79116420D01*
X70238291Y-79113102D01*
X70244452Y-79052453D01*
X70251256Y-78991791D01*
X70251303Y-78985003D01*
X70251316Y-78984876D01*
X70251305Y-78984758D01*
X70251320Y-78982570D01*
X70251320Y-78657715D01*
X70277133Y-78640706D01*
X70342354Y-78564182D01*
X70383673Y-78472517D01*
X70397820Y-78372970D01*
X70397820Y-77075030D01*
X70393304Y-77018402D01*
X70363560Y-76922355D01*
X70308236Y-76838397D01*
X70231712Y-76773176D01*
X70140047Y-76731857D01*
X70040500Y-76717710D01*
X69141340Y-76717710D01*
X69084712Y-76722226D01*
X68988665Y-76751970D01*
X68904707Y-76807294D01*
X68839486Y-76883818D01*
X68798167Y-76975483D01*
X68784020Y-77075030D01*
X68784020Y-78372970D01*
X68788536Y-78429598D01*
X68818280Y-78525645D01*
X68873604Y-78609603D01*
X68930520Y-78658112D01*
X68930520Y-78709024D01*
X68924944Y-78714600D01*
X68453000Y-78714600D01*
X68392269Y-78720555D01*
X68331518Y-78725870D01*
X68328186Y-78726838D01*
X68324728Y-78727177D01*
X68266324Y-78744810D01*
X68207748Y-78761828D01*
X68204663Y-78763427D01*
X68201341Y-78764430D01*
X68147504Y-78793055D01*
X68093320Y-78821142D01*
X68090605Y-78823309D01*
X68087540Y-78824939D01*
X68040282Y-78863482D01*
X67992592Y-78901552D01*
X67987758Y-78906319D01*
X67987660Y-78906399D01*
X67987585Y-78906489D01*
X67986026Y-78908027D01*
X67605027Y-79289027D01*
X67566326Y-79336142D01*
X67527095Y-79382896D01*
X67525423Y-79385938D01*
X67523218Y-79388622D01*
X67494393Y-79442380D01*
X67465003Y-79495841D01*
X67463953Y-79499152D01*
X67462312Y-79502212D01*
X67444485Y-79560521D01*
X67426031Y-79618695D01*
X67425644Y-79622148D01*
X67424629Y-79625467D01*
X67418468Y-79686122D01*
X67411664Y-79746779D01*
X67411617Y-79753567D01*
X67411604Y-79753694D01*
X67411615Y-79753812D01*
X67411600Y-79756000D01*
X67411600Y-80206351D01*
X66451480Y-79246232D01*
X66451480Y-78657715D01*
X66477293Y-78640706D01*
X66542514Y-78564182D01*
X66583833Y-78472517D01*
X66597980Y-78372970D01*
X66597980Y-77075030D01*
X66593464Y-77018402D01*
X66563720Y-76922355D01*
X66508396Y-76838397D01*
X66431872Y-76773176D01*
X66340207Y-76731857D01*
X66240660Y-76717710D01*
X65341500Y-76717710D01*
X65284872Y-76722226D01*
X65188825Y-76751970D01*
X65104867Y-76807294D01*
X65039646Y-76883818D01*
X64998327Y-76975483D01*
X64984180Y-77075030D01*
X64984180Y-78372970D01*
X64988696Y-78429598D01*
X65018440Y-78525645D01*
X65073764Y-78609603D01*
X65130680Y-78658112D01*
X65130680Y-79519778D01*
X65136635Y-79580512D01*
X65141950Y-79641260D01*
X65142918Y-79644592D01*
X65143257Y-79648050D01*
X65160890Y-79706454D01*
X65177908Y-79765030D01*
X65179507Y-79768115D01*
X65180510Y-79771437D01*
X65209135Y-79825274D01*
X65237222Y-79879458D01*
X65239389Y-79882173D01*
X65241019Y-79885238D01*
X65279562Y-79932496D01*
X65317632Y-79980186D01*
X65322396Y-79985016D01*
X65322479Y-79985118D01*
X65322573Y-79985196D01*
X65324107Y-79986751D01*
X66426080Y-81088724D01*
X66426080Y-81762600D01*
X66939160Y-81762600D01*
X67019558Y-81682202D01*
X67315900Y-81978545D01*
X67315900Y-82514440D01*
X67320416Y-82571068D01*
X67350160Y-82667115D01*
X67405484Y-82751073D01*
X67411600Y-82756286D01*
X67411600Y-83017360D01*
X67417555Y-83078094D01*
X67422870Y-83138842D01*
X67423838Y-83142174D01*
X67424177Y-83145632D01*
X67441810Y-83204036D01*
X67458828Y-83262612D01*
X67460427Y-83265697D01*
X67461430Y-83269019D01*
X67490055Y-83322856D01*
X67518142Y-83377040D01*
X67520309Y-83379755D01*
X67521939Y-83382820D01*
X67560482Y-83430078D01*
X67598552Y-83477768D01*
X67603316Y-83482598D01*
X67603399Y-83482700D01*
X67603493Y-83482778D01*
X67605027Y-83484333D01*
X68550294Y-84429600D01*
X68426547Y-84429600D01*
X68318720Y-84267308D01*
X68139714Y-84087048D01*
X67929105Y-83944990D01*
X67694914Y-83846545D01*
X67446061Y-83795463D01*
X67192026Y-83793689D01*
X66942485Y-83841292D01*
X66706942Y-83936457D01*
X66494370Y-84075561D01*
X66312864Y-84253304D01*
X66169340Y-84462917D01*
X66069262Y-84696415D01*
X66040112Y-84833553D01*
X66022961Y-84737251D01*
X65930067Y-84499589D01*
X65905408Y-84453455D01*
X65728521Y-84347005D01*
X64985526Y-85090000D01*
X64999669Y-85104143D01*
X64784143Y-85319669D01*
X64770000Y-85305526D01*
X64755858Y-85319669D01*
X64540332Y-85104143D01*
X64554474Y-85090000D01*
X64540332Y-85075858D01*
X64755858Y-84860332D01*
X64770000Y-84874474D01*
X65512995Y-84131479D01*
X65406545Y-83954592D01*
X65172808Y-83852225D01*
X64923590Y-83797425D01*
X64668470Y-83792297D01*
X64417251Y-83837039D01*
X64179589Y-83929933D01*
X64133455Y-83954592D01*
X64027006Y-84131477D01*
X63957694Y-84062165D01*
X63930600Y-84089259D01*
X63930600Y-82637319D01*
X63970004Y-82664706D01*
X64123602Y-82731811D01*
X64287309Y-82767804D01*
X64454890Y-82771315D01*
X64619961Y-82742208D01*
X64776234Y-82681594D01*
X64917758Y-82591780D01*
X65039142Y-82476188D01*
X65135762Y-82339220D01*
X65203938Y-82186094D01*
X65210707Y-82156300D01*
X65519300Y-82156300D01*
X65519300Y-82549463D01*
X65532965Y-82618164D01*
X65559771Y-82682879D01*
X65598687Y-82741121D01*
X65648218Y-82790652D01*
X65706460Y-82829568D01*
X65771175Y-82856374D01*
X65839876Y-82870040D01*
X66032380Y-82870040D01*
X66121280Y-82781140D01*
X66121280Y-82067400D01*
X66426080Y-82067400D01*
X66426080Y-82781140D01*
X66514980Y-82870040D01*
X66707484Y-82870040D01*
X66776185Y-82856374D01*
X66840900Y-82829568D01*
X66899142Y-82790652D01*
X66948673Y-82741121D01*
X66987589Y-82682879D01*
X67014395Y-82618164D01*
X67028060Y-82549463D01*
X67028060Y-82156300D01*
X66939160Y-82067400D01*
X66426080Y-82067400D01*
X66121280Y-82067400D01*
X65608200Y-82067400D01*
X65519300Y-82156300D01*
X65210707Y-82156300D01*
X65241074Y-82022642D01*
X65243747Y-81831191D01*
X65211190Y-81666766D01*
X65147316Y-81511796D01*
X65054558Y-81372184D01*
X64963549Y-81280537D01*
X65519300Y-81280537D01*
X65519300Y-81673700D01*
X65608200Y-81762600D01*
X66121280Y-81762600D01*
X66121280Y-81048860D01*
X66032380Y-80959960D01*
X65839876Y-80959960D01*
X65771175Y-80973626D01*
X65706460Y-81000432D01*
X65648218Y-81039348D01*
X65598687Y-81088879D01*
X65559771Y-81147121D01*
X65532965Y-81211836D01*
X65519300Y-81280537D01*
X64963549Y-81280537D01*
X64936449Y-81253248D01*
X64797488Y-81159517D01*
X64642968Y-81094563D01*
X64478774Y-81060859D01*
X64311161Y-81059689D01*
X64146512Y-81091097D01*
X63991100Y-81153888D01*
X63930600Y-81193478D01*
X63930600Y-73384215D01*
X64134969Y-73526255D01*
X64367762Y-73627960D01*
X64503300Y-73657760D01*
X64503300Y-74113507D01*
X64427957Y-74163154D01*
X64362736Y-74239678D01*
X64321417Y-74331343D01*
X64307270Y-74430890D01*
X64307270Y-75429110D01*
X64311786Y-75485738D01*
X64341530Y-75581785D01*
X64396854Y-75665743D01*
X64473378Y-75730964D01*
X64565043Y-75772283D01*
X64664590Y-75786430D01*
X65662810Y-75786430D01*
X65719438Y-75781914D01*
X65815485Y-75752170D01*
X65899443Y-75696846D01*
X65964664Y-75620322D01*
X66005983Y-75528657D01*
X66020130Y-75429110D01*
X66020130Y-74430890D01*
X66059870Y-74430890D01*
X66059870Y-75429110D01*
X66064386Y-75485738D01*
X66094130Y-75581785D01*
X66149454Y-75665743D01*
X66225978Y-75730964D01*
X66317643Y-75772283D01*
X66417190Y-75786430D01*
X67415410Y-75786430D01*
X67472038Y-75781914D01*
X67568085Y-75752170D01*
X67652043Y-75696846D01*
X67717264Y-75620322D01*
X67758583Y-75528657D01*
X67772730Y-75429110D01*
X67772730Y-75387200D01*
X68993570Y-75387200D01*
X68993570Y-75439270D01*
X68998086Y-75495898D01*
X69027830Y-75591945D01*
X69083154Y-75675903D01*
X69159678Y-75741124D01*
X69251343Y-75782443D01*
X69350890Y-75796590D01*
X70349110Y-75796590D01*
X70405738Y-75792074D01*
X70501785Y-75762330D01*
X70585743Y-75707006D01*
X70650964Y-75630482D01*
X70684340Y-75556438D01*
X70774560Y-75569260D01*
X70899731Y-75569260D01*
X70877125Y-75623836D01*
X70863460Y-75692537D01*
X70863460Y-76085700D01*
X70952360Y-76174600D01*
X71465440Y-76174600D01*
X71465440Y-76154600D01*
X71770240Y-76154600D01*
X71770240Y-76174600D01*
X72283320Y-76174600D01*
X72372220Y-76085700D01*
X72372220Y-75692537D01*
X72358555Y-75623836D01*
X72331749Y-75559121D01*
X72292833Y-75500879D01*
X72265514Y-75473560D01*
X72507614Y-75473560D01*
X72672696Y-75638643D01*
X72660060Y-75727560D01*
X72660060Y-76926440D01*
X72664576Y-76983068D01*
X72694320Y-77079115D01*
X72749644Y-77163073D01*
X72755760Y-77168286D01*
X72755760Y-77190600D01*
X72654334Y-77190600D01*
X72601322Y-77168316D01*
X72464697Y-77140271D01*
X72325227Y-77139297D01*
X72298687Y-77144360D01*
X72331749Y-77094879D01*
X72358555Y-77030164D01*
X72372220Y-76961463D01*
X72372220Y-76568300D01*
X72283320Y-76479400D01*
X71770240Y-76479400D01*
X71770240Y-76499400D01*
X71465440Y-76499400D01*
X71465440Y-76479400D01*
X70952360Y-76479400D01*
X70863460Y-76568300D01*
X70863460Y-76961463D01*
X70877125Y-77030164D01*
X70903931Y-77094879D01*
X70942847Y-77153121D01*
X70992378Y-77202652D01*
X71050620Y-77241568D01*
X71115335Y-77268374D01*
X71184036Y-77282040D01*
X71198569Y-77282040D01*
X71180211Y-77294053D01*
X71080561Y-77391638D01*
X71001763Y-77506719D01*
X70946819Y-77634914D01*
X70917821Y-77771340D01*
X70915873Y-77910800D01*
X70941051Y-78047982D01*
X70992395Y-78177661D01*
X71067949Y-78294898D01*
X71164835Y-78395226D01*
X71279363Y-78474826D01*
X71407172Y-78530664D01*
X71543392Y-78560614D01*
X71578366Y-78561347D01*
X71565601Y-78580451D01*
X71538795Y-78645166D01*
X71525130Y-78713867D01*
X71525130Y-79006700D01*
X71614030Y-79095600D01*
X72278240Y-79095600D01*
X72278240Y-79075600D01*
X72583040Y-79075600D01*
X72583040Y-79095600D01*
X72603040Y-79095600D01*
X72603040Y-79400400D01*
X72583040Y-79400400D01*
X72583040Y-80013810D01*
X72671940Y-80102710D01*
X73015574Y-80102710D01*
X73084275Y-80089044D01*
X73148990Y-80062238D01*
X73207232Y-80023322D01*
X73256763Y-79973791D01*
X73280121Y-79938833D01*
X73309714Y-79983743D01*
X73386238Y-80048964D01*
X73477903Y-80090283D01*
X73577450Y-80104430D01*
X74677270Y-80104430D01*
X74682977Y-80103975D01*
X74647895Y-80145137D01*
X74587833Y-80133190D01*
X74244200Y-80133190D01*
X74155300Y-80222090D01*
X74155300Y-80588485D01*
X74175300Y-80588485D01*
X74175300Y-80779620D01*
X74002900Y-80779620D01*
X73981584Y-80781710D01*
X73452990Y-80781710D01*
X73396362Y-80786226D01*
X73391037Y-80787875D01*
X73186290Y-80787875D01*
X73097390Y-80876775D01*
X73097390Y-80922594D01*
X73111056Y-80991295D01*
X73120864Y-81014975D01*
X73109817Y-81039483D01*
X73095670Y-81139030D01*
X73095670Y-81241004D01*
X73074482Y-81226713D01*
X72959683Y-81178456D01*
X72837697Y-81153415D01*
X72713170Y-81152546D01*
X72590846Y-81175881D01*
X72475384Y-81222530D01*
X72371182Y-81290718D01*
X72282208Y-81377847D01*
X72211853Y-81480598D01*
X72162796Y-81595058D01*
X72136905Y-81716867D01*
X72135166Y-81841384D01*
X72157646Y-81963868D01*
X72203488Y-82079653D01*
X72270947Y-82184329D01*
X72357453Y-82273908D01*
X72459710Y-82344979D01*
X72573825Y-82394835D01*
X72695450Y-82421575D01*
X72819952Y-82424183D01*
X72839719Y-82420698D01*
X72871531Y-82430789D01*
X72873919Y-82431057D01*
X72876219Y-82431760D01*
X72918251Y-82436029D01*
X72960204Y-82440735D01*
X72964905Y-82440768D01*
X72964992Y-82440777D01*
X72965073Y-82440769D01*
X72966588Y-82440780D01*
X73095670Y-82440780D01*
X73095670Y-82833210D01*
X73100186Y-82889838D01*
X73129930Y-82985885D01*
X73185254Y-83069843D01*
X73261778Y-83135064D01*
X73353443Y-83176383D01*
X73452990Y-83190530D01*
X74552810Y-83190530D01*
X74584946Y-83187967D01*
X74586086Y-83202258D01*
X74615830Y-83298305D01*
X74671154Y-83382263D01*
X74701823Y-83408402D01*
X74679758Y-83434697D01*
X74678600Y-83436803D01*
X74677074Y-83438661D01*
X74657130Y-83475856D01*
X74636771Y-83512890D01*
X74636043Y-83515185D01*
X74634909Y-83517300D01*
X74622558Y-83557697D01*
X74609791Y-83597943D01*
X74609721Y-83598570D01*
X74298810Y-83598570D01*
X74242182Y-83603086D01*
X74146135Y-83632830D01*
X74062177Y-83688154D01*
X73999684Y-83761477D01*
X73978123Y-83729209D01*
X73928592Y-83679678D01*
X73870350Y-83640762D01*
X73805635Y-83613956D01*
X73736934Y-83600290D01*
X73393300Y-83600290D01*
X73304400Y-83689190D01*
X73304400Y-84302600D01*
X73324400Y-84302600D01*
X73324400Y-84607400D01*
X73304400Y-84607400D01*
X73304400Y-85220810D01*
X73393300Y-85309710D01*
X73736934Y-85309710D01*
X73805635Y-85296044D01*
X73870350Y-85269238D01*
X73928592Y-85230322D01*
X73978123Y-85180791D01*
X74001481Y-85145833D01*
X74031074Y-85190743D01*
X74107598Y-85255964D01*
X74199263Y-85297283D01*
X74298810Y-85311430D01*
X75398630Y-85311430D01*
X75455258Y-85306914D01*
X75551305Y-85277170D01*
X75635263Y-85221846D01*
X75700484Y-85145322D01*
X75741803Y-85053657D01*
X75755950Y-84954110D01*
X75755950Y-84428409D01*
X75870450Y-84453583D01*
X75994952Y-84456191D01*
X76117590Y-84434567D01*
X76233692Y-84389534D01*
X76338836Y-84322808D01*
X76429017Y-84236929D01*
X76500800Y-84135170D01*
X76551451Y-84021407D01*
X76579041Y-83899972D01*
X76581027Y-83757735D01*
X76556839Y-83635577D01*
X76509384Y-83520443D01*
X76440470Y-83416720D01*
X76352722Y-83328357D01*
X76268420Y-83271495D01*
X76280283Y-83245177D01*
X76294430Y-83145630D01*
X76294430Y-82911109D01*
X76378456Y-82929583D01*
X76502958Y-82932191D01*
X76625596Y-82910567D01*
X76741698Y-82865534D01*
X76846842Y-82798808D01*
X76937023Y-82712929D01*
X77008806Y-82611170D01*
X77056613Y-82503795D01*
X77285289Y-82275119D01*
X77312072Y-82242513D01*
X77339242Y-82210133D01*
X77340401Y-82208024D01*
X77341926Y-82206168D01*
X77361858Y-82168994D01*
X77382229Y-82131940D01*
X77382957Y-82129645D01*
X77384091Y-82127530D01*
X77390689Y-82105950D01*
X77461110Y-82105950D01*
X77517738Y-82101434D01*
X77613785Y-82071690D01*
X77697743Y-82016366D01*
X77762964Y-81939842D01*
X77804283Y-81848177D01*
X77818430Y-81748630D01*
X77818430Y-80648810D01*
X77813914Y-80592182D01*
X77784170Y-80496135D01*
X77728846Y-80412177D01*
X77654056Y-80348434D01*
X77697743Y-80319646D01*
X77762964Y-80243122D01*
X77804283Y-80151457D01*
X77818430Y-80051910D01*
X77818430Y-78952090D01*
X77813914Y-78895462D01*
X77784170Y-78799415D01*
X77728846Y-78715457D01*
X77652322Y-78650236D01*
X77560657Y-78608917D01*
X77461110Y-78594770D01*
X77419200Y-78594770D01*
X77419200Y-78359000D01*
X77415078Y-78316957D01*
X77411398Y-78274897D01*
X77410728Y-78272590D01*
X77410493Y-78270196D01*
X77398296Y-78229800D01*
X77386504Y-78189210D01*
X77385395Y-78187071D01*
X77384702Y-78184775D01*
X77364885Y-78147504D01*
X77345440Y-78109991D01*
X77343942Y-78108115D01*
X77342812Y-78105989D01*
X77316058Y-78073185D01*
X77289771Y-78040257D01*
X77286478Y-78036917D01*
X77286416Y-78036841D01*
X77286346Y-78036783D01*
X77285289Y-78035711D01*
X77158289Y-77908711D01*
X77125661Y-77881909D01*
X77093303Y-77854758D01*
X77091197Y-77853600D01*
X77089339Y-77852074D01*
X77052144Y-77832130D01*
X77015110Y-77811771D01*
X77012815Y-77811043D01*
X77010700Y-77809909D01*
X76970303Y-77797558D01*
X76930057Y-77784791D01*
X76927674Y-77784524D01*
X76925369Y-77783819D01*
X76883243Y-77779540D01*
X76841384Y-77774845D01*
X76836694Y-77774812D01*
X76836596Y-77774802D01*
X76836505Y-77774811D01*
X76835000Y-77774800D01*
X76549010Y-77774800D01*
X76546449Y-77771592D01*
X76541679Y-77766756D01*
X76541601Y-77766660D01*
X76541512Y-77766586D01*
X76539974Y-77765027D01*
X75904973Y-77130027D01*
X75857858Y-77091326D01*
X75811104Y-77052095D01*
X75808062Y-77050423D01*
X75805378Y-77048218D01*
X75751620Y-77019393D01*
X75698159Y-76990003D01*
X75694848Y-76988953D01*
X75691788Y-76987312D01*
X75633479Y-76969485D01*
X75575305Y-76951031D01*
X75571852Y-76950644D01*
X75568533Y-76949629D01*
X75507878Y-76943468D01*
X75447221Y-76936664D01*
X75440433Y-76936617D01*
X75440306Y-76936604D01*
X75440188Y-76936615D01*
X75438000Y-76936600D01*
X74170816Y-76936600D01*
X74172260Y-76926440D01*
X74172260Y-75727560D01*
X74167744Y-75670932D01*
X74138000Y-75574885D01*
X74082676Y-75490927D01*
X74076560Y-75485714D01*
X74076560Y-75448160D01*
X74070609Y-75387471D01*
X74065291Y-75326679D01*
X74064322Y-75323343D01*
X74063983Y-75319888D01*
X74046354Y-75261500D01*
X74029332Y-75202909D01*
X74027734Y-75199826D01*
X74026730Y-75196501D01*
X73998105Y-75142665D01*
X73970019Y-75088481D01*
X73967850Y-75085764D01*
X73966221Y-75082700D01*
X73927707Y-75035478D01*
X73889609Y-74987752D01*
X73884839Y-74982916D01*
X73884761Y-74982820D01*
X73884672Y-74982746D01*
X73883134Y-74981187D01*
X73248133Y-74346187D01*
X73201018Y-74307486D01*
X73154264Y-74268255D01*
X73151222Y-74266583D01*
X73148538Y-74264378D01*
X73094780Y-74235553D01*
X73041319Y-74206163D01*
X73038008Y-74205113D01*
X73034948Y-74203472D01*
X72976639Y-74185645D01*
X72918465Y-74167191D01*
X72915012Y-74166804D01*
X72911693Y-74165789D01*
X72851038Y-74159628D01*
X72790381Y-74152824D01*
X72783593Y-74152777D01*
X72783466Y-74152764D01*
X72783348Y-74152775D01*
X72781160Y-74152760D01*
X72211859Y-74152760D01*
X72164652Y-74112526D01*
X72072987Y-74071207D01*
X71973440Y-74057060D01*
X70774560Y-74057060D01*
X70717932Y-74061576D01*
X70621885Y-74091320D01*
X70611436Y-74098206D01*
X70543523Y-74040324D01*
X70575791Y-74018763D01*
X70625322Y-73969232D01*
X70664238Y-73910990D01*
X70691044Y-73846275D01*
X70694536Y-73828720D01*
X74190762Y-73828720D01*
X74261799Y-74215770D01*
X74406662Y-74581651D01*
X74619832Y-74912426D01*
X74893190Y-75195497D01*
X75216324Y-75420081D01*
X75576926Y-75577624D01*
X75961261Y-75662125D01*
X76354689Y-75670366D01*
X76742225Y-75602033D01*
X77109108Y-75459729D01*
X77441364Y-75248873D01*
X77726336Y-74977498D01*
X77953170Y-74655939D01*
X78113227Y-74296446D01*
X78200410Y-73912711D01*
X78206686Y-73463243D01*
X78130252Y-73077223D01*
X77980295Y-72713400D01*
X77762528Y-72385634D01*
X77485244Y-72106407D01*
X77159005Y-71886357D01*
X76796239Y-71733864D01*
X76410762Y-71654737D01*
X76017257Y-71651989D01*
X75630712Y-71725727D01*
X75265852Y-71873140D01*
X74936573Y-72088614D01*
X74655418Y-72363942D01*
X74433095Y-72688636D01*
X74278073Y-73050329D01*
X74196257Y-73435244D01*
X74190762Y-73828720D01*
X70694536Y-73828720D01*
X70704710Y-73777574D01*
X70704710Y-73762293D01*
X70739537Y-73769220D01*
X71132700Y-73769220D01*
X71221600Y-73680320D01*
X71221600Y-73167240D01*
X71526400Y-73167240D01*
X71526400Y-73680320D01*
X71615300Y-73769220D01*
X72008463Y-73769220D01*
X72077164Y-73755555D01*
X72141879Y-73728749D01*
X72200121Y-73689833D01*
X72249652Y-73640302D01*
X72288568Y-73582060D01*
X72315374Y-73517345D01*
X72329040Y-73448644D01*
X72329040Y-73256140D01*
X72240140Y-73167240D01*
X71526400Y-73167240D01*
X71221600Y-73167240D01*
X71201600Y-73167240D01*
X71201600Y-72862440D01*
X71221600Y-72862440D01*
X71221600Y-72349360D01*
X71526400Y-72349360D01*
X71526400Y-72862440D01*
X72240140Y-72862440D01*
X72329040Y-72773540D01*
X72329040Y-72581036D01*
X72315374Y-72512335D01*
X72288568Y-72447620D01*
X72249652Y-72389378D01*
X72200121Y-72339847D01*
X72141879Y-72300931D01*
X72077164Y-72274125D01*
X72008463Y-72260460D01*
X71615300Y-72260460D01*
X71526400Y-72349360D01*
X71221600Y-72349360D01*
X71132700Y-72260460D01*
X70739537Y-72260460D01*
X70670836Y-72274125D01*
X70606121Y-72300931D01*
X70547879Y-72339847D01*
X70543071Y-72344655D01*
X70517549Y-72327601D01*
X70452834Y-72300795D01*
X70384133Y-72287130D01*
X70091300Y-72287130D01*
X70002400Y-72376030D01*
X70002400Y-73040240D01*
X70022400Y-73040240D01*
X70022400Y-73345040D01*
X70002400Y-73345040D01*
X70002400Y-73365040D01*
X69697600Y-73365040D01*
X69697600Y-73345040D01*
X69084190Y-73345040D01*
X68995290Y-73433940D01*
X68995290Y-73777574D01*
X69008956Y-73846275D01*
X69035762Y-73910990D01*
X69074678Y-73969232D01*
X69124209Y-74018763D01*
X69159167Y-74042121D01*
X69114257Y-74071714D01*
X69049036Y-74148238D01*
X69007717Y-74239903D01*
X68993570Y-74339450D01*
X68993570Y-74472800D01*
X67772730Y-74472800D01*
X67772730Y-74430890D01*
X67768214Y-74374262D01*
X67738470Y-74278215D01*
X67683146Y-74194257D01*
X67606622Y-74129036D01*
X67514957Y-74087717D01*
X67415410Y-74073570D01*
X66417190Y-74073570D01*
X66360562Y-74078086D01*
X66264515Y-74107830D01*
X66180557Y-74163154D01*
X66115336Y-74239678D01*
X66074017Y-74331343D01*
X66059870Y-74430890D01*
X66020130Y-74430890D01*
X66015614Y-74374262D01*
X65985870Y-74278215D01*
X65930546Y-74194257D01*
X65854022Y-74129036D01*
X65824100Y-74115548D01*
X65824100Y-73348521D01*
X66567005Y-73348521D01*
X66673455Y-73525408D01*
X66907192Y-73627775D01*
X67156410Y-73682575D01*
X67411530Y-73687703D01*
X67662749Y-73642961D01*
X67900411Y-73550067D01*
X67946545Y-73525408D01*
X68052995Y-73348521D01*
X67310000Y-72605526D01*
X66567005Y-73348521D01*
X65824100Y-73348521D01*
X65824100Y-73143086D01*
X65901794Y-73032948D01*
X66005122Y-72800870D01*
X66040027Y-72647232D01*
X66057039Y-72742749D01*
X66149933Y-72980411D01*
X66174592Y-73026545D01*
X66351479Y-73132995D01*
X67094474Y-72390000D01*
X67080332Y-72375858D01*
X67295858Y-72160332D01*
X67310000Y-72174474D01*
X67324143Y-72160332D01*
X67539669Y-72375858D01*
X67525526Y-72390000D01*
X68268521Y-73132995D01*
X68445408Y-73026545D01*
X68547775Y-72792808D01*
X68588476Y-72607706D01*
X68995290Y-72607706D01*
X68995290Y-72951340D01*
X69084190Y-73040240D01*
X69697600Y-73040240D01*
X69697600Y-72376030D01*
X69608700Y-72287130D01*
X69315867Y-72287130D01*
X69247166Y-72300795D01*
X69182451Y-72327601D01*
X69124209Y-72366517D01*
X69074678Y-72416048D01*
X69035762Y-72474290D01*
X69008956Y-72539005D01*
X68995290Y-72607706D01*
X68588476Y-72607706D01*
X68602575Y-72543590D01*
X68607703Y-72288470D01*
X68562961Y-72037251D01*
X68470067Y-71799589D01*
X68445408Y-71753455D01*
X68268523Y-71647006D01*
X68337835Y-71577694D01*
X68310741Y-71550600D01*
X78309400Y-71550600D01*
X78309400Y-76338465D01*
X78309400Y-76338465D01*
G37*
X78309400Y-76338465D02*
X78271449Y-76300248D01*
X78132488Y-76206517D01*
X77977968Y-76141563D01*
X77813774Y-76107859D01*
X77646161Y-76106689D01*
X77481512Y-76138097D01*
X77326100Y-76200888D01*
X77185844Y-76292669D01*
X77066086Y-76409944D01*
X76971388Y-76548248D01*
X76905356Y-76702311D01*
X76870506Y-76866265D01*
X76868166Y-77033866D01*
X76898424Y-77198730D01*
X76960128Y-77354577D01*
X77050928Y-77495470D01*
X77167365Y-77616044D01*
X77305004Y-77711706D01*
X77458602Y-77778811D01*
X77622309Y-77814804D01*
X77789890Y-77818315D01*
X77954961Y-77789208D01*
X78111234Y-77728594D01*
X78252758Y-77638780D01*
X78309400Y-77584841D01*
X78309400Y-84096802D01*
X78299714Y-84087048D01*
X78089105Y-83944990D01*
X77854914Y-83846545D01*
X77606061Y-83795463D01*
X77352026Y-83793689D01*
X77102485Y-83841292D01*
X76866942Y-83936457D01*
X76654370Y-84075561D01*
X76472864Y-84253304D01*
X76329340Y-84462917D01*
X76229262Y-84696415D01*
X76176444Y-84944904D01*
X76172897Y-85198921D01*
X76218756Y-85448788D01*
X76312275Y-85684990D01*
X76449891Y-85898528D01*
X76479704Y-85929400D01*
X72171351Y-85929400D01*
X72182800Y-85913170D01*
X72233451Y-85799407D01*
X72261041Y-85677972D01*
X72263027Y-85535735D01*
X72238839Y-85413577D01*
X72191384Y-85298443D01*
X72122470Y-85194720D01*
X72085200Y-85157189D01*
X72085200Y-85085255D01*
X72099443Y-85053657D01*
X72113590Y-84954110D01*
X72113590Y-84696300D01*
X72246490Y-84696300D01*
X72246490Y-84989133D01*
X72260155Y-85057834D01*
X72286961Y-85122549D01*
X72325877Y-85180791D01*
X72375408Y-85230322D01*
X72433650Y-85269238D01*
X72498365Y-85296044D01*
X72567066Y-85309710D01*
X72910700Y-85309710D01*
X72999600Y-85220810D01*
X72999600Y-84607400D01*
X72335390Y-84607400D01*
X72246490Y-84696300D01*
X72113590Y-84696300D01*
X72113590Y-83955890D01*
X72110797Y-83920867D01*
X72246490Y-83920867D01*
X72246490Y-84213700D01*
X72335390Y-84302600D01*
X72999600Y-84302600D01*
X72999600Y-83689190D01*
X72910700Y-83600290D01*
X72567066Y-83600290D01*
X72498365Y-83613956D01*
X72433650Y-83640762D01*
X72375408Y-83679678D01*
X72325877Y-83729209D01*
X72286961Y-83787451D01*
X72260155Y-83852166D01*
X72246490Y-83920867D01*
X72110797Y-83920867D01*
X72109074Y-83899262D01*
X72079330Y-83803215D01*
X72024006Y-83719257D01*
X71947482Y-83654036D01*
X71855817Y-83612717D01*
X71756270Y-83598570D01*
X70656450Y-83598570D01*
X70599822Y-83603086D01*
X70503775Y-83632830D01*
X70419817Y-83688154D01*
X70356074Y-83762944D01*
X70327286Y-83719257D01*
X70250762Y-83654036D01*
X70159097Y-83612717D01*
X70059550Y-83598570D01*
X69587156Y-83598570D01*
X69177396Y-83188810D01*
X69265800Y-83188810D01*
X69354700Y-83099910D01*
X69354700Y-82733515D01*
X69659500Y-82733515D01*
X69659500Y-83099910D01*
X69748400Y-83188810D01*
X70092033Y-83188810D01*
X70160734Y-83175145D01*
X70225449Y-83148339D01*
X70283691Y-83109423D01*
X70333222Y-83059892D01*
X70372138Y-83001650D01*
X70398944Y-82936935D01*
X70412610Y-82868234D01*
X70412610Y-82822415D01*
X70323710Y-82733515D01*
X69659500Y-82733515D01*
X69354700Y-82733515D01*
X69334700Y-82733515D01*
X69334700Y-82542380D01*
X69507100Y-82542380D01*
X69528416Y-82540290D01*
X70057010Y-82540290D01*
X70113638Y-82535774D01*
X70118963Y-82534125D01*
X70323710Y-82534125D01*
X70412610Y-82445225D01*
X70412610Y-82399406D01*
X70398944Y-82330705D01*
X70389136Y-82307025D01*
X70400183Y-82282517D01*
X70414330Y-82182970D01*
X70414330Y-81784190D01*
X70413027Y-81767855D01*
X70430000Y-81762924D01*
X70432139Y-81761815D01*
X70434435Y-81761122D01*
X70471706Y-81741305D01*
X70509219Y-81721860D01*
X70511095Y-81720362D01*
X70513221Y-81719232D01*
X70545994Y-81692503D01*
X70578953Y-81666192D01*
X70582295Y-81662897D01*
X70582369Y-81662836D01*
X70582426Y-81662767D01*
X70583499Y-81661709D01*
X71062289Y-81182919D01*
X71089091Y-81150291D01*
X71116242Y-81117933D01*
X71117400Y-81115827D01*
X71118926Y-81113969D01*
X71138870Y-81076774D01*
X71159229Y-81039740D01*
X71159957Y-81037445D01*
X71161091Y-81035330D01*
X71173429Y-80994974D01*
X71179690Y-80975236D01*
X71222017Y-80934929D01*
X71293800Y-80833170D01*
X71344451Y-80719407D01*
X71372041Y-80597972D01*
X71374027Y-80455735D01*
X71373638Y-80453766D01*
X73097390Y-80453766D01*
X73097390Y-80499585D01*
X73186290Y-80588485D01*
X73850500Y-80588485D01*
X73850500Y-80222090D01*
X73761600Y-80133190D01*
X73417967Y-80133190D01*
X73349266Y-80146855D01*
X73284551Y-80173661D01*
X73226309Y-80212577D01*
X73176778Y-80262108D01*
X73137862Y-80320350D01*
X73111056Y-80385065D01*
X73097390Y-80453766D01*
X71373638Y-80453766D01*
X71349839Y-80333577D01*
X71302384Y-80218443D01*
X71233470Y-80114720D01*
X71145722Y-80026357D01*
X71042482Y-79956721D01*
X70927683Y-79908464D01*
X70805697Y-79883423D01*
X70681170Y-79882554D01*
X70558846Y-79905889D01*
X70443384Y-79952538D01*
X70339182Y-80020726D01*
X70250208Y-80107855D01*
X70208362Y-80168969D01*
X70156557Y-80145617D01*
X70057010Y-80131470D01*
X69533053Y-80131470D01*
X69514902Y-80129434D01*
X69507100Y-80129380D01*
X68744326Y-80129380D01*
X68732400Y-80117454D01*
X68732400Y-80035400D01*
X69198490Y-80035400D01*
X69259224Y-80029445D01*
X69319972Y-80024130D01*
X69323304Y-80023162D01*
X69326762Y-80022823D01*
X69385166Y-80005190D01*
X69443742Y-79988172D01*
X69446827Y-79986573D01*
X69450149Y-79985570D01*
X69503986Y-79956945D01*
X69558170Y-79928858D01*
X69560885Y-79926691D01*
X69563950Y-79925061D01*
X69611208Y-79886518D01*
X69658898Y-79848448D01*
X69663728Y-79843684D01*
X69663830Y-79843601D01*
X69663908Y-79843507D01*
X69665463Y-79841973D01*
X70018136Y-79489300D01*
X71525130Y-79489300D01*
X71525130Y-79782133D01*
X71538795Y-79850834D01*
X71565601Y-79915549D01*
X71604517Y-79973791D01*
X71654048Y-80023322D01*
X71712290Y-80062238D01*
X71777005Y-80089044D01*
X71845706Y-80102710D01*
X72189340Y-80102710D01*
X72278240Y-80013810D01*
X72278240Y-79400400D01*
X71614030Y-79400400D01*
X71525130Y-79489300D01*
X70018136Y-79489300D01*
X70057893Y-79449543D01*
X70096594Y-79402428D01*
X70135825Y-79355674D01*
X70137497Y-79352632D01*
X70139702Y-79349948D01*
X70168527Y-79296190D01*
X70197917Y-79242729D01*
X70198967Y-79239418D01*
X70200608Y-79236358D01*
X70218431Y-79178061D01*
X70236889Y-79119875D01*
X70237277Y-79116420D01*
X70238291Y-79113102D01*
X70244452Y-79052453D01*
X70251256Y-78991791D01*
X70251303Y-78985003D01*
X70251316Y-78984876D01*
X70251305Y-78984758D01*
X70251320Y-78982570D01*
X70251320Y-78657715D01*
X70277133Y-78640706D01*
X70342354Y-78564182D01*
X70383673Y-78472517D01*
X70397820Y-78372970D01*
X70397820Y-77075030D01*
X70393304Y-77018402D01*
X70363560Y-76922355D01*
X70308236Y-76838397D01*
X70231712Y-76773176D01*
X70140047Y-76731857D01*
X70040500Y-76717710D01*
X69141340Y-76717710D01*
X69084712Y-76722226D01*
X68988665Y-76751970D01*
X68904707Y-76807294D01*
X68839486Y-76883818D01*
X68798167Y-76975483D01*
X68784020Y-77075030D01*
X68784020Y-78372970D01*
X68788536Y-78429598D01*
X68818280Y-78525645D01*
X68873604Y-78609603D01*
X68930520Y-78658112D01*
X68930520Y-78709024D01*
X68924944Y-78714600D01*
X68453000Y-78714600D01*
X68392269Y-78720555D01*
X68331518Y-78725870D01*
X68328186Y-78726838D01*
X68324728Y-78727177D01*
X68266324Y-78744810D01*
X68207748Y-78761828D01*
X68204663Y-78763427D01*
X68201341Y-78764430D01*
X68147504Y-78793055D01*
X68093320Y-78821142D01*
X68090605Y-78823309D01*
X68087540Y-78824939D01*
X68040282Y-78863482D01*
X67992592Y-78901552D01*
X67987758Y-78906319D01*
X67987660Y-78906399D01*
X67987585Y-78906489D01*
X67986026Y-78908027D01*
X67605027Y-79289027D01*
X67566326Y-79336142D01*
X67527095Y-79382896D01*
X67525423Y-79385938D01*
X67523218Y-79388622D01*
X67494393Y-79442380D01*
X67465003Y-79495841D01*
X67463953Y-79499152D01*
X67462312Y-79502212D01*
X67444485Y-79560521D01*
X67426031Y-79618695D01*
X67425644Y-79622148D01*
X67424629Y-79625467D01*
X67418468Y-79686122D01*
X67411664Y-79746779D01*
X67411617Y-79753567D01*
X67411604Y-79753694D01*
X67411615Y-79753812D01*
X67411600Y-79756000D01*
X67411600Y-80206351D01*
X66451480Y-79246232D01*
X66451480Y-78657715D01*
X66477293Y-78640706D01*
X66542514Y-78564182D01*
X66583833Y-78472517D01*
X66597980Y-78372970D01*
X66597980Y-77075030D01*
X66593464Y-77018402D01*
X66563720Y-76922355D01*
X66508396Y-76838397D01*
X66431872Y-76773176D01*
X66340207Y-76731857D01*
X66240660Y-76717710D01*
X65341500Y-76717710D01*
X65284872Y-76722226D01*
X65188825Y-76751970D01*
X65104867Y-76807294D01*
X65039646Y-76883818D01*
X64998327Y-76975483D01*
X64984180Y-77075030D01*
X64984180Y-78372970D01*
X64988696Y-78429598D01*
X65018440Y-78525645D01*
X65073764Y-78609603D01*
X65130680Y-78658112D01*
X65130680Y-79519778D01*
X65136635Y-79580512D01*
X65141950Y-79641260D01*
X65142918Y-79644592D01*
X65143257Y-79648050D01*
X65160890Y-79706454D01*
X65177908Y-79765030D01*
X65179507Y-79768115D01*
X65180510Y-79771437D01*
X65209135Y-79825274D01*
X65237222Y-79879458D01*
X65239389Y-79882173D01*
X65241019Y-79885238D01*
X65279562Y-79932496D01*
X65317632Y-79980186D01*
X65322396Y-79985016D01*
X65322479Y-79985118D01*
X65322573Y-79985196D01*
X65324107Y-79986751D01*
X66426080Y-81088724D01*
X66426080Y-81762600D01*
X66939160Y-81762600D01*
X67019558Y-81682202D01*
X67315900Y-81978545D01*
X67315900Y-82514440D01*
X67320416Y-82571068D01*
X67350160Y-82667115D01*
X67405484Y-82751073D01*
X67411600Y-82756286D01*
X67411600Y-83017360D01*
X67417555Y-83078094D01*
X67422870Y-83138842D01*
X67423838Y-83142174D01*
X67424177Y-83145632D01*
X67441810Y-83204036D01*
X67458828Y-83262612D01*
X67460427Y-83265697D01*
X67461430Y-83269019D01*
X67490055Y-83322856D01*
X67518142Y-83377040D01*
X67520309Y-83379755D01*
X67521939Y-83382820D01*
X67560482Y-83430078D01*
X67598552Y-83477768D01*
X67603316Y-83482598D01*
X67603399Y-83482700D01*
X67603493Y-83482778D01*
X67605027Y-83484333D01*
X68550294Y-84429600D01*
X68426547Y-84429600D01*
X68318720Y-84267308D01*
X68139714Y-84087048D01*
X67929105Y-83944990D01*
X67694914Y-83846545D01*
X67446061Y-83795463D01*
X67192026Y-83793689D01*
X66942485Y-83841292D01*
X66706942Y-83936457D01*
X66494370Y-84075561D01*
X66312864Y-84253304D01*
X66169340Y-84462917D01*
X66069262Y-84696415D01*
X66040112Y-84833553D01*
X66022961Y-84737251D01*
X65930067Y-84499589D01*
X65905408Y-84453455D01*
X65728521Y-84347005D01*
X64985526Y-85090000D01*
X64999669Y-85104143D01*
X64784143Y-85319669D01*
X64770000Y-85305526D01*
X64755858Y-85319669D01*
X64540332Y-85104143D01*
X64554474Y-85090000D01*
X64540332Y-85075858D01*
X64755858Y-84860332D01*
X64770000Y-84874474D01*
X65512995Y-84131479D01*
X65406545Y-83954592D01*
X65172808Y-83852225D01*
X64923590Y-83797425D01*
X64668470Y-83792297D01*
X64417251Y-83837039D01*
X64179589Y-83929933D01*
X64133455Y-83954592D01*
X64027006Y-84131477D01*
X63957694Y-84062165D01*
X63930600Y-84089259D01*
X63930600Y-82637319D01*
X63970004Y-82664706D01*
X64123602Y-82731811D01*
X64287309Y-82767804D01*
X64454890Y-82771315D01*
X64619961Y-82742208D01*
X64776234Y-82681594D01*
X64917758Y-82591780D01*
X65039142Y-82476188D01*
X65135762Y-82339220D01*
X65203938Y-82186094D01*
X65210707Y-82156300D01*
X65519300Y-82156300D01*
X65519300Y-82549463D01*
X65532965Y-82618164D01*
X65559771Y-82682879D01*
X65598687Y-82741121D01*
X65648218Y-82790652D01*
X65706460Y-82829568D01*
X65771175Y-82856374D01*
X65839876Y-82870040D01*
X66032380Y-82870040D01*
X66121280Y-82781140D01*
X66121280Y-82067400D01*
X66426080Y-82067400D01*
X66426080Y-82781140D01*
X66514980Y-82870040D01*
X66707484Y-82870040D01*
X66776185Y-82856374D01*
X66840900Y-82829568D01*
X66899142Y-82790652D01*
X66948673Y-82741121D01*
X66987589Y-82682879D01*
X67014395Y-82618164D01*
X67028060Y-82549463D01*
X67028060Y-82156300D01*
X66939160Y-82067400D01*
X66426080Y-82067400D01*
X66121280Y-82067400D01*
X65608200Y-82067400D01*
X65519300Y-82156300D01*
X65210707Y-82156300D01*
X65241074Y-82022642D01*
X65243747Y-81831191D01*
X65211190Y-81666766D01*
X65147316Y-81511796D01*
X65054558Y-81372184D01*
X64963549Y-81280537D01*
X65519300Y-81280537D01*
X65519300Y-81673700D01*
X65608200Y-81762600D01*
X66121280Y-81762600D01*
X66121280Y-81048860D01*
X66032380Y-80959960D01*
X65839876Y-80959960D01*
X65771175Y-80973626D01*
X65706460Y-81000432D01*
X65648218Y-81039348D01*
X65598687Y-81088879D01*
X65559771Y-81147121D01*
X65532965Y-81211836D01*
X65519300Y-81280537D01*
X64963549Y-81280537D01*
X64936449Y-81253248D01*
X64797488Y-81159517D01*
X64642968Y-81094563D01*
X64478774Y-81060859D01*
X64311161Y-81059689D01*
X64146512Y-81091097D01*
X63991100Y-81153888D01*
X63930600Y-81193478D01*
X63930600Y-73384215D01*
X64134969Y-73526255D01*
X64367762Y-73627960D01*
X64503300Y-73657760D01*
X64503300Y-74113507D01*
X64427957Y-74163154D01*
X64362736Y-74239678D01*
X64321417Y-74331343D01*
X64307270Y-74430890D01*
X64307270Y-75429110D01*
X64311786Y-75485738D01*
X64341530Y-75581785D01*
X64396854Y-75665743D01*
X64473378Y-75730964D01*
X64565043Y-75772283D01*
X64664590Y-75786430D01*
X65662810Y-75786430D01*
X65719438Y-75781914D01*
X65815485Y-75752170D01*
X65899443Y-75696846D01*
X65964664Y-75620322D01*
X66005983Y-75528657D01*
X66020130Y-75429110D01*
X66020130Y-74430890D01*
X66059870Y-74430890D01*
X66059870Y-75429110D01*
X66064386Y-75485738D01*
X66094130Y-75581785D01*
X66149454Y-75665743D01*
X66225978Y-75730964D01*
X66317643Y-75772283D01*
X66417190Y-75786430D01*
X67415410Y-75786430D01*
X67472038Y-75781914D01*
X67568085Y-75752170D01*
X67652043Y-75696846D01*
X67717264Y-75620322D01*
X67758583Y-75528657D01*
X67772730Y-75429110D01*
X67772730Y-75387200D01*
X68993570Y-75387200D01*
X68993570Y-75439270D01*
X68998086Y-75495898D01*
X69027830Y-75591945D01*
X69083154Y-75675903D01*
X69159678Y-75741124D01*
X69251343Y-75782443D01*
X69350890Y-75796590D01*
X70349110Y-75796590D01*
X70405738Y-75792074D01*
X70501785Y-75762330D01*
X70585743Y-75707006D01*
X70650964Y-75630482D01*
X70684340Y-75556438D01*
X70774560Y-75569260D01*
X70899731Y-75569260D01*
X70877125Y-75623836D01*
X70863460Y-75692537D01*
X70863460Y-76085700D01*
X70952360Y-76174600D01*
X71465440Y-76174600D01*
X71465440Y-76154600D01*
X71770240Y-76154600D01*
X71770240Y-76174600D01*
X72283320Y-76174600D01*
X72372220Y-76085700D01*
X72372220Y-75692537D01*
X72358555Y-75623836D01*
X72331749Y-75559121D01*
X72292833Y-75500879D01*
X72265514Y-75473560D01*
X72507614Y-75473560D01*
X72672696Y-75638643D01*
X72660060Y-75727560D01*
X72660060Y-76926440D01*
X72664576Y-76983068D01*
X72694320Y-77079115D01*
X72749644Y-77163073D01*
X72755760Y-77168286D01*
X72755760Y-77190600D01*
X72654334Y-77190600D01*
X72601322Y-77168316D01*
X72464697Y-77140271D01*
X72325227Y-77139297D01*
X72298687Y-77144360D01*
X72331749Y-77094879D01*
X72358555Y-77030164D01*
X72372220Y-76961463D01*
X72372220Y-76568300D01*
X72283320Y-76479400D01*
X71770240Y-76479400D01*
X71770240Y-76499400D01*
X71465440Y-76499400D01*
X71465440Y-76479400D01*
X70952360Y-76479400D01*
X70863460Y-76568300D01*
X70863460Y-76961463D01*
X70877125Y-77030164D01*
X70903931Y-77094879D01*
X70942847Y-77153121D01*
X70992378Y-77202652D01*
X71050620Y-77241568D01*
X71115335Y-77268374D01*
X71184036Y-77282040D01*
X71198569Y-77282040D01*
X71180211Y-77294053D01*
X71080561Y-77391638D01*
X71001763Y-77506719D01*
X70946819Y-77634914D01*
X70917821Y-77771340D01*
X70915873Y-77910800D01*
X70941051Y-78047982D01*
X70992395Y-78177661D01*
X71067949Y-78294898D01*
X71164835Y-78395226D01*
X71279363Y-78474826D01*
X71407172Y-78530664D01*
X71543392Y-78560614D01*
X71578366Y-78561347D01*
X71565601Y-78580451D01*
X71538795Y-78645166D01*
X71525130Y-78713867D01*
X71525130Y-79006700D01*
X71614030Y-79095600D01*
X72278240Y-79095600D01*
X72278240Y-79075600D01*
X72583040Y-79075600D01*
X72583040Y-79095600D01*
X72603040Y-79095600D01*
X72603040Y-79400400D01*
X72583040Y-79400400D01*
X72583040Y-80013810D01*
X72671940Y-80102710D01*
X73015574Y-80102710D01*
X73084275Y-80089044D01*
X73148990Y-80062238D01*
X73207232Y-80023322D01*
X73256763Y-79973791D01*
X73280121Y-79938833D01*
X73309714Y-79983743D01*
X73386238Y-80048964D01*
X73477903Y-80090283D01*
X73577450Y-80104430D01*
X74677270Y-80104430D01*
X74682977Y-80103975D01*
X74647895Y-80145137D01*
X74587833Y-80133190D01*
X74244200Y-80133190D01*
X74155300Y-80222090D01*
X74155300Y-80588485D01*
X74175300Y-80588485D01*
X74175300Y-80779620D01*
X74002900Y-80779620D01*
X73981584Y-80781710D01*
X73452990Y-80781710D01*
X73396362Y-80786226D01*
X73391037Y-80787875D01*
X73186290Y-80787875D01*
X73097390Y-80876775D01*
X73097390Y-80922594D01*
X73111056Y-80991295D01*
X73120864Y-81014975D01*
X73109817Y-81039483D01*
X73095670Y-81139030D01*
X73095670Y-81241004D01*
X73074482Y-81226713D01*
X72959683Y-81178456D01*
X72837697Y-81153415D01*
X72713170Y-81152546D01*
X72590846Y-81175881D01*
X72475384Y-81222530D01*
X72371182Y-81290718D01*
X72282208Y-81377847D01*
X72211853Y-81480598D01*
X72162796Y-81595058D01*
X72136905Y-81716867D01*
X72135166Y-81841384D01*
X72157646Y-81963868D01*
X72203488Y-82079653D01*
X72270947Y-82184329D01*
X72357453Y-82273908D01*
X72459710Y-82344979D01*
X72573825Y-82394835D01*
X72695450Y-82421575D01*
X72819952Y-82424183D01*
X72839719Y-82420698D01*
X72871531Y-82430789D01*
X72873919Y-82431057D01*
X72876219Y-82431760D01*
X72918251Y-82436029D01*
X72960204Y-82440735D01*
X72964905Y-82440768D01*
X72964992Y-82440777D01*
X72965073Y-82440769D01*
X72966588Y-82440780D01*
X73095670Y-82440780D01*
X73095670Y-82833210D01*
X73100186Y-82889838D01*
X73129930Y-82985885D01*
X73185254Y-83069843D01*
X73261778Y-83135064D01*
X73353443Y-83176383D01*
X73452990Y-83190530D01*
X74552810Y-83190530D01*
X74584946Y-83187967D01*
X74586086Y-83202258D01*
X74615830Y-83298305D01*
X74671154Y-83382263D01*
X74701823Y-83408402D01*
X74679758Y-83434697D01*
X74678600Y-83436803D01*
X74677074Y-83438661D01*
X74657130Y-83475856D01*
X74636771Y-83512890D01*
X74636043Y-83515185D01*
X74634909Y-83517300D01*
X74622558Y-83557697D01*
X74609791Y-83597943D01*
X74609721Y-83598570D01*
X74298810Y-83598570D01*
X74242182Y-83603086D01*
X74146135Y-83632830D01*
X74062177Y-83688154D01*
X73999684Y-83761477D01*
X73978123Y-83729209D01*
X73928592Y-83679678D01*
X73870350Y-83640762D01*
X73805635Y-83613956D01*
X73736934Y-83600290D01*
X73393300Y-83600290D01*
X73304400Y-83689190D01*
X73304400Y-84302600D01*
X73324400Y-84302600D01*
X73324400Y-84607400D01*
X73304400Y-84607400D01*
X73304400Y-85220810D01*
X73393300Y-85309710D01*
X73736934Y-85309710D01*
X73805635Y-85296044D01*
X73870350Y-85269238D01*
X73928592Y-85230322D01*
X73978123Y-85180791D01*
X74001481Y-85145833D01*
X74031074Y-85190743D01*
X74107598Y-85255964D01*
X74199263Y-85297283D01*
X74298810Y-85311430D01*
X75398630Y-85311430D01*
X75455258Y-85306914D01*
X75551305Y-85277170D01*
X75635263Y-85221846D01*
X75700484Y-85145322D01*
X75741803Y-85053657D01*
X75755950Y-84954110D01*
X75755950Y-84428409D01*
X75870450Y-84453583D01*
X75994952Y-84456191D01*
X76117590Y-84434567D01*
X76233692Y-84389534D01*
X76338836Y-84322808D01*
X76429017Y-84236929D01*
X76500800Y-84135170D01*
X76551451Y-84021407D01*
X76579041Y-83899972D01*
X76581027Y-83757735D01*
X76556839Y-83635577D01*
X76509384Y-83520443D01*
X76440470Y-83416720D01*
X76352722Y-83328357D01*
X76268420Y-83271495D01*
X76280283Y-83245177D01*
X76294430Y-83145630D01*
X76294430Y-82911109D01*
X76378456Y-82929583D01*
X76502958Y-82932191D01*
X76625596Y-82910567D01*
X76741698Y-82865534D01*
X76846842Y-82798808D01*
X76937023Y-82712929D01*
X77008806Y-82611170D01*
X77056613Y-82503795D01*
X77285289Y-82275119D01*
X77312072Y-82242513D01*
X77339242Y-82210133D01*
X77340401Y-82208024D01*
X77341926Y-82206168D01*
X77361858Y-82168994D01*
X77382229Y-82131940D01*
X77382957Y-82129645D01*
X77384091Y-82127530D01*
X77390689Y-82105950D01*
X77461110Y-82105950D01*
X77517738Y-82101434D01*
X77613785Y-82071690D01*
X77697743Y-82016366D01*
X77762964Y-81939842D01*
X77804283Y-81848177D01*
X77818430Y-81748630D01*
X77818430Y-80648810D01*
X77813914Y-80592182D01*
X77784170Y-80496135D01*
X77728846Y-80412177D01*
X77654056Y-80348434D01*
X77697743Y-80319646D01*
X77762964Y-80243122D01*
X77804283Y-80151457D01*
X77818430Y-80051910D01*
X77818430Y-78952090D01*
X77813914Y-78895462D01*
X77784170Y-78799415D01*
X77728846Y-78715457D01*
X77652322Y-78650236D01*
X77560657Y-78608917D01*
X77461110Y-78594770D01*
X77419200Y-78594770D01*
X77419200Y-78359000D01*
X77415078Y-78316957D01*
X77411398Y-78274897D01*
X77410728Y-78272590D01*
X77410493Y-78270196D01*
X77398296Y-78229800D01*
X77386504Y-78189210D01*
X77385395Y-78187071D01*
X77384702Y-78184775D01*
X77364885Y-78147504D01*
X77345440Y-78109991D01*
X77343942Y-78108115D01*
X77342812Y-78105989D01*
X77316058Y-78073185D01*
X77289771Y-78040257D01*
X77286478Y-78036917D01*
X77286416Y-78036841D01*
X77286346Y-78036783D01*
X77285289Y-78035711D01*
X77158289Y-77908711D01*
X77125661Y-77881909D01*
X77093303Y-77854758D01*
X77091197Y-77853600D01*
X77089339Y-77852074D01*
X77052144Y-77832130D01*
X77015110Y-77811771D01*
X77012815Y-77811043D01*
X77010700Y-77809909D01*
X76970303Y-77797558D01*
X76930057Y-77784791D01*
X76927674Y-77784524D01*
X76925369Y-77783819D01*
X76883243Y-77779540D01*
X76841384Y-77774845D01*
X76836694Y-77774812D01*
X76836596Y-77774802D01*
X76836505Y-77774811D01*
X76835000Y-77774800D01*
X76549010Y-77774800D01*
X76546449Y-77771592D01*
X76541679Y-77766756D01*
X76541601Y-77766660D01*
X76541512Y-77766586D01*
X76539974Y-77765027D01*
X75904973Y-77130027D01*
X75857858Y-77091326D01*
X75811104Y-77052095D01*
X75808062Y-77050423D01*
X75805378Y-77048218D01*
X75751620Y-77019393D01*
X75698159Y-76990003D01*
X75694848Y-76988953D01*
X75691788Y-76987312D01*
X75633479Y-76969485D01*
X75575305Y-76951031D01*
X75571852Y-76950644D01*
X75568533Y-76949629D01*
X75507878Y-76943468D01*
X75447221Y-76936664D01*
X75440433Y-76936617D01*
X75440306Y-76936604D01*
X75440188Y-76936615D01*
X75438000Y-76936600D01*
X74170816Y-76936600D01*
X74172260Y-76926440D01*
X74172260Y-75727560D01*
X74167744Y-75670932D01*
X74138000Y-75574885D01*
X74082676Y-75490927D01*
X74076560Y-75485714D01*
X74076560Y-75448160D01*
X74070609Y-75387471D01*
X74065291Y-75326679D01*
X74064322Y-75323343D01*
X74063983Y-75319888D01*
X74046354Y-75261500D01*
X74029332Y-75202909D01*
X74027734Y-75199826D01*
X74026730Y-75196501D01*
X73998105Y-75142665D01*
X73970019Y-75088481D01*
X73967850Y-75085764D01*
X73966221Y-75082700D01*
X73927707Y-75035478D01*
X73889609Y-74987752D01*
X73884839Y-74982916D01*
X73884761Y-74982820D01*
X73884672Y-74982746D01*
X73883134Y-74981187D01*
X73248133Y-74346187D01*
X73201018Y-74307486D01*
X73154264Y-74268255D01*
X73151222Y-74266583D01*
X73148538Y-74264378D01*
X73094780Y-74235553D01*
X73041319Y-74206163D01*
X73038008Y-74205113D01*
X73034948Y-74203472D01*
X72976639Y-74185645D01*
X72918465Y-74167191D01*
X72915012Y-74166804D01*
X72911693Y-74165789D01*
X72851038Y-74159628D01*
X72790381Y-74152824D01*
X72783593Y-74152777D01*
X72783466Y-74152764D01*
X72783348Y-74152775D01*
X72781160Y-74152760D01*
X72211859Y-74152760D01*
X72164652Y-74112526D01*
X72072987Y-74071207D01*
X71973440Y-74057060D01*
X70774560Y-74057060D01*
X70717932Y-74061576D01*
X70621885Y-74091320D01*
X70611436Y-74098206D01*
X70543523Y-74040324D01*
X70575791Y-74018763D01*
X70625322Y-73969232D01*
X70664238Y-73910990D01*
X70691044Y-73846275D01*
X70694536Y-73828720D01*
X74190762Y-73828720D01*
X74261799Y-74215770D01*
X74406662Y-74581651D01*
X74619832Y-74912426D01*
X74893190Y-75195497D01*
X75216324Y-75420081D01*
X75576926Y-75577624D01*
X75961261Y-75662125D01*
X76354689Y-75670366D01*
X76742225Y-75602033D01*
X77109108Y-75459729D01*
X77441364Y-75248873D01*
X77726336Y-74977498D01*
X77953170Y-74655939D01*
X78113227Y-74296446D01*
X78200410Y-73912711D01*
X78206686Y-73463243D01*
X78130252Y-73077223D01*
X77980295Y-72713400D01*
X77762528Y-72385634D01*
X77485244Y-72106407D01*
X77159005Y-71886357D01*
X76796239Y-71733864D01*
X76410762Y-71654737D01*
X76017257Y-71651989D01*
X75630712Y-71725727D01*
X75265852Y-71873140D01*
X74936573Y-72088614D01*
X74655418Y-72363942D01*
X74433095Y-72688636D01*
X74278073Y-73050329D01*
X74196257Y-73435244D01*
X74190762Y-73828720D01*
X70694536Y-73828720D01*
X70704710Y-73777574D01*
X70704710Y-73762293D01*
X70739537Y-73769220D01*
X71132700Y-73769220D01*
X71221600Y-73680320D01*
X71221600Y-73167240D01*
X71526400Y-73167240D01*
X71526400Y-73680320D01*
X71615300Y-73769220D01*
X72008463Y-73769220D01*
X72077164Y-73755555D01*
X72141879Y-73728749D01*
X72200121Y-73689833D01*
X72249652Y-73640302D01*
X72288568Y-73582060D01*
X72315374Y-73517345D01*
X72329040Y-73448644D01*
X72329040Y-73256140D01*
X72240140Y-73167240D01*
X71526400Y-73167240D01*
X71221600Y-73167240D01*
X71201600Y-73167240D01*
X71201600Y-72862440D01*
X71221600Y-72862440D01*
X71221600Y-72349360D01*
X71526400Y-72349360D01*
X71526400Y-72862440D01*
X72240140Y-72862440D01*
X72329040Y-72773540D01*
X72329040Y-72581036D01*
X72315374Y-72512335D01*
X72288568Y-72447620D01*
X72249652Y-72389378D01*
X72200121Y-72339847D01*
X72141879Y-72300931D01*
X72077164Y-72274125D01*
X72008463Y-72260460D01*
X71615300Y-72260460D01*
X71526400Y-72349360D01*
X71221600Y-72349360D01*
X71132700Y-72260460D01*
X70739537Y-72260460D01*
X70670836Y-72274125D01*
X70606121Y-72300931D01*
X70547879Y-72339847D01*
X70543071Y-72344655D01*
X70517549Y-72327601D01*
X70452834Y-72300795D01*
X70384133Y-72287130D01*
X70091300Y-72287130D01*
X70002400Y-72376030D01*
X70002400Y-73040240D01*
X70022400Y-73040240D01*
X70022400Y-73345040D01*
X70002400Y-73345040D01*
X70002400Y-73365040D01*
X69697600Y-73365040D01*
X69697600Y-73345040D01*
X69084190Y-73345040D01*
X68995290Y-73433940D01*
X68995290Y-73777574D01*
X69008956Y-73846275D01*
X69035762Y-73910990D01*
X69074678Y-73969232D01*
X69124209Y-74018763D01*
X69159167Y-74042121D01*
X69114257Y-74071714D01*
X69049036Y-74148238D01*
X69007717Y-74239903D01*
X68993570Y-74339450D01*
X68993570Y-74472800D01*
X67772730Y-74472800D01*
X67772730Y-74430890D01*
X67768214Y-74374262D01*
X67738470Y-74278215D01*
X67683146Y-74194257D01*
X67606622Y-74129036D01*
X67514957Y-74087717D01*
X67415410Y-74073570D01*
X66417190Y-74073570D01*
X66360562Y-74078086D01*
X66264515Y-74107830D01*
X66180557Y-74163154D01*
X66115336Y-74239678D01*
X66074017Y-74331343D01*
X66059870Y-74430890D01*
X66020130Y-74430890D01*
X66015614Y-74374262D01*
X65985870Y-74278215D01*
X65930546Y-74194257D01*
X65854022Y-74129036D01*
X65824100Y-74115548D01*
X65824100Y-73348521D01*
X66567005Y-73348521D01*
X66673455Y-73525408D01*
X66907192Y-73627775D01*
X67156410Y-73682575D01*
X67411530Y-73687703D01*
X67662749Y-73642961D01*
X67900411Y-73550067D01*
X67946545Y-73525408D01*
X68052995Y-73348521D01*
X67310000Y-72605526D01*
X66567005Y-73348521D01*
X65824100Y-73348521D01*
X65824100Y-73143086D01*
X65901794Y-73032948D01*
X66005122Y-72800870D01*
X66040027Y-72647232D01*
X66057039Y-72742749D01*
X66149933Y-72980411D01*
X66174592Y-73026545D01*
X66351479Y-73132995D01*
X67094474Y-72390000D01*
X67080332Y-72375858D01*
X67295858Y-72160332D01*
X67310000Y-72174474D01*
X67324143Y-72160332D01*
X67539669Y-72375858D01*
X67525526Y-72390000D01*
X68268521Y-73132995D01*
X68445408Y-73026545D01*
X68547775Y-72792808D01*
X68588476Y-72607706D01*
X68995290Y-72607706D01*
X68995290Y-72951340D01*
X69084190Y-73040240D01*
X69697600Y-73040240D01*
X69697600Y-72376030D01*
X69608700Y-72287130D01*
X69315867Y-72287130D01*
X69247166Y-72300795D01*
X69182451Y-72327601D01*
X69124209Y-72366517D01*
X69074678Y-72416048D01*
X69035762Y-72474290D01*
X69008956Y-72539005D01*
X68995290Y-72607706D01*
X68588476Y-72607706D01*
X68602575Y-72543590D01*
X68607703Y-72288470D01*
X68562961Y-72037251D01*
X68470067Y-71799589D01*
X68445408Y-71753455D01*
X68268523Y-71647006D01*
X68337835Y-71577694D01*
X68310741Y-71550600D01*
X78309400Y-71550600D01*
X78309400Y-76338465D01*
M02*
