ISO-10303-21;
HEADER;
/* Generated by software containing ST-Developer
 * from STEP Tools, Inc. (www.steptools.com) 
 */
/* OPTION: using custom renumber hook */

FILE_DESCRIPTION(
/* description */ ('STEP AP242 Edition 2',
'CAx-IF Rec.Pracs.---Representation and Presentation of Product Manufa
cturing Information (PMI)---4.0---2014-10-13',
'CAx-IF Rec.Pracs.---3D Tessellated Geometry---0.4---2014-09-14','2;1',
'CAx-IF Rec.Pracs.---User Defined Attributes---1.5---2016-08-15'),
/* implementation_level */ '2;1');

FILE_NAME(
/* name */ '9774025151R_rev1',
/* time_stamp */ '2026-08-11T16:20:00Z',
/* author */ (''),
/* organization */ (''),
/* preprocessor_version */ 'ST-DEVELOPER v20',
/* originating_system */ 'ONSHAPE BY PTC INC, 1.219',
/* authorisation */ '  ');

FILE_SCHEMA (('AP242_MANAGED_MODEL_BASED_3D_ENGINEERING_MIM_LF { 1 0 10303 442 3 1 4 }'));
ENDSEC;

DATA;
#10=SHAPE_REPRESENTATION_RELATIONSHIP('','',#89,#11);
#11=ADVANCED_BREP_SHAPE_REPRESENTATION('',(#87),#149);
#12=CYLINDRICAL_SURFACE('',#94,0.00255);
#13=CYLINDRICAL_SURFACE('',#98,0.00175);
#14=CYLINDRICAL_SURFACE('',#102,0.0010065);
#15=ORIENTED_EDGE('',*,*,#27,.F.);
#16=ORIENTED_EDGE('',*,*,#28,.F.);
#17=ORIENTED_EDGE('',*,*,#28,.T.);
#18=ORIENTED_EDGE('',*,*,#29,.F.);
#19=ORIENTED_EDGE('',*,*,#29,.T.);
#20=ORIENTED_EDGE('',*,*,#30,.F.);
#21=ORIENTED_EDGE('',*,*,#30,.T.);
#22=ORIENTED_EDGE('',*,*,#31,.F.);
#23=ORIENTED_EDGE('',*,*,#32,.F.);
#24=ORIENTED_EDGE('',*,*,#31,.T.);
#25=ORIENTED_EDGE('',*,*,#27,.T.);
#26=ORIENTED_EDGE('',*,*,#32,.T.);
#27=EDGE_CURVE('',#33,#33,#39,.F.);
#28=EDGE_CURVE('',#34,#34,#40,.F.);
#29=EDGE_CURVE('',#35,#35,#41,.F.);
#30=EDGE_CURVE('',#36,#36,#42,.F.);
#31=EDGE_CURVE('',#37,#37,#43,.F.);
#32=EDGE_CURVE('',#38,#38,#44,.T.);
#33=VERTEX_POINT('',#132);
#34=VERTEX_POINT('',#134);
#35=VERTEX_POINT('',#137);
#36=VERTEX_POINT('',#140);
#37=VERTEX_POINT('',#143);
#38=VERTEX_POINT('',#146);
#39=CIRCLE('',#92,0.0010065);
#40=CIRCLE('',#93,0.00255);
#41=CIRCLE('',#95,0.00255);
#42=CIRCLE('',#97,0.00175);
#43=CIRCLE('',#99,0.00175);
#44=CIRCLE('',#101,0.0010065);
#45=EDGE_LOOP('',(#15));
#46=EDGE_LOOP('',(#16));
#47=EDGE_LOOP('',(#17));
#48=EDGE_LOOP('',(#18));
#49=EDGE_LOOP('',(#19));
#50=EDGE_LOOP('',(#20));
#51=EDGE_LOOP('',(#21));
#52=EDGE_LOOP('',(#22));
#53=EDGE_LOOP('',(#23));
#54=EDGE_LOOP('',(#24));
#55=EDGE_LOOP('',(#25));
#56=EDGE_LOOP('',(#26));
#57=FACE_BOUND('',#45,.T.);
#58=FACE_BOUND('',#46,.T.);
#59=FACE_BOUND('',#47,.T.);
#60=FACE_BOUND('',#48,.T.);
#61=FACE_BOUND('',#49,.T.);
#62=FACE_BOUND('',#50,.T.);
#63=FACE_BOUND('',#51,.T.);
#64=FACE_BOUND('',#52,.T.);
#65=FACE_BOUND('',#53,.T.);
#66=FACE_BOUND('',#54,.T.);
#67=FACE_BOUND('',#55,.T.);
#68=FACE_BOUND('',#56,.T.);
#69=PLANE('',#91);
#70=PLANE('',#96);
#71=PLANE('',#100);
#72=ADVANCED_FACE('',(#57,#58),#69,.T.);
#73=ADVANCED_FACE('',(#59,#60),#12,.T.);
#74=ADVANCED_FACE('',(#61,#62),#70,.T.);
#75=ADVANCED_FACE('',(#63,#64),#13,.T.);
#76=ADVANCED_FACE('',(#65,#66),#71,.T.);
#77=ADVANCED_FACE('Face appearance 1',(#67,#68),#14,.F.);
#78=CLOSED_SHELL('',(#72,#73,#74,#75,#76,#77));
#79=STYLED_ITEM('',(#80),#87);
#80=PRESENTATION_STYLE_ASSIGNMENT((#81));
#81=SURFACE_STYLE_USAGE(.BOTH.,#82);
#82=SURFACE_SIDE_STYLE('',(#83));
#83=SURFACE_STYLE_FILL_AREA(#84);
#84=FILL_AREA_STYLE('',(#85));
#85=FILL_AREA_STYLE_COLOUR('',#86);
#86=COLOUR_RGB('',0.643137254901961,0.67843137254902,0.698039215686275);
#87=MANIFOLD_SOLID_BREP('1',#78);
#88=SHAPE_DEFINITION_REPRESENTATION(#154,#89);
#89=SHAPE_REPRESENTATION('1',(#90),#149);
#90=AXIS2_PLACEMENT_3D('',#129,#103,#104);
#91=AXIS2_PLACEMENT_3D('',#130,#105,#106);
#92=AXIS2_PLACEMENT_3D('',#131,#107,#108);
#93=AXIS2_PLACEMENT_3D('',#133,#109,#110);
#94=AXIS2_PLACEMENT_3D('',#135,#111,#112);
#95=AXIS2_PLACEMENT_3D('',#136,#113,#114);
#96=AXIS2_PLACEMENT_3D('',#138,#115,#116);
#97=AXIS2_PLACEMENT_3D('',#139,#117,#118);
#98=AXIS2_PLACEMENT_3D('',#141,#119,#120);
#99=AXIS2_PLACEMENT_3D('',#142,#121,#122);
#100=AXIS2_PLACEMENT_3D('',#144,#123,#124);
#101=AXIS2_PLACEMENT_3D('',#145,#125,#126);
#102=AXIS2_PLACEMENT_3D('',#147,#127,#128);
#103=DIRECTION('',(0.,0.,1.));
#104=DIRECTION('',(1.,0.,0.));
#105=DIRECTION('',(2.3977525989811E-16,0.,1.));
#106=DIRECTION('',(1.,0.,-2.3977525989811E-16));
#107=DIRECTION('',(-2.3977525989811E-16,0.,-1.));
#108=DIRECTION('',(-1.,0.,2.3977525989811E-16));
#109=DIRECTION('',(2.3977525989811E-16,0.,1.));
#110=DIRECTION('',(1.,0.,-2.3977525989811E-16));
#111=DIRECTION('',(2.3977525989811E-16,0.,1.));
#112=DIRECTION('',(-1.,0.,2.3977525989811E-16));
#113=DIRECTION('',(2.3977525989811E-16,0.,1.));
#114=DIRECTION('',(1.,0.,-2.3977525989811E-16));
#115=DIRECTION('',(-2.3977525989811E-16,0.,-1.));
#116=DIRECTION('',(-1.,0.,2.3977525989811E-16));
#117=DIRECTION('',(2.3977525989811E-16,0.,1.));
#118=DIRECTION('',(1.,0.,-2.3977525989811E-16));
#119=DIRECTION('',(2.3977525989811E-16,0.,1.));
#120=DIRECTION('',(-1.,0.,2.3977525989811E-16));
#121=DIRECTION('',(2.3977525989811E-16,0.,1.));
#122=DIRECTION('',(1.,0.,-2.3977525989811E-16));
#123=DIRECTION('',(-2.3977525989811E-16,0.,-1.));
#124=DIRECTION('',(-1.,0.,2.3977525989811E-16));
#125=DIRECTION('',(-2.3977525989811E-16,0.,-1.));
#126=DIRECTION('',(-1.,0.,2.3977525989811E-16));
#127=DIRECTION('',(-2.3977525989811E-16,0.,-1.));
#128=DIRECTION('',(1.,0.,-2.3977525989811E-16));
#129=CARTESIAN_POINT('',(0.,0.,0.));
#130=CARTESIAN_POINT('',(-0.00255,0.,0.0025));
#131=CARTESIAN_POINT('',(4.66389041201214E-19,0.,0.0025));
#132=CARTESIAN_POINT('',(-0.0010065,0.,0.0025));
#133=CARTESIAN_POINT('',(2.09438636582396E-18,0.,0.0025));
#134=CARTESIAN_POINT('',(0.00255,0.,0.0025));
#135=CARTESIAN_POINT('',(1.7347234759768E-18,0.,0.001));
#136=CARTESIAN_POINT('',(1.49494821607869E-18,0.,0.));
#137=CARTESIAN_POINT('',(0.00255,0.,-6.11426912740181E-19));
#138=CARTESIAN_POINT('',(-0.00175,0.,-1.20635097187282E-19));
#139=CARTESIAN_POINT('',(1.49494821607869E-18,0.,0.));
#140=CARTESIAN_POINT('',(0.00175,0.,-4.19606704821693E-19));
#141=CARTESIAN_POINT('',(1.7347234759768E-18,0.,0.001));
#142=CARTESIAN_POINT('',(1.15926285222134E-18,0.,-0.0014));
#143=CARTESIAN_POINT('',(0.00175,0.,-0.0014));
#144=CARTESIAN_POINT('',(2.9190111423294E-19,0.,-0.0014));
#145=CARTESIAN_POINT('',(-4.68734472401415E-19,0.,-0.0014));
#146=CARTESIAN_POINT('',(-0.0010065,0.,-0.0014));
#147=CARTESIAN_POINT('',(-1.4996218801002E-18,0.,-0.00569939022122987));
#148=MECHANICAL_DESIGN_GEOMETRIC_PRESENTATION_REPRESENTATION('',(#79),#149);
#149=(
GEOMETRIC_REPRESENTATION_CONTEXT(3)
GLOBAL_UNCERTAINTY_ASSIGNED_CONTEXT((#150))
GLOBAL_UNIT_ASSIGNED_CONTEXT((#153,#152,#151))
REPRESENTATION_CONTEXT('1','TOP_LEVEL_ASSEMBLY_PART')
);
#150=UNCERTAINTY_MEASURE_WITH_UNIT(LENGTH_MEASURE(1.E-8),#153,
'DISTANCE_ACCURACY_VALUE','Maximum Tolerance applied to model');
#151=(
NAMED_UNIT(*)
SI_UNIT($,.STERADIAN.)
SOLID_ANGLE_UNIT()
);
#152=(
NAMED_UNIT(*)
PLANE_ANGLE_UNIT()
SI_UNIT($,.RADIAN.)
);
#153=(
LENGTH_UNIT()
NAMED_UNIT(*)
SI_UNIT($,.METRE.)
);
#154=PRODUCT_DEFINITION_SHAPE('','',#155);
#155=PRODUCT_DEFINITION('','',#157,#156);
#156=PRODUCT_DEFINITION_CONTEXT('',#163,'design');
#157=PRODUCT_DEFINITION_FORMATION_WITH_SPECIFIED_SOURCE('','',#159,
 .NOT_KNOWN.);
#158=PRODUCT_RELATED_PRODUCT_CATEGORY('','',(#159));
#159=PRODUCT('1','1','1',(#161));
#160=PRODUCT_CATEGORY('','');
#161=PRODUCT_CONTEXT('',#163,'mechanical');
#162=APPLICATION_PROTOCOL_DEFINITION('international standard',
'ap242_managed_model_based_3d_engineering',2020,#163);
#163=APPLICATION_CONTEXT('managed model based 3d engineering');
ENDSEC;
END-ISO-10303-21;
